<svg width="295" height="97" viewBox="0 0 295 97" fill="none" xmlns="http://www.w3.org/2000/svg">
<path d="M66.8999 51.7C67.8999 51.2 68.9999 50.6 69.9999 50.1C70.3999 49.9 71.7999 49.4 71.9999 49C72.0999 48.8 71.9999 48.2 71.9999 47.9V45.5V28.4V11.7V9.5C71.9999 9.4 72.0999 8.7 71.9999 8.6C71.8999 8.5 71.0999 8.6 70.9999 8.6H68.7999C67.9999 8.6 68.0999 8.7 67.5999 9.3C65.6999 11.8 63.7999 14.3 61.8999 16.9C60.9999 18.1 60.0999 19.2 59.2999 20.4C58.6999 21.2 58.6999 21.3 57.5999 21.3L57.8999 14.7C57.9999 13.1 57.9999 11.5 58.0999 9.9C58.0999 9.3 58.1999 8.7 58.1999 8.1C58.1999 7.9 58.0999 7.3 58.1999 7.2C58.3999 6.9 60.1999 7.1 60.6999 7.1H98.0999C98.2999 7.1 99.1999 7 99.3999 7.1C99.5999 7.2 99.4999 7.8 99.4999 8.1C99.5999 9.4 99.5999 10.8 99.6999 12.1C99.7999 15 99.8999 17.8 100.1 20.7V21.3C99.5999 21.3 99.1999 21.4 98.7999 21.1C98.3999 20.8 98.0999 20.2 97.7999 19.8C96.5999 18.2 95.3999 16.5 94.0999 14.9L90.4999 10.1C90.2999 9.8 89.9999 9.1 89.5999 8.9C89.2999 8.7 88.6999 8.8 88.2999 8.8H86.6999C86.4999 8.8 85.6999 8.7 85.4999 8.8C85.3999 8.9 85.4999 8.9 85.3999 9.1C85.1999 9.9 85.3999 10.9 85.3999 11.7V46.5C85.3999 47.2 85.1999 48.2 85.3999 48.9C85.5999 49.6 87.1999 50.1 87.8999 50.4C88.5999 50.8 89.7999 51.1 90.3999 51.7C90.5999 51.9 90.7999 52.9 90.5999 53.2C90.4999 53.3 89.9999 53.2 89.8999 53.2H67.8999C67.6999 53.2 66.9999 53.3 66.8999 53.2C66.7999 52.8 66.8999 52 66.8999 51.7V51.7ZM104 49.9V35.3V11.4V7.5C104 6.9 104.2 6 104 5.4C103.8 4.7 102.6 4.6 101.9 4.3C101.5 4.2 100.2 3.9 99.9999 3.5V2.7H100.3C100.7 2.5 101.5 2.5 102 2.4C102.9 2.2 103.8 2.1 104.6 1.9C106.6 1.5 108.7 1.1 110.7 0.799997C111.9 0.599997 113.1 0.299997 114.3 0.0999973C114.6 0.0999973 115.8 -0.100003 115.9 0.0999973C116 0.199997 115.9 0.599997 115.9 0.699997V21.4C119.7 17.6 126.3 15.5 131.6 16.8C136.2 17.9 137.7 22.2 137.7 26.6C137.8 32.2 137.7 37.7 137.7 43.3V47.8C137.7 48.3 137.5 49.5 137.7 50C137.8 50.2 138.2 50.3 138.4 50.5C139.1 50.9 139.9 51.3 140.6 51.7C140.7 51.8 141 51.9 141 52C141.1 52.1 141.1 53 141 53.1C140.9 53.3 140.9 53.2 140.6 53.2C139.5 53.4 138.3 53.2 137.3 53.2H122.9C122.8 53.2 122.3 53.3 122.2 53.2C122.1 53.1 122.1 52 122.2 51.9C122.5 51.5 123.7 51.1 124.1 50.8C124.4 50.6 125.3 50.3 125.5 50C125.7 49.7 125.5 48.6 125.5 48.3V44.2C125.5 38.4 125.6 32.5 125.5 26.7C125.5 25 125.2 23 123.5 22.1C122.6 21.6 121.4 21.5 120.4 21.5C119.6 21.5 118.8 21.7 118.1 21.9C117.5 22.1 116.4 22.5 116 23C115.7 23.4 115.9 24 115.9 24.5V48.1C115.9 48.6 115.7 49.6 115.9 50C116 50.2 116.4 50.4 116.7 50.5C117.4 50.9 118.3 51.3 119 51.7C119.1 51.8 119.3 51.8 119.3 51.9C119.4 52 119.4 52.9 119.3 53C119.2 53.1 119.1 53.1 118.9 53.1C117.8 53.2 116.6 53.1 115.5 53.1H101.1C101 53.1 100.5 53.2 100.4 53.1C100.3 53 100.4 52 100.5 51.8C100.8 51.4 101.9 51 102.3 50.8C103 50.5 103.5 50.2 104 49.9V49.9ZM151.5 36.1C151.7 40.5 153.1 45.4 157.1 47.8C159.2 49 161.8 49.4 164.2 49.2C167.1 48.9 169.5 47.5 172 46.2C172 46.6 172.1 47.3 172 47.7C171.8 48.1 171.3 48.6 171 48.9C170.6 49.3 170.1 49.8 169.6 50.2C167.9 51.6 166 52.6 164 53.3C160.2 54.6 155.8 54.5 151.9 53.5C148.8 52.7 146 51.2 143.9 48.8C141.8 46.4 140.6 43.3 140.1 40.1C139 33.2 140.3 25.3 146 20.7C151 16.7 159 15.9 164.9 18.3C172.1 21.2 173.3 29.4 173.3 36.2H154.2C153.3 36.1 152.4 36.1 151.5 36.1V36.1ZM151.3 34.4C153.3 34.3 155.3 34.2 157.4 34C158.6 33.9 159.9 33.9 161.1 33.8C161.3 33.8 161.8 33.8 162 33.7C162.3 33.5 162.1 31.5 162.1 31.1C162 27.5 161.9 23.1 159.8 20C158.3 17.8 156 18.2 154.6 20.2C151.7 24.1 151.3 29.9 151.3 34.4V34.4ZM-0.100098 70.9C-0.100098 65.3 0.999902 59.5 4.0999 54.8C7.0999 50.2 11.8999 47.2 17.0999 45.7C23.3999 43.9 30.3999 44.1 36.8999 45.3C38.2999 45.6 39.6999 45.9 40.9999 46.3C41.1999 46.4 42.0999 46.6 42.1999 46.8V47.1C42.4999 48.3 42.2999 49.8 42.2999 51C42.3999 54.1 42.3999 57.3 42.4999 60.4C42.0999 60.4 41.3999 60.5 41.0999 60.4C40.8999 60.3 40.6999 59.8 40.5999 59.6C39.7999 58.4 38.9999 57.2 38.2999 55.9C36.5999 53.2 34.7999 50.5 33.0999 47.8C32.1999 46.3 29.6999 46.3 28.0999 46.3C26.2999 46.3 24.4999 46.6 22.9999 47.5C19.5999 49.6 17.9999 53.7 17.0999 57.4C15.6999 63.3 15.7999 69.5 16.0999 75.5C16.3999 80.1 16.7999 85 18.5999 89.2C19.6999 91.8 21.5999 94.1 24.4999 94.7C25.3999 94.9 26.2999 94.9 27.2999 94.8C27.8999 94.7 29.9999 94.6 30.2999 94C30.3999 93.8 30.2999 93.3 30.2999 93.1V91.4V80.8V76.7C30.2999 76 30.4999 75.7 29.8999 75.3C29.1999 74.9 28.3999 74.5 27.6999 74C27.1999 73.7 26.1999 73.4 25.8999 73C25.6999 72.8 25.5999 71.7 25.7999 71.5C25.8999 71.3 25.8999 71.4 26.1999 71.4C27.0999 71.2 28.2999 71.4 29.1999 71.4H44.6999C45.6999 71.4 46.7999 71.3 47.7999 71.4H48.1999C48.2999 71.5 48.2999 72.9 48.1999 73.1C47.9999 73.4 46.9999 73.8 46.5999 74C45.8999 74.4 45.0999 74.8 44.3999 75.3C43.5999 75.7 43.6999 75.7 43.6999 76.6V92.9C43.6999 93.1 43.7999 93.6 43.6999 93.8C43.4999 94.3 41.3999 94.6 40.7999 94.8C39.0999 95.3 37.2999 95.7 35.4999 96C31.9999 96.6 28.4999 96.8 24.9999 96.7C19.3999 96.5 13.4999 95.3 8.8999 91.9C4.8999 89 2.2999 84.6 1.0999 79.8C0.199902 77 -0.100098 73.9 -0.100098 70.9ZM45.9999 61.8C45.9999 61.6 45.8999 60.8 45.9999 60.7C46.0999 60.6 46.1999 60.7 46.2999 60.6C46.8999 60.3 47.6999 60.3 48.3999 60.2C50.6999 59.8 52.9999 59.4 55.3999 59C57.1999 58.7 58.9999 58.3 60.6999 58.1C61.1999 58 61.7999 58 62.2999 58.2C62.7999 58.3 62.5999 58.2 62.6999 58.6C62.8999 59.8 62.6999 61.2 62.6999 62.4V83.3C62.6999 85.8 61.9999 90.4 64.3999 91.9C65.5999 92.7 67.2999 92.7 68.6999 92.4C69.7999 92.2 71.8999 91.4 72.2999 90.2C72.3999 89.9 72.2999 89.5 72.2999 89.2V87.1V73.2V66.8V64.7C72.2999 64.5 72.3999 63.9 72.2999 63.7C71.9999 63.4 70.9999 63.1 70.6999 63C70.0999 62.8 69.5999 62.5 68.9999 62.3C68.7999 62.2 68.0999 62.1 67.9999 61.9C67.8999 61.8 67.8999 60.9 67.9999 60.8C68.0999 60.7 68.0999 60.8 68.1999 60.7C68.6999 60.4 69.5999 60.5 70.0999 60.4C74.1999 59.7 78.3999 58.8 82.5999 58.2C83.0999 58.1 83.5999 58.1 84.0999 58.2C84.5999 58.3 84.3999 58.1 84.4999 58.6C84.6999 59.6 84.4999 61 84.4999 62.1V90.9C84.4999 91.2 84.3999 91.7 84.4999 92.1C84.5999 92.4 84.4999 92.3 84.9999 92.5C85.9999 92.9 87.0999 93.4 88.0999 93.8C88.3999 93.9 88.4999 93.9 88.5999 94.1C88.6999 94.3 88.6999 95 88.5999 95C88.3999 95.2 87.3999 95.1 87.1999 95.2C84.9999 95.5 82.7999 95.7 80.4999 96C78.4999 96.2 76.4999 96.5 74.5999 96.7C74.1999 96.8 73.7999 96.8 73.3999 96.7C73.1999 96.7 72.5999 96.7 72.4999 96.6C72.3999 96.4 72.4999 95.6 72.4999 95.4V93.7C72.4999 93.4 72.6999 92.6 72.4999 92.3C72.2999 92 71.8999 92.4 71.5999 92.6C70.7999 93.3 69.8999 94 68.9999 94.5C65.6999 96.5 61.5999 97.4 57.7999 96.6C54.9999 96 52.5999 94.4 51.3999 91.7C50.4999 89.8 50.2999 87.7 50.2999 85.7V73.8V67V64.7C50.2999 64.5 50.3999 63.9 50.2999 63.7C50.0999 63.4 48.8999 63.1 48.5999 62.9C47.5999 62.5 46.7999 62.2 45.9999 61.8V61.8ZM140.3 58C140.5 58 141.4 58 141.5 58.2C141.6 58.3 141.5 59 141.5 59.1V67.9C141.5 68.2 141.4 68.7 141.5 69V69.2C141.9 69.6 142 68.3 142.1 68.2C143 64.5 144.7 60.2 148.5 58.7C149.2 58.4 149.9 58.3 150.6 58.2C151.2 58.2 152.9 58 153.2 58.5C153.3 58.7 153.2 59.2 153.2 59.4V69.6C150.8 69.1 148.1 69.2 145.8 69.7C144.7 69.9 143.7 70.2 142.7 70.7C142.2 70.9 142.1 70.8 142 71.2C141.9 71.6 142 72.3 142 72.7V92C142 92.2 141.9 92.5 142 92.7C142.2 93 142.9 93.2 143.2 93.3C143.7 93.6 144.3 93.9 144.8 94.2C145 94.3 145.3 94.4 145.4 94.6C145.5 94.7 145.5 95.9 145.4 96C145.3 96.1 144.7 96 144.5 96H127.9C127.4 96 126.5 96.2 126.1 96H125.8C125.7 95.9 125.8 94.8 125.8 94.7C126 94.1 127.3 93.7 127.9 93.4C128.3 93.2 129.1 92.9 129.3 92.5C129.4 92.3 129.3 91.7 129.3 91.5V89.4V63.7C129.3 63.6 129.4 63.1 129.3 63C129.2 62.9 128.7 62.8 128.5 62.8C127.9 62.6 127.3 62.4 126.7 62.3C126.1 62.1 124.6 62 125.1 61C125.2 60.7 125.6 60.8 126 60.7C130.4 59.9 134.7 59.1 139.1 58.3C139.5 58.1 139.9 58.1 140.3 58V58ZM178 58.9V50.9V48.6C178 48.3 178.1 47.7 178 47.4C177.9 47.2 177.5 47.1 177.2 47C176.4 46.7 175.6 46.4 174.7 46.1C174.1 45.9 173.8 46 173.8 45.3C173.8 44.7 173.7 44.9 174.2 44.8C175.3 44.4 176.6 44.4 177.7 44.2C181 43.6 184.2 43 187.5 42.4C188.2 42.3 188.9 42.1 189.6 42.2C190.4 42.3 190.5 42.1 190.5 42.8C190.6 44.4 190.5 46.1 190.5 47.7V91.5C190.5 91.9 190.4 91.9 190.7 92.1C191.3 92.5 192.3 92.7 192.9 92.9C193.3 93 194.4 93.2 194.6 93.5C194.7 93.6 194.7 94.7 194.6 94.8C194.5 94.9 193.9 94.9 193.8 94.9C192.4 95.1 191.1 95.3 189.7 95.4C186.6 95.8 183.5 96.2 180.3 96.6C179.8 96.7 178.6 96.9 178.4 96.5C178.2 96.1 178.4 94.8 178.4 94.4C178.4 94.1 178.6 92.8 178.4 92.6C178.2 92.4 176 94.4 175.7 94.6C174.5 95.4 173.2 96 171.8 96.4C169.6 97 167.1 97 164.9 96.5C155.3 94.3 153.3 82.9 154.1 74.6C154.5 70.2 155.9 65.8 158.9 62.6C161.7 59.7 165.5 58.2 169.4 57.9C172.4 57.6 175.3 57.8 178 58.9V58.9ZM178 90.8V66.2V61.6C178 61 177.9 60.9 177.2 60.5C175.8 59.7 174 59.4 172.5 60C170.2 60.9 169.1 63.6 168.5 65.8C167.3 69.8 167.2 74.1 167.3 78.3C167.4 81.9 167.5 86.3 169.5 89.5C171.3 92.3 175.4 93 178 90.8ZM211.1 58C211.6 58.1 212.2 57.9 212.4 58.4C212.5 58.7 212.4 59.4 212.4 59.7V91C212.4 91.4 212.3 92 212.4 92.4C212.5 92.8 212.9 92.9 213.3 93.1C213.9 93.4 214.4 93.7 215 94C215.2 94.1 215.8 94.3 215.9 94.6C215.9 94.7 216 95.9 215.9 96H215.6C215 96.1 214.2 96 213.5 96H198.3C197.9 96 196.8 96.2 196.5 96C196.3 95.9 196.2 94.7 196.4 94.5C196.6 94.2 197.3 94 197.6 93.9C198.2 93.6 198.8 93.2 199.4 92.9C199.9 92.6 199.8 92.7 199.8 92.3C200 90.8 199.8 89.1 199.8 87.6V79.7V65.3C199.8 64.9 199.9 64.2 199.8 63.8C199.7 63.4 199.2 63.4 198.8 63.2C198.1 62.9 197.5 62.7 196.8 62.4C196.6 62.3 195.8 62.2 195.6 61.9C195.5 61.8 195.5 60.8 195.6 60.7C195.7 60.6 195.9 60.7 196 60.6C196.8 60.3 197.7 60.3 198.6 60.1C199.9 59.9 201.1 59.6 202.4 59.4C204.9 59 207.3 58.5 209.8 58.1C210.3 58.2 210.7 58.1 211.1 58V58ZM212.5 48.7C212.3 54.7 204.2 57.3 200.5 52.6C198.8 50.4 198.7 47.4 200.2 45.1C201.7 42.8 204.6 41.8 207.3 42.4C210.3 43 212.5 45.6 212.5 48.7V48.7ZM256.3 92.6V68.5V63.9C256.3 63.8 256.4 63.3 256.3 63.2C256.2 63 255.6 62.9 255.4 62.9L253.6 62.3C253.3 62.2 252.5 62.1 252.3 61.8C252.1 61.6 252.2 61.1 252.2 60.8C252.2 60.2 252.4 60.3 253 60.2L259.6 59L266.2 57.8C266.6 57.7 266.9 57.6 267.3 57.6C267.5 57.6 268.5 57.6 268.7 57.7C268.8 57.8 268.7 58.4 268.7 58.6V60.5C268.7 60.8 268.5 61.7 268.7 62C268.9 62.4 269.3 62 269.6 61.7C270.5 61 271.4 60.4 272.4 59.9C276 57.9 280.3 57 284.4 57.6C287.2 58 289.5 59.5 290.5 62.2C291.2 64.1 291.3 66.1 291.3 68.1V90.9C291.3 91.3 291.2 92 291.3 92.4C291.4 92.8 291.7 92.9 292.2 93.1C292.7 93.4 293.3 93.7 293.8 94C294 94.1 294.7 94.3 294.8 94.6C294.9 94.8 294.9 95.8 294.8 95.9C294.7 96.1 294.9 95.9 294.6 96C294.2 96.2 293.3 96 292.8 96H278.5C277.9 96 275.6 96.3 275.3 95.9C275.2 95.8 275.2 94.7 275.3 94.5C275.4 94.3 276 94.1 276.2 94C276.8 93.7 277.3 93.4 277.9 93.1C278.1 93 278.7 92.8 278.8 92.6C278.9 92.4 278.8 92 278.8 91.8V89.6V82.6V69.1C278.8 67.5 278.9 65.7 277.9 64.3C277.1 63.1 275.7 62.8 274.3 62.7C273.2 62.7 272.2 62.8 271.2 63.1C270.7 63.3 269.2 63.7 268.9 64.3C268.8 64.5 268.9 64.9 268.9 65.1V91C268.9 91.3 268.8 92 268.9 92.3C269 92.7 269.6 92.8 269.9 93C270.4 93.3 271 93.6 271.5 93.9C271.7 94 272.1 94.2 272.2 94.3C272.3 94.4 272.3 95.6 272.2 95.7C272.2 95.8 272.1 95.7 272 95.7C271.6 95.9 270.6 95.7 270.2 95.7H253.4C252.9 95.7 252.8 95.8 252.7 95.5C252.6 95.3 252.6 94.4 252.7 94.2C252.8 94 253.4 93.8 253.6 93.7C254.6 93.6 255.4 93.1 256.3 92.6V92.6ZM235.1 74.2C235.1 71.6 235.2 68.9 235 66.2C234.7 63.3 233.9 60.1 230.6 59.5C229.6 59.3 227.8 59 227.1 59.8C226.4 60.5 225.9 61.5 225.3 62.3L220.2 69.2C219.9 69.6 219.6 70.4 219.2 70.6C219.1 70.7 218.1 70.7 218.1 70.6C218 70.5 218.1 69.8 218.1 69.6V61.5C218.1 61.2 218 60.7 218.1 60.4C218.3 59.9 220.5 59.6 221 59.4C223.8 58.7 226.7 58.2 229.6 58C233.7 57.7 238.3 57.8 242.1 59.6C245.1 61 247 63.5 247.5 66.7C247.8 68.3 247.7 70.1 247.7 71.7V91.7C247.7 92 247.5 92.8 247.7 93C247.8 93.1 248.3 93.2 248.4 93.2C249.2 93.4 249.9 93.6 250.7 93.8C251.2 93.9 251.3 93.9 251.3 94.4C251.3 94.9 251.4 94.9 250.8 95.1C250.1 95.4 249.4 95.7 248.7 95.9C245 97 239.2 97.3 236.5 93.9C236.3 93.6 235.7 92.3 235.4 92.2C235 92.1 233.8 93.7 233.4 94C231.8 95.4 229.7 96.2 227.6 96.5C223.7 97 219.5 96.2 217.1 92.8C215.1 89.9 214.7 85.4 216.2 82.2C218.9 76.1 226.9 75.5 232.7 74.5C233.4 74.5 234.2 74.3 235.1 74.2V74.2ZM235.1 90.8V76C232.1 76.2 229 76.4 227.9 79.7C227.1 81.9 227.1 84.5 227.4 86.8C227.6 88.4 228 90.4 229.5 91.4C231.1 92.5 233.8 92.3 235.1 90.8V90.8ZM108.5 74.2C108.5 71.6 108.6 68.9 108.4 66.2C108.1 63.3 107.3 60.1 104 59.5C103 59.3 101.2 59 100.5 59.8C99.7999 60.5 99.2999 61.5 98.6999 62.3L93.5999 69.2C93.2999 69.6 92.9999 70.4 92.5999 70.6C92.4999 70.7 91.4999 70.7 91.4999 70.6C91.3999 70.5 91.4999 69.8 91.4999 69.6V61.6C91.4999 61.3 91.3999 60.8 91.4999 60.5C91.6999 60 93.7999 59.7 94.3999 59.5C97.1999 58.8 100.1 58.3 102.9 58.1C107 57.8 111.6 57.9 115.4 59.7C118.4 61.1 120.3 63.6 120.8 66.8C121.1 68.4 121 70.2 121 71.8V91.8C121 92.1 120.8 92.9 121 93.1C121.1 93.2 121.6 93.3 121.7 93.3C122.5 93.5 123.2 93.7 124 93.9C124.5 94 124.6 94 124.6 94.5C124.6 95 124.7 95 124.1 95.2C123.4 95.5 122.7 95.8 122 96C118.3 97.1 112.5 97.4 109.8 94C109.6 93.7 109 92.4 108.7 92.3C108.3 92.2 107.1 93.8 106.8 94.1C105.2 95.5 103.1 96.3 101 96.6C97.0999 97.1 92.8999 96.3 90.4999 92.9C88.4999 90 88.0999 85.5 89.5999 82.3C92.2999 76.2 100.3 75.6 106 74.6C106.8 74.5 107.6 74.3 108.5 74.2V74.2ZM108.5 90.8V76C105.5 76.2 102.4 76.4 101.3 79.7C100.5 81.9 100.5 84.5 100.8 86.8C101 88.4 101.4 90.4 102.9 91.4C104.5 92.5 107.2 92.3 108.5 90.8V90.8Z" fill="#74B0B8"/>
</svg>
