<svg width="1097" height="1097" viewBox="0 0 1097 1097" fill="none" xmlns="http://www.w3.org/2000/svg">
<path fill-rule="evenodd" clip-rule="evenodd" d="M742.26 252.197C776.697 234.975 794.368 237.622 794.812 254.843C795.245 277.363 791.711 307.389 789.497 329.027C776.259 446.492 755.06 542.314 753.295 663.307C810.264 515.816 857.511 414.252 918.896 288.404C938.326 248.219 951.131 255.725 967.026 248.219C1029.29 220.395 1031.5 237.616 1023.11 272.059C993.086 397.03 916.244 792.246 904.327 852.754C900.793 870.419 881.363 863.351 876.947 856.288C853.983 825.818 829.249 825.368 831.896 804.618C846.032 703.942 896.376 449.144 909.181 389.086C842.498 525.087 773.607 695.986 738.294 792.246C730.781 812.563 717.094 811.243 708.705 796.224C696.333 774.58 673.369 763.989 669.846 739.261C657.474 660.211 683.528 509.191 687.062 413.37C651.293 517.58 590.358 720.714 563.86 812.113C552.825 850.096 516.174 843.471 525.889 807.259C566.507 653.143 653.507 381.568 691.034 283.976C699.867 260.586 723.263 261.912 742.26 252.197V252.197ZM522.349 233.211C510.421 230.565 475.978 249.107 454.784 252.203C448.165 253.972 441.979 260.591 439.777 265.884C406.205 343.158 376.184 416.471 350.574 482.699C311.897 489.792 273.327 497.447 234.873 505.663C266.226 426.18 297.584 347.142 328.048 271.621C343.061 233.649 303.326 230.115 287.858 268.092C267.99 317.11 230.451 409.392 188.946 516.709C158.475 524.216 125.353 532.605 91.798 542.763C67.07 549.382 66.1822 556.001 76.7791 571.025C82.9597 578.97 94.4444 578.088 100.187 584.274C114.762 599.282 123.594 617.391 149.637 620.038C125.797 681.86 102.827 745.009 82.5214 805.506C69.2725 843.921 106.806 851.872 120.937 811.248C143.9 746.335 168.184 680.54 193.362 613.851C214.118 609.441 264.017 598.844 310.383 588.241C273.732 689.805 249.886 766.203 240.166 803.736C238.407 810.799 241.936 814.333 243.256 817.861C255.185 835.527 267.546 836.409 283.441 858.934C287.419 865.12 301.989 868.205 307.293 853.192C338.946 757.097 372.661 661.694 408.413 567.047C422.106 563.513 446.839 557.771 461.847 535.695C488.345 495.948 495.857 503.904 502.92 491.976C510.865 476.524 505.122 462.831 476.866 465.922C476.866 465.922 466.263 466.809 445.952 469.018C477.742 388.204 506.016 319.762 525.44 267.21C532.058 249.107 532.952 235.858 522.349 233.211V233.211Z" fill="#492424"/>
<path fill-rule="evenodd" clip-rule="evenodd" d="M491.287 735.027C495.88 729.199 500.046 723.184 503.802 717.629C520.534 692.873 504.246 678.32 487.024 692.895C484.566 695.155 482.01 697.619 479.472 700.18C476.648 691.347 473.846 682.507 471.066 673.659C478.96 663.984 486.643 654.053 493.199 643.878C520.875 600.955 466.713 576.318 443.299 604.142C430.944 618.717 434.034 633.286 437.563 646.092C438.587 649.939 440.181 655.436 442.155 662.106C433.568 671.076 425.263 680.312 417.251 689.799C390.315 720.719 397.804 760.529 426.084 769.287C443.134 774.574 459.223 766.869 473.161 754.576C473.832 756.329 474.475 757.996 475.101 759.578C482.608 778.126 506.016 772.383 496.739 749.864C495.248 746.079 493.381 740.985 491.287 735.027V735.027ZM452.952 696.117C455.239 703.327 457.704 710.902 460.162 718.153C457.083 720.719 453.959 723.314 450.812 725.136C439.862 731.47 431.82 724.692 445.951 705.706C448.262 702.428 450.63 699.252 452.952 696.117ZM461.79 642.045C460.976 639.991 460.509 637.976 460.083 636.377C452.161 606.783 486.08 614.688 468.921 634.169C466.485 636.929 464.271 639.661 461.79 642.045Z" fill="#492424"/>
</svg>
