<svg width="59" height="59" viewBox="0 0 59 59" fill="none" xmlns="http://www.w3.org/2000/svg">
<path fill-rule="evenodd" clip-rule="evenodd" d="M58.6762 29.6619C58.6762 45.8649 45.5411 59 29.3381 59C13.1351 59 0 45.8649 0 29.6619C0 13.4589 13.1351 0.323807 29.3381 0.323807C45.5411 0.323807 58.6762 13.4589 58.6762 29.6619ZM25.5963 21.6837C25.5963 24.1142 23.626 26.0844 21.1956 26.0844C18.7651 26.0844 16.7948 24.1142 16.7948 21.6837C16.7948 19.2532 18.7651 17.2829 21.1956 17.2829C23.626 17.2829 25.5963 19.2532 25.5963 21.6837ZM36.7983 26.0844C39.2288 26.0844 41.1991 24.1142 41.1991 21.6837C41.1991 19.2532 39.2288 17.2829 36.7983 17.2829C34.3678 17.2829 32.3975 19.2532 32.3975 21.6837C32.3975 24.1142 34.3678 26.0844 36.7983 26.0844ZM41.1991 36.8863C41.1991 39.3168 39.2288 41.2871 36.7983 41.2871C34.3678 41.2871 32.3975 39.3168 32.3975 36.8863C32.3975 34.4559 34.3678 32.4856 36.7983 32.4856C39.2288 32.4856 41.1991 34.4559 41.1991 36.8863ZM21.1955 41.2871C23.626 41.2871 25.5963 39.3168 25.5963 36.8863C25.5963 34.4559 23.626 32.4856 21.1955 32.4856C18.7651 32.4856 16.7948 34.4559 16.7948 36.8863C16.7948 39.3168 18.7651 41.2871 21.1955 41.2871Z" fill="#A74F36"/>
</svg>
