<svg width="159" height="455" viewBox="0 0 159 455" fill="none" xmlns="http://www.w3.org/2000/svg">
<path d="M16 -4C33.5 156 14.0002 343 33.5 369C51.9664 393.622 69.0002 377 118 412.5C157.2 440.9 206.334 451.333 226 453" stroke="#727272" stroke-width="3"/>
<path fill-rule="evenodd" clip-rule="evenodd" d="M44.678 125.178C44.678 137.427 34.7486 147.356 22.5 147.356C10.2514 147.356 0.321899 137.427 0.321899 125.178C0.321899 112.929 10.2514 103 22.5 103C34.7486 103 44.678 112.929 44.678 125.178ZM19.6776 119.029C19.6776 120.866 18.1881 122.356 16.3508 122.356C14.5135 122.356 13.024 120.866 13.024 119.029C13.024 117.192 14.5135 115.702 16.3508 115.702C18.1881 115.702 19.6776 117.192 19.6776 119.029ZM28.1456 122.356C29.983 122.356 31.4724 120.866 31.4724 119.029C31.4724 117.192 29.983 115.702 28.1456 115.702C26.3083 115.702 24.8189 117.192 24.8189 119.029C24.8189 120.866 26.3083 122.356 28.1456 122.356ZM31.4724 130.521C31.4724 132.359 29.983 133.848 28.1456 133.848C26.3083 133.848 24.8189 132.359 24.8189 130.521C24.8189 128.684 26.3083 127.195 28.1456 127.195C29.983 127.195 31.4724 128.684 31.4724 130.521ZM16.3508 133.848C18.1881 133.848 19.6776 132.359 19.6776 130.521C19.6776 128.684 18.1881 127.195 16.3508 127.195C14.5135 127.195 13.024 128.684 13.024 130.521C13.024 132.359 14.5135 133.848 16.3508 133.848Z" fill="#C8C6C6"/>
<path fill-rule="evenodd" clip-rule="evenodd" d="M44.678 180.178C44.678 192.427 34.7486 202.356 22.5 202.356C10.2514 202.356 0.321899 192.427 0.321899 180.178C0.321899 167.929 10.2514 158 22.5 158C34.7486 158 44.678 167.929 44.678 180.178ZM19.6776 174.029C19.6776 175.866 18.1881 177.356 16.3508 177.356C14.5135 177.356 13.024 175.866 13.024 174.029C13.024 172.192 14.5135 170.702 16.3508 170.702C18.1881 170.702 19.6776 172.192 19.6776 174.029ZM28.1456 177.356C29.983 177.356 31.4724 175.866 31.4724 174.029C31.4724 172.192 29.983 170.702 28.1456 170.702C26.3083 170.702 24.8189 172.192 24.8189 174.029C24.8189 175.866 26.3083 177.356 28.1456 177.356ZM31.4724 185.521C31.4724 187.359 29.983 188.848 28.1456 188.848C26.3083 188.848 24.8189 187.359 24.8189 185.521C24.8189 183.684 26.3083 182.195 28.1456 182.195C29.983 182.195 31.4724 183.684 31.4724 185.521ZM16.3508 188.848C18.1881 188.848 19.6776 187.359 19.6776 185.521C19.6776 183.684 18.1881 182.195 16.3508 182.195C14.5135 182.195 13.024 183.684 13.024 185.521C13.024 187.359 14.5135 188.848 16.3508 188.848Z" fill="#738351"/>
<path fill-rule="evenodd" clip-rule="evenodd" d="M44.678 235.178C44.678 247.427 34.7486 257.356 22.5 257.356C10.2514 257.356 0.321899 247.427 0.321899 235.178C0.321899 222.929 10.2514 213 22.5 213C34.7486 213 44.678 222.929 44.678 235.178ZM19.6776 229.029C19.6776 230.866 18.1881 232.356 16.3508 232.356C14.5135 232.356 13.024 230.866 13.024 229.029C13.024 227.192 14.5135 225.702 16.3508 225.702C18.1881 225.702 19.6776 227.192 19.6776 229.029ZM28.1456 232.356C29.983 232.356 31.4724 230.866 31.4724 229.029C31.4724 227.192 29.983 225.702 28.1456 225.702C26.3083 225.702 24.8189 227.192 24.8189 229.029C24.8189 230.866 26.3083 232.356 28.1456 232.356ZM31.4724 240.521C31.4724 242.359 29.983 243.848 28.1456 243.848C26.3083 243.848 24.8189 242.359 24.8189 240.521C24.8189 238.684 26.3083 237.195 28.1456 237.195C29.983 237.195 31.4724 238.684 31.4724 240.521ZM16.3508 243.848C18.1881 243.848 19.6776 242.359 19.6776 240.521C19.6776 238.684 18.1881 237.195 16.3508 237.195C14.5135 237.195 13.024 238.684 13.024 240.521C13.024 242.359 14.5135 243.848 16.3508 243.848Z" fill="#A74F36"/>
<path fill-rule="evenodd" clip-rule="evenodd" d="M44.678 290.178C44.678 302.427 34.7486 312.356 22.5 312.356C10.2514 312.356 0.321899 302.427 0.321899 290.178C0.321899 277.929 10.2514 268 22.5 268C34.7486 268 44.678 277.929 44.678 290.178ZM19.6776 284.029C19.6776 285.866 18.1881 287.356 16.3508 287.356C14.5135 287.356 13.024 285.866 13.024 284.029C13.024 282.192 14.5135 280.702 16.3508 280.702C18.1881 280.702 19.6776 282.192 19.6776 284.029ZM28.1456 287.356C29.983 287.356 31.4724 285.866 31.4724 284.029C31.4724 282.192 29.983 280.702 28.1456 280.702C26.3083 280.702 24.8189 282.192 24.8189 284.029C24.8189 285.866 26.3083 287.356 28.1456 287.356ZM31.4724 295.521C31.4724 297.359 29.983 298.848 28.1456 298.848C26.3083 298.848 24.8189 297.359 24.8189 295.521C24.8189 293.684 26.3083 292.195 28.1456 292.195C29.983 292.195 31.4724 293.684 31.4724 295.521ZM16.3508 298.848C18.1881 298.848 19.6776 297.359 19.6776 295.521C19.6776 293.684 18.1881 292.195 16.3508 292.195C14.5135 292.195 13.024 293.684 13.024 295.521C13.024 297.359 14.5135 298.848 16.3508 298.848Z" fill="#1B7580"/>
<path fill-rule="evenodd" clip-rule="evenodd" d="M44.678 345.178C44.678 357.427 34.7486 367.356 22.5 367.356C10.2514 367.356 0.321899 357.427 0.321899 345.178C0.321899 332.929 10.2514 323 22.5 323C34.7486 323 44.678 332.929 44.678 345.178ZM19.6776 339.029C19.6776 340.866 18.1881 342.356 16.3508 342.356C14.5135 342.356 13.024 340.866 13.024 339.029C13.024 337.192 14.5135 335.702 16.3508 335.702C18.1881 335.702 19.6776 337.192 19.6776 339.029ZM28.1456 342.356C29.983 342.356 31.4724 340.866 31.4724 339.029C31.4724 337.192 29.983 335.702 28.1456 335.702C26.3083 335.702 24.8189 337.192 24.8189 339.029C24.8189 340.866 26.3083 342.356 28.1456 342.356ZM31.4724 350.521C31.4724 352.359 29.983 353.848 28.1456 353.848C26.3083 353.848 24.8189 352.359 24.8189 350.521C24.8189 348.684 26.3083 347.195 28.1456 347.195C29.983 347.195 31.4724 348.684 31.4724 350.521ZM16.3508 353.848C18.1881 353.848 19.6776 352.359 19.6776 350.521C19.6776 348.684 18.1881 347.195 16.3508 347.195C14.5135 347.195 13.024 348.684 13.024 350.521C13.024 352.359 14.5135 353.848 16.3508 353.848Z" fill="#BE9428"/>
</svg>
