<svg width="429" height="58" viewBox="0 0 429 58" fill="none" xmlns="http://www.w3.org/2000/svg">
<path d="M32.0011 6.72799C32.0011 2.08799 27.5951 0.927994 24.1168 0.927994V1.62399C26.2038 1.62399 27.827 2.31999 27.827 3.94399C27.827 4.87199 27.1314 6.26399 25.0443 6.26399C23.4211 6.26399 19.9427 5.33599 17.3919 4.40799C14.3773 3.24799 11.5946 2.31999 9.27568 2.31999C4.63784 2.31999 1.39135 5.79999 1.39135 9.74399C1.39135 13.224 3.94216 14.384 4.86973 14.848L5.10162 14.384C4.63784 13.92 3.94216 13.456 3.94216 12.064C3.94216 11.136 4.86973 9.51199 7.18865 9.51199C9.27568 9.51199 12.0584 10.44 15.7686 11.6C19.0151 12.528 22.4935 13.224 24.3486 13.456V20.648L20.8703 23.664V23.896L24.3486 26.912V36.888C22.4935 38.048 20.4065 38.28 18.5514 38.28C15.073 38.28 12.0584 37.352 9.50757 34.568L19.0151 29.928V13.92L7.42054 19.024C8.34811 16.008 10.8989 13.92 13.4497 12.528L13.2178 11.832C6.26108 13.688 0 20.184 0 28.072C0 37.352 7.65243 44.312 16.2324 44.312C25.5081 44.312 31.5373 36.888 31.5373 29.232H31.0735C29.6822 32.248 27.5951 35.032 25.0443 36.424V26.912L28.7546 23.896V23.664L25.0443 20.648V13.456C28.5227 13.456 32.0011 11.136 32.0011 6.72799ZM11.8265 32.248L9.04378 33.64C7.42054 31.552 6.49297 28.768 6.49297 24.824C6.49297 23.2 6.49297 21.344 6.95676 19.952L11.8265 17.864V32.248V32.248ZM36.407 37.584L33.3924 39.904L33.8562 40.368L35.2476 39.208L40.3492 43.848L47.3059 39.208L47.0741 38.744L45.2189 39.904L42.9 37.584V21.808L44.7551 20.416L48.6973 23.664V37.816C48.6973 46.632 46.8422 48.024 42.9 49.416V50.112C49.393 50.344 55.4222 48.256 55.4222 36.888V21.576L57.5092 19.952L57.0454 19.488L55.1903 20.88L49.393 16.008L42.9 20.88V1.85599H42.4362L34.32 7.42399V7.88799C35.2476 8.35199 36.6389 8.81599 36.6389 11.368L36.407 37.584V37.584ZM78.8432 35.032L73.0459 39.44L67.2486 34.8V32.016L78.1476 24.592V24.36L72.5822 16.008L60.5238 22.504V37.816L58.2049 39.672L58.6686 40.136L60.7557 38.512L68.64 44.312L79.0751 35.96L78.8432 35.032V35.032ZM67.2486 31.088V19.72L67.7124 19.488L72.8141 27.608L67.2486 31.088ZM123.135 4.63999C123.135 3.94399 122.903 3.24799 122.671 2.55199H122.207C121.511 4.40799 120.584 5.33599 118.265 5.33599C116.178 5.33599 114.786 4.17599 113.859 3.24799L107.134 10.904L107.598 11.368L109.917 9.27999C111.308 10.44 112.468 11.368 115.714 11.6V30.856L102.032 7.42399C100.873 5.56799 99.2497 3.01599 96.0032 3.01599C92.293 3.01599 89.0465 6.26399 89.5103 11.368H90.206C90.4378 9.97599 91.1335 8.35199 92.7568 8.35199C93.9162 8.35199 95.0757 9.51199 95.7714 10.672V18.328C91.5973 18.328 88.8146 20.184 88.8146 23.664C88.8146 25.52 89.7422 28.304 92.5249 29V28.536C92.0611 28.072 91.8292 27.608 91.8292 26.912C91.8292 25.752 92.7568 24.824 94.38 24.824H95.5395V34.568C90.6697 34.568 86.7276 37.352 86.7276 41.992C86.7276 46.4 90.4378 48.488 94.6119 48.256V47.792C92.0611 47.56 90.9016 46.4 90.9016 44.776C90.9016 42.688 92.293 41.76 94.1481 41.76C96.0032 41.76 97.6265 42.92 98.7859 44.312L105.511 36.888L105.047 36.424L103.424 38.28C100.873 35.96 99.4816 35.264 96.467 34.8V11.6L115.018 44.08H116.41V11.6C119.888 11.368 123.135 8.58399 123.135 4.63999V4.63999ZM140.063 35.032L134.265 39.44L128.468 34.8V32.016L139.367 24.592V24.36L133.802 16.008L121.743 22.504V37.816L119.424 39.672L119.888 40.136L121.975 38.512L129.859 44.312L140.295 35.96L140.063 35.032V35.032ZM128.468 31.088V19.72L128.932 19.488L134.034 27.608L128.468 31.088V31.088ZM177.861 18.56L176.238 19.72L171.832 16.008L166.73 20.648L168.817 22.736V40.136L163.252 36.656V22.272L165.107 21.112L159.774 16.008L154.672 20.648L156.759 22.736V39.44L156.063 39.904L151.194 36.424V22.504C151.194 19.256 149.57 18.328 147.715 17.168C146.092 16.008 145.164 15.312 145.164 13.688C145.164 12.296 146.556 11.6 147.251 11.136V10.672C145.396 10.672 140.526 12.528 140.526 16.936C140.526 19.256 141.686 20.184 142.845 21.344C144.005 22.504 145.164 23.432 145.164 25.52V38.976L142.614 40.832L143.077 41.296L145.396 39.44L150.73 44.08L156.527 40.136L163.02 44.08L175.31 36.888V21.344L178.325 19.024L177.861 18.56V18.56ZM220.993 5.79999L218.674 7.88799L213.572 3.24799L205.92 8.81599V3.71199H205.224L205.456 41.296C204.761 41.296 202.674 40.832 201.05 40.368L200.586 9.04799C200.586 6.72799 198.963 3.47999 194.789 3.47999C190.615 3.47999 187.832 6.72799 187.832 9.97599H188.528C188.76 8.58399 189.456 7.42399 190.847 7.42399C192.238 7.42399 193.398 8.35199 193.398 11.368V20.416C189.224 20.648 186.673 22.968 186.673 25.984C186.673 27.84 187.601 30.624 190.383 30.624V30.16C189.456 29.696 189.224 29 189.224 28.536C189.224 27.144 190.383 26.68 192.238 26.68H193.166V41.064C189.688 42.224 188.296 44.776 188.296 47.56C188.296 51.504 191.311 54.288 195.949 54.288C199.195 54.288 201.978 53.824 204.761 53.128C207.079 52.664 210.094 51.968 211.485 51.968C213.341 51.968 214.036 52.896 214.036 54.056C214.036 55.68 213.341 56.376 212.413 56.608V57.072C216.123 56.376 218.442 54.056 218.442 50.576C218.442 47.096 214.964 45.008 211.254 45.008C209.398 45.008 205.456 45.704 202.674 46.168C199.427 46.864 196.181 47.328 195.253 47.328C193.63 47.328 191.775 46.632 191.775 44.312C191.775 42.456 193.398 40.832 197.34 40.832C199.427 40.832 201.978 41.064 204.529 41.76C207.311 42.456 209.862 43.152 212.181 43.152C215.659 43.152 218.674 41.992 218.674 37.12V8.58399L221.457 6.26399L220.993 5.79999V5.79999ZM211.485 19.952C210.79 20.648 209.862 21.344 208.703 21.344C207.543 21.344 206.384 20.648 205.92 19.952V9.74399L208.239 8.11999L211.485 11.136V19.952ZM211.485 26.912C211.022 26.448 209.862 25.752 208.703 25.752C207.543 25.752 206.384 26.448 205.92 26.912V20.88C206.384 21.344 207.543 22.04 208.703 22.04C209.862 22.04 211.022 21.344 211.485 20.88V26.912ZM211.485 37.816C211.485 39.672 210.326 41.528 207.775 41.528H205.92V27.84C206.384 27.376 207.543 26.68 208.703 26.68C209.862 26.68 210.79 27.376 211.485 27.84V37.816V37.816ZM243.255 21.344L235.834 16.008L224.471 22.504V37.584L222.152 39.44L222.384 39.904L224.239 38.512L231.66 44.08L243.255 37.12V21.344V21.344ZM230.732 35.96V19.256L236.53 23.432V39.904L230.732 35.96V35.96ZM265.284 16.472H264.821C264.125 16.936 263.429 17.4 262.734 17.4C261.806 17.4 260.646 16.936 260.183 16.24H259.719L255.777 20.648L251.835 16.24L244.878 20.88L245.11 21.344L246.965 20.184L249.284 22.736V37.352L246.269 39.672L246.733 40.136L248.124 38.976L253.69 43.616L260.878 38.744L260.646 38.28L258.559 39.44L255.777 37.12V20.88C256.936 22.04 258.328 23.2 259.951 23.2C263.197 23.432 265.052 20.184 265.284 16.472V16.472ZM293.111 38.744L285.227 44.08L274.56 27.84L282.212 16.008H282.676C283.604 16.936 284.995 17.864 286.618 17.864C288.242 17.864 289.401 16.936 290.097 16.008H290.561C290.329 20.648 287.082 23.432 284.763 23.432C282.444 23.432 281.285 22.272 279.894 21.576L279.198 22.736L290.792 39.904L293.111 38.512V38.744V38.744ZM267.603 37.584L264.589 39.904L265.052 40.368L266.444 39.208L271.545 43.848L278.502 39.208L278.038 38.744L276.183 39.904L273.864 37.584V1.85599H273.632L265.284 7.42399V7.88799C266.212 8.35199 267.603 8.58399 267.603 11.368V37.584V37.584ZM331.605 6.72799C331.605 2.08799 327.199 0.927994 323.721 0.927994V1.62399C325.808 1.62399 327.431 2.31999 327.431 3.94399C327.431 4.87199 326.736 6.26399 324.649 6.26399C323.025 6.26399 319.547 5.33599 316.996 4.40799C313.982 3.47999 311.199 2.55199 308.88 2.55199C304.242 2.55199 300.996 6.03199 300.996 9.97599C300.996 13.456 303.546 14.616 304.474 15.08L304.706 14.616C304.01 14.152 303.315 13.688 303.315 12.296C303.315 11.368 304.242 9.74399 306.561 9.74399C308.648 9.74399 311.431 10.672 315.141 11.832C318.388 12.76 321.866 13.456 323.721 13.688V20.88L320.243 23.896V24.128L323.721 27.144V37.12C321.866 38.28 319.779 38.512 317.924 38.512C314.445 38.512 311.431 37.584 308.88 34.8L318.388 30.16V13.92L306.793 19.024C307.952 16.008 310.503 13.92 312.822 12.296L312.59 11.832C305.634 13.688 299.372 19.952 299.372 27.84C299.372 37.12 307.025 44.08 315.605 44.08C324.881 44.08 330.91 36.656 330.91 29H330.446C329.055 32.016 326.968 34.8 324.417 36.192V26.68L328.127 23.664V23.432L324.649 20.416V13.456C328.127 13.456 331.605 11.136 331.605 6.72799V6.72799ZM311.431 32.248L308.648 33.64C307.025 31.552 306.097 28.768 306.097 24.824C306.097 23.2 306.329 21.344 306.793 19.952L311.663 17.864L311.431 32.248V32.248ZM339.722 4.40799H339.49L334.852 8.35199V8.58399L338.794 12.992H339.258L343.896 9.04799V8.81599L339.722 4.40799V4.40799ZM346.678 38.744L344.823 39.904L342.504 37.584V21.576L344.823 19.952L344.359 19.488L342.736 20.88L338.562 16.008L331.837 20.648L332.301 21.344L333.924 20.184L336.011 22.736V37.816L332.997 40.136L333.229 40.6L334.852 39.44L339.954 44.08L346.91 39.44L346.678 38.744V38.744ZM385.404 38.512L383.781 39.672L381.23 37.352V21.576L383.549 19.72L383.085 19.256L381.23 20.88L375.897 16.008L368.94 20.88L363.606 16.008L357.114 20.88L352.939 16.008L346.215 20.648L346.446 21.344L348.07 20.184L350.389 22.736V37.816L348.534 39.672L353.867 44.08L358.969 39.44L356.882 37.352V21.576L358.969 20.184L362.447 23.432V37.352L360.592 39.208L365.925 43.616L371.027 38.976L368.94 36.888V21.576L370.795 20.416L374.505 23.664V37.584L372.882 39.208L378.216 44.08L385.404 39.208V38.512V38.512ZM405.579 35.032L399.782 39.44L393.984 34.8V32.016L404.883 24.592V24.36L399.318 16.008L387.259 22.504V38.28L395.376 44.08L405.811 35.728L405.579 35.032V35.032ZM393.984 31.088V19.72L394.448 19.488L399.55 27.608L393.984 31.088V31.088ZM426.681 29L422.275 25.52C425.29 22.968 426.449 19.488 426.449 17.168V15.776H425.985C425.522 16.936 424.594 18.096 422.739 18.096C420.884 18.096 419.724 17.168 418.565 15.776L408.13 21.576V29.928L412.072 32.944C408.13 36.424 407.434 38.744 407.434 40.6C407.434 42.92 408.594 44.544 410.449 45.24L410.681 44.776C410.217 44.312 409.753 44.08 409.753 42.92C409.753 42.224 410.681 41.064 412.536 41.064C414.855 41.064 416.246 42.688 416.942 43.384L426.913 37.352V29H426.681V29ZM424.13 22.04C422.507 24.824 419.029 27.608 416.942 29L414.391 26.912V18.792C415.318 21.112 417.869 22.968 420.42 22.968C422.043 22.968 422.971 22.736 424.13 22.04V22.04ZM420.188 40.6C419.029 38.048 416.246 36.192 413.463 36.192C412.768 36.192 410.912 36.192 409.057 37.352C410.217 35.496 413.231 32.248 417.174 29.928L419.956 32.248L420.188 40.6V40.6Z" fill="#EFAD99"/>
</svg>
