<svg width="59" height="59" viewBox="0 0 59 59" fill="none" xmlns="http://www.w3.org/2000/svg">
<path fill-rule="evenodd" clip-rule="evenodd" d="M58.6762 29.3381C58.6762 45.5411 45.5411 58.6762 29.3381 58.6762C13.1351 58.6762 0 45.5411 0 29.3381C0 13.1351 13.1351 0 29.3381 0C45.5411 0 58.6762 13.1351 58.6762 29.3381ZM25.6045 21.2037C25.6045 23.6342 23.6342 25.6045 21.2037 25.6045C18.7732 25.6045 16.8029 23.6342 16.8029 21.2037C16.8029 18.7732 18.7732 16.8029 21.2037 16.8029C23.6342 16.8029 25.6045 18.7732 25.6045 21.2037ZM36.8063 25.6045C39.2368 25.6045 41.2071 23.6342 41.2071 21.2037C41.2071 18.7732 39.2368 16.8029 36.8063 16.8029C34.3758 16.8029 32.4055 18.7732 32.4055 21.2037C32.4055 23.6342 34.3758 25.6045 36.8063 25.6045ZM41.2071 36.4064C41.2071 38.8368 39.2368 40.8071 36.8063 40.8071C34.3758 40.8071 32.4055 38.8368 32.4055 36.4064C32.4055 33.9759 34.3758 32.0056 36.8063 32.0056C39.2368 32.0056 41.2071 33.9759 41.2071 36.4064ZM21.2037 40.8071C23.6341 40.8071 25.6044 38.8368 25.6044 36.4064C25.6044 33.9759 23.6341 32.0056 21.2037 32.0056C18.7732 32.0056 16.8029 33.9759 16.8029 36.4064C16.8029 38.8368 18.7732 40.8071 21.2037 40.8071Z" fill="#738351"/>
</svg>
