<?xml version="1.0" encoding="utf-8"?>
<!-- Generator: Adobe Illustrator 19.2.1, SVG Export Plug-In . SVG Version: 6.00 Build 0)  -->
<svg version="1.1" id="layer" xmlns="http://www.w3.org/2000/svg" xmlns:xlink="http://www.w3.org/1999/xlink" x="0px" y="0px"
	 viewBox="0 0 652 652" style="enable-background:new 0 0 652 652;" xml:space="preserve">
<style type="text/css">
	.st0{fill:#231815;}
	.st1{fill:none;stroke:#231815;stroke-width:1.8543;stroke-miterlimit:10;}
</style>
<g>
	<path class="st0" d="M20.8,329.8c0,0.6,0.5,1.1,1.1,1.1c0.6,0,1.1-0.5,1.1-1.1c0-0.6-0.5-1.1-1.1-1.1
		C21.3,328.7,20.8,329.2,20.8,329.8"/>
	<ellipse class="st1" cx="21.9" cy="329.8" rx="1.1" ry="1.1"/>
	<path class="st0" d="M23.5,332.9c0,0.6,0.5,1.1,1.1,1.1c0.6,0,1.1-0.5,1.1-1.1c0-0.6-0.5-1.1-1.1-1.1
		C24,331.8,23.5,332.3,23.5,332.9"/>
	<path class="st1" d="M23.5,332.9c0,0.6,0.5,1.1,1.1,1.1c0.6,0,1.1-0.5,1.1-1.1c0-0.6-0.5-1.1-1.1-1.1
		C24,331.8,23.5,332.3,23.5,332.9z"/>
	<path class="st0" d="M27.1,334.8c0,0.6,0.5,1.1,1.1,1.1c0.6,0,1.1-0.5,1.1-1.1c0-0.6-0.5-1.1-1.1-1.1
		C27.6,333.7,27.1,334.2,27.1,334.8"/>
	<circle class="st1" cx="28.3" cy="334.8" r="1.1"/>
	<path class="st0" d="M31.2,335.3c0,0.6,0.5,1.1,1.1,1.1c0.6,0,1.1-0.5,1.1-1.1c0-0.6-0.5-1.1-1.1-1.1
		C31.7,334.2,31.2,334.7,31.2,335.3"/>
	<circle class="st1" cx="32.4" cy="335.3" r="1.1"/>
	<path class="st0" d="M35.4,335.2c0,0.6,0.5,1.1,1.1,1.1c0.6,0,1.1-0.5,1.1-1.1c0-0.6-0.5-1.1-1.1-1.1
		C35.9,334,35.4,334.5,35.4,335.2"/>
	<circle class="st1" cx="36.6" cy="335.2" r="1.1"/>
	<path class="st0" d="M39.8,334.1c0,0.6,0.5,1.1,1.1,1.1c0.6,0,1.1-0.5,1.1-1.1c0-0.6-0.5-1.1-1.1-1.1
		C40.3,333,39.8,333.5,39.8,334.1"/>
	<circle class="st1" cx="40.9" cy="334.1" r="1.1"/>
	<path class="st0" d="M42.5,331.3c0,0.6,0.5,1.1,1.1,1.1c0.6,0,1.1-0.5,1.1-1.1c0-0.6-0.5-1.1-1.1-1.1
		C43,330.1,42.5,330.6,42.5,331.3"/>
	<circle class="st1" cx="43.7" cy="331.3" r="1.1"/>
	<path class="st0" d="M43.2,327.3c0,0.6,0.5,1.1,1.1,1.1c0.6,0,1.1-0.5,1.1-1.1c0-0.6-0.5-1.1-1.1-1.1
		C43.7,326.2,43.2,326.7,43.2,327.3"/>
	<circle class="st1" cx="44.4" cy="327.3" r="1.1"/>
	<path class="st0" d="M41.1,324.1c0,0.6,0.5,1.1,1.1,1.1c0.6,0,1.1-0.5,1.1-1.1c0-0.6-0.5-1.1-1.1-1.1
		C41.6,323,41.1,323.5,41.1,324.1"/>
	<circle class="st1" cx="42.2" cy="324.1" r="1.1"/>
	<path class="st0" d="M37.3,322.8c0,0.6,0.5,1.1,1.1,1.1c0.6,0,1.1-0.5,1.1-1.1c0-0.6-0.5-1.1-1.1-1.1
		C37.8,321.7,37.3,322.2,37.3,322.8"/>
	<circle class="st1" cx="38.5" cy="322.8" r="1.1"/>
	<path class="st0" d="M33,322.5c0,0.6,0.5,1.1,1.1,1.1c0.6,0,1.1-0.5,1.1-1.1c0-0.6-0.5-1.1-1.1-1.1C33.5,321.3,33,321.9,33,322.5"
		/>
	<circle class="st1" cx="34.2" cy="322.5" r="1.1"/>
	<path class="st0" d="M28.9,322.3c0,0.6,0.5,1.1,1.1,1.1c0.6,0,1.1-0.5,1.1-1.1c0-0.6-0.5-1.1-1.1-1.1
		C29.5,321.1,28.9,321.7,28.9,322.3"/>
	<path class="st1" d="M28.9,322.3c0,0.6,0.5,1.1,1.1,1.1c0.6,0,1.1-0.5,1.1-1.1c0-0.6-0.5-1.1-1.1-1.1
		C29.5,321.1,28.9,321.7,28.9,322.3z"/>
	<path class="st0" d="M24.9,321.7c0,0.6,0.5,1.1,1.1,1.1c0.6,0,1.1-0.5,1.1-1.1c0-0.6-0.5-1.1-1.1-1.1
		C25.4,320.6,24.9,321.1,24.9,321.7"/>
	<circle class="st1" cx="26.1" cy="321.7" r="1.1"/>
	<path class="st0" d="M21,315.4c0,0.6,0.5,1.1,1.1,1.1c0.6,0,1.1-0.5,1.1-1.1c0-0.6-0.5-1.1-1.1-1.1C21.5,314.3,21,314.8,21,315.4"
		/>
	<circle class="st1" cx="22.2" cy="315.4" r="1.1"/>
	<path class="st0" d="M21.6,319.4c0,0.6,0.5,1.1,1.1,1.1c0.6,0,1.1-0.5,1.1-1.1c0-0.6-0.5-1.1-1.1-1.1
		C22.1,318.3,21.6,318.8,21.6,319.4"/>
	<circle class="st1" cx="22.7" cy="319.4" r="1.1"/>
	<path class="st0" d="M26.7,310.1c0,0.6,0.5,1.1,1.1,1.1c0.6,0,1.1-0.5,1.1-1.1c0-0.6-0.5-1.1-1.1-1.1
		C27.3,308.9,26.7,309.4,26.7,310.1"/>
	<circle class="st1" cx="27.9" cy="310.1" r="1.1"/>
	<path class="st0" d="M23.3,312c0,0.6,0.5,1.1,1.1,1.1c0.6,0,1.1-0.5,1.1-1.1c0-0.6-0.5-1.1-1.1-1.1C23.8,310.9,23.3,311.4,23.3,312
		"/>
	<path class="st1" d="M23.3,312c0,0.6,0.5,1.1,1.1,1.1c0.6,0,1.1-0.5,1.1-1.1c0-0.6-0.5-1.1-1.1-1.1C23.8,310.9,23.3,311.4,23.3,312
		z"/>
	<path class="st0" d="M30.7,309.7c0,0.6,0.5,1.1,1.1,1.1c0.6,0,1.1-0.5,1.1-1.1c0-0.6-0.5-1.1-1.1-1.1
		C31.2,308.5,30.7,309.1,30.7,309.7"/>
	<circle class="st1" cx="31.9" cy="309.7" r="1.1"/>
	<path class="st0" d="M34.9,309.9c0,0.6,0.5,1.1,1.1,1.1c0.6,0,1.1-0.5,1.1-1.1c0-0.6-0.5-1.1-1.1-1.1
		C35.4,308.8,34.9,309.3,34.9,309.9"/>
	<circle class="st1" cx="36" cy="309.9" r="1.1"/>
	<path class="st0" d="M38.7,311.1c0,0.7,0.5,1.2,1.1,1.2c0.6,0,1.1-0.5,1.1-1.2c0-0.7-0.5-1.2-1.1-1.2
		C39.2,309.9,38.7,310.5,38.7,311.1"/>
	<ellipse class="st1" cx="39.8" cy="311.1" rx="1.1" ry="1.2"/>
	<path class="st0" d="M42.2,313.3c0,0.6,0.5,1.1,1.1,1.1c0.6,0,1.1-0.5,1.1-1.1c0-0.6-0.5-1.1-1.1-1.1
		C42.7,312.1,42.2,312.6,42.2,313.3"/>
	<circle class="st1" cx="43.3" cy="313.3" r="1.1"/>
	<path class="st0" d="M467,310.3c0,0.6,0.5,1.1,1.1,1.1c0.6,0,1.1-0.5,1.1-1.1c0-0.6-0.5-1.1-1.1-1.1
		C467.5,309.2,467,309.7,467,310.3"/>
	<circle class="st1" cx="468.1" cy="310.3" r="1.1"/>
	<path class="st0" d="M471.1,310.3c0,0.6,0.5,1.1,1.1,1.1c0.6,0,1.1-0.5,1.1-1.1c0-0.6-0.5-1.1-1.1-1.1
		C471.6,309.2,471.1,309.7,471.1,310.3"/>
	<circle class="st1" cx="472.2" cy="310.3" r="1.1"/>
	<path class="st0" d="M475.2,310.3c0,0.6,0.5,1.1,1.1,1.1c0.6,0,1.1-0.5,1.1-1.1c0-0.6-0.5-1.1-1.1-1.1
		C475.7,309.2,475.2,309.7,475.2,310.3"/>
	<circle class="st1" cx="476.4" cy="310.3" r="1.1"/>
	<path class="st0" d="M479.4,310.3c0,0.6,0.5,1.1,1.1,1.1c0.6,0,1.1-0.5,1.1-1.1c0-0.6-0.5-1.1-1.1-1.1
		C479.9,309.2,479.4,309.7,479.4,310.3"/>
	<circle class="st1" cx="480.5" cy="310.3" r="1.1"/>
	<path class="st0" d="M483.5,310.3c0,0.6,0.5,1.1,1.1,1.1c0.6,0,1.1-0.5,1.1-1.1c0-0.6-0.5-1.1-1.1-1.1
		C484,309.2,483.5,309.7,483.5,310.3"/>
	<circle class="st1" cx="484.6" cy="310.3" r="1.1"/>
	<path class="st0" d="M487.6,310.3c0,0.6,0.5,1.1,1.1,1.1c0.6,0,1.1-0.5,1.1-1.1c0-0.6-0.5-1.1-1.1-1.1
		C488.2,309.2,487.6,309.7,487.6,310.3"/>
	<circle class="st1" cx="488.8" cy="310.3" r="1.1"/>
	<path class="st0" d="M491.8,310.3c0,0.6,0.5,1.1,1.1,1.1c0.6,0,1.1-0.5,1.1-1.1c0-0.6-0.5-1.1-1.1-1.1
		C492.3,309.2,491.8,309.7,491.8,310.3"/>
	<circle class="st1" cx="492.9" cy="310.3" r="1.1"/>
	<path class="st0" d="M480.5,336.2c0.6,0,1.1-0.5,1.1-1.1c0-0.6-0.5-1.1-1.1-1.1c-0.6,0-1.1,0.5-1.1,1.1
		C479.4,335.7,479.9,336.2,480.5,336.2"/>
	<circle class="st1" cx="480.5" cy="335" r="1.1"/>
	<path class="st0" d="M480.5,332c0.6,0,1.1-0.5,1.1-1.1c0-0.6-0.5-1.1-1.1-1.1c-0.6,0-1.1,0.5-1.1,1.1
		C479.4,331.5,479.9,332,480.5,332"/>
	<circle class="st1" cx="480.5" cy="330.9" r="1.1"/>
	<path class="st0" d="M480.5,327.9c0.6,0,1.1-0.5,1.1-1.1c0-0.6-0.5-1.1-1.1-1.1c-0.6,0-1.1,0.5-1.1,1.1
		C479.4,327.4,479.9,327.9,480.5,327.9"/>
	<circle class="st1" cx="480.5" cy="326.8" r="1.1"/>
	<path class="st0" d="M480.5,323.8c0.6,0,1.1-0.5,1.1-1.1c0-0.6-0.5-1.1-1.1-1.1c-0.6,0-1.1,0.5-1.1,1.1
		C479.4,323.3,479.9,323.8,480.5,323.8"/>
	<circle class="st1" cx="480.5" cy="322.7" r="1.1"/>
	<path class="st0" d="M480.5,319.7c0.6,0,1.1-0.5,1.1-1.1c0-0.6-0.5-1.1-1.1-1.1c-0.6,0-1.1,0.5-1.1,1.1
		C479.4,319.2,479.9,319.7,480.5,319.7"/>
	<circle class="st1" cx="480.5" cy="318.6" r="1.1"/>
	<path class="st0" d="M480.5,315.6c0.6,0,1.1-0.5,1.1-1.1s-0.5-1.1-1.1-1.1c-0.6,0-1.1,0.5-1.1,1.1
		C479.4,315.1,479.9,315.6,480.5,315.6"/>
	<circle class="st1" cx="480.5" cy="314.4" r="1.1"/>
	<path class="st0" d="M59.7,310.3c0,0.6,0.5,1.1,1.1,1.1c0.6,0,1.1-0.5,1.1-1.1c0-0.6-0.5-1.1-1.1-1.1
		C60.2,309.2,59.7,309.7,59.7,310.3"/>
	<circle class="st1" cx="60.8" cy="310.3" r="1.1"/>
	<path class="st0" d="M63.8,310.3c0,0.6,0.5,1.1,1.1,1.1c0.6,0,1.1-0.5,1.1-1.1c0-0.6-0.5-1.1-1.1-1.1
		C64.3,309.2,63.8,309.7,63.8,310.3"/>
	<circle class="st1" cx="65" cy="310.3" r="1.1"/>
	<path class="st0" d="M68,310.3c0,0.6,0.5,1.1,1.1,1.1c0.6,0,1.1-0.5,1.1-1.1c0-0.6-0.5-1.1-1.1-1.1C68.5,309.2,68,309.7,68,310.3"
		/>
	<circle class="st1" cx="69.1" cy="310.3" r="1.1"/>
	<path class="st0" d="M72.1,310.3c0,0.6,0.5,1.1,1.1,1.1c0.6,0,1.1-0.5,1.1-1.1c0-0.6-0.5-1.1-1.1-1.1
		C72.6,309.2,72.1,309.7,72.1,310.3"/>
	<circle class="st1" cx="73.2" cy="310.3" r="1.1"/>
	<path class="st0" d="M76.2,310.3c0,0.6,0.5,1.1,1.1,1.1c0.6,0,1.1-0.5,1.1-1.1c0-0.6-0.5-1.1-1.1-1.1
		C76.7,309.2,76.2,309.7,76.2,310.3"/>
	<circle class="st1" cx="77.4" cy="310.3" r="1.1"/>
	<path class="st0" d="M80.4,310.3c0,0.6,0.5,1.1,1.1,1.1c0.6,0,1.1-0.5,1.1-1.1c0-0.6-0.5-1.1-1.1-1.1
		C80.9,309.2,80.4,309.7,80.4,310.3"/>
	<circle class="st1" cx="81.5" cy="310.3" r="1.1"/>
	<path class="st0" d="M84.5,310.3c0,0.6,0.5,1.1,1.1,1.1c0.6,0,1.1-0.5,1.1-1.1c0-0.6-0.5-1.1-1.1-1.1
		C85,309.2,84.5,309.7,84.5,310.3"/>
	<circle class="st1" cx="85.7" cy="310.3" r="1.1"/>
	<path class="st0" d="M73.2,336.2c0.6,0,1.1-0.5,1.1-1.1c0-0.6-0.5-1.1-1.1-1.1c-0.6,0-1.1,0.5-1.1,1.1
		C72.1,335.7,72.6,336.2,73.2,336.2"/>
	<circle class="st1" cx="73.2" cy="335" r="1.1"/>
	<path class="st0" d="M73.2,332c0.6,0,1.1-0.5,1.1-1.1c0-0.6-0.5-1.1-1.1-1.1c-0.6,0-1.1,0.5-1.1,1.1C72.1,331.5,72.6,332,73.2,332"
		/>
	<circle class="st1" cx="73.2" cy="330.9" r="1.1"/>
	<path class="st0" d="M73.2,327.9c0.6,0,1.1-0.5,1.1-1.1c0-0.6-0.5-1.1-1.1-1.1c-0.6,0-1.1,0.5-1.1,1.1
		C72.1,327.4,72.6,327.9,73.2,327.9"/>
	<circle class="st1" cx="73.2" cy="326.8" r="1.1"/>
	<path class="st0" d="M73.2,323.8c0.6,0,1.1-0.5,1.1-1.1c0-0.6-0.5-1.1-1.1-1.1c-0.6,0-1.1,0.5-1.1,1.1
		C72.1,323.3,72.6,323.8,73.2,323.8"/>
	<circle class="st1" cx="73.2" cy="322.7" r="1.1"/>
	<path class="st0" d="M73.2,319.7c0.6,0,1.1-0.5,1.1-1.1c0-0.6-0.5-1.1-1.1-1.1c-0.6,0-1.1,0.5-1.1,1.1
		C72.1,319.2,72.6,319.7,73.2,319.7"/>
	<circle class="st1" cx="73.2" cy="318.6" r="1.1"/>
	<path class="st0" d="M73.2,315.6c0.6,0,1.1-0.5,1.1-1.1c0-0.6-0.5-1.1-1.1-1.1c-0.6,0-1.1,0.5-1.1,1.1
		C72.1,315.1,72.6,315.6,73.2,315.6"/>
	<circle class="st1" cx="73.2" cy="314.4" r="1.1"/>
	<path class="st0" d="M558.2,310.3c0,0.6,0.5,1.1,1.1,1.1c0.6,0,1.1-0.5,1.1-1.1c0-0.6-0.5-1.1-1.1-1.1
		C558.7,309.2,558.2,309.7,558.2,310.3"/>
	<circle class="st1" cx="559.3" cy="310.3" r="1.1"/>
	<path class="st0" d="M562.3,310.3c0,0.6,0.5,1.1,1.1,1.1c0.6,0,1.1-0.5,1.1-1.1c0-0.6-0.5-1.1-1.1-1.1
		C562.8,309.2,562.3,309.7,562.3,310.3"/>
	<circle class="st1" cx="563.5" cy="310.3" r="1.1"/>
	<path class="st0" d="M566.4,310.3c0,0.6,0.5,1.1,1.1,1.1c0.6,0,1.1-0.5,1.1-1.1c0-0.6-0.5-1.1-1.1-1.1
		C567,309.2,566.4,309.7,566.4,310.3"/>
	<circle class="st1" cx="567.6" cy="310.3" r="1.1"/>
	<path class="st0" d="M570.6,310.3c0,0.6,0.5,1.1,1.1,1.1c0.6,0,1.1-0.5,1.1-1.1c0-0.6-0.5-1.1-1.1-1.1
		C571.1,309.2,570.6,309.7,570.6,310.3"/>
	<circle class="st1" cx="571.7" cy="310.3" r="1.1"/>
	<path class="st0" d="M562.3,322.7c0,0.6,0.5,1.1,1.1,1.1c0.6,0,1.1-0.5,1.1-1.1c0-0.6-0.5-1.1-1.1-1.1
		C562.8,321.5,562.3,322,562.3,322.7"/>
	<circle class="st1" cx="563.5" cy="322.7" r="1.1"/>
	<path class="st0" d="M566.5,322.7c0,0.6,0.5,1.1,1.1,1.1c0.6,0,1.1-0.5,1.1-1.1c0-0.6-0.5-1.1-1.1-1.1
		C567,321.5,566.5,322,566.5,322.7"/>
	<circle class="st1" cx="567.6" cy="322.7" r="1.1"/>
	<path class="st0" d="M570.6,322.7c0,0.6,0.5,1.1,1.1,1.1c0.6,0,1.1-0.5,1.1-1.1c0-0.6-0.5-1.1-1.1-1.1
		C571.1,321.5,570.6,322,570.6,322.7"/>
	<circle class="st1" cx="571.7" cy="322.7" r="1.1"/>
	<path class="st0" d="M559.3,336.2c0.6,0,1.1-0.5,1.1-1.1c0-0.6-0.5-1.1-1.1-1.1c-0.6,0-1.1,0.5-1.1,1.1
		C558.2,335.7,558.7,336.2,559.3,336.2"/>
	<circle class="st1" cx="559.3" cy="335" r="1.1"/>
	<path class="st0" d="M559.3,332c0.6,0,1.1-0.5,1.1-1.1c0-0.6-0.5-1.1-1.1-1.1c-0.6,0-1.1,0.5-1.1,1.1
		C558.2,331.5,558.7,332,559.3,332"/>
	<circle class="st1" cx="559.3" cy="330.9" r="1.1"/>
	<path class="st0" d="M559.3,327.9c0.6,0,1.1-0.5,1.1-1.1c0-0.6-0.5-1.1-1.1-1.1c-0.6,0-1.1,0.5-1.1,1.1
		C558.2,327.4,558.7,327.9,559.3,327.9"/>
	<circle class="st1" cx="559.3" cy="326.8" r="1.1"/>
	<path class="st0" d="M559.3,323.8c0.6,0,1.1-0.5,1.1-1.1c0-0.6-0.5-1.1-1.1-1.1c-0.6,0-1.1,0.5-1.1,1.1
		C558.2,323.3,558.7,323.8,559.3,323.8"/>
	<circle class="st1" cx="559.3" cy="322.7" r="1.1"/>
	<path class="st0" d="M559.3,319.7c0.6,0,1.1-0.5,1.1-1.1c0-0.6-0.5-1.1-1.1-1.1c-0.6,0-1.1,0.5-1.1,1.1
		C558.2,319.2,558.7,319.7,559.3,319.7"/>
	<circle class="st1" cx="559.3" cy="318.6" r="1.1"/>
	<path class="st0" d="M559.3,315.6c0.6,0,1.1-0.5,1.1-1.1c0-0.6-0.5-1.1-1.1-1.1c-0.6,0-1.1,0.5-1.1,1.1
		C558.2,315.1,558.7,315.6,559.3,315.6"/>
	<circle class="st1" cx="559.3" cy="314.4" r="1.1"/>
	<path class="st0" d="M562.3,335c0,0.6,0.5,1.1,1.1,1.1c0.6,0,1.1-0.5,1.1-1.1c0-0.6-0.5-1.1-1.1-1.1
		C562.8,333.9,562.3,334.4,562.3,335"/>
	<circle class="st1" cx="563.5" cy="335" r="1.1"/>
	<path class="st0" d="M566.5,335c0,0.6,0.5,1.1,1.1,1.1c0.6,0,1.1-0.5,1.1-1.1c0-0.6-0.5-1.1-1.1-1.1
		C567,333.9,566.5,334.4,566.5,335"/>
	<circle class="st1" cx="567.6" cy="335" r="1.1"/>
	<path class="st0" d="M570.6,335c0,0.6,0.5,1.1,1.1,1.1c0.6,0,1.1-0.5,1.1-1.1c0-0.6-0.5-1.1-1.1-1.1
		C571.1,333.9,570.6,334.4,570.6,335"/>
	<circle class="st1" cx="571.7" cy="335" r="1.1"/>
	<path class="st0" d="M574.7,335c0,0.6,0.5,1.1,1.1,1.1c0.6,0,1.1-0.5,1.1-1.1c0-0.6-0.5-1.1-1.1-1.1
		C575.2,333.9,574.7,334.4,574.7,335"/>
	<circle class="st1" cx="575.9" cy="335" r="1.1"/>
	<path class="st0" d="M574.7,310.3c0,0.6,0.5,1.1,1.1,1.1c0.6,0,1.1-0.5,1.1-1.1c0-0.6-0.5-1.1-1.1-1.1
		C575.2,309.2,574.7,309.7,574.7,310.3"/>
	<circle class="st1" cx="575.9" cy="310.3" r="1.1"/>
	<path class="st0" d="M183.4,310.3c0,0.6,0.5,1.1,1.1,1.1c0.6,0,1.1-0.5,1.1-1.1c0-0.6-0.5-1.1-1.1-1.1
		C183.9,309.2,183.4,309.7,183.4,310.3"/>
	<circle class="st1" cx="184.5" cy="310.3" r="1.1"/>
	<path class="st0" d="M184.5,336.2c0.6,0,1.1-0.5,1.1-1.1c0-0.6-0.5-1.1-1.1-1.1c-0.6,0-1.1,0.5-1.1,1.1
		C183.4,335.7,183.9,336.2,184.5,336.2"/>
	<circle class="st1" cx="184.5" cy="335" r="1.1"/>
	<path class="st0" d="M184.5,332c0.6,0,1.1-0.5,1.1-1.1c0-0.6-0.5-1.1-1.1-1.1c-0.6,0-1.1,0.5-1.1,1.1
		C183.4,331.5,183.9,332,184.5,332"/>
	<circle class="st1" cx="184.5" cy="330.9" r="1.1"/>
	<path class="st0" d="M184.5,327.9c0.6,0,1.1-0.5,1.1-1.1c0-0.6-0.5-1.1-1.1-1.1c-0.6,0-1.1,0.5-1.1,1.1
		C183.4,327.4,183.9,327.9,184.5,327.9"/>
	<path class="st1" d="M184.5,327.9c0.6,0,1.1-0.5,1.1-1.1c0-0.6-0.5-1.1-1.1-1.1c-0.6,0-1.1,0.5-1.1,1.1
		C183.4,327.4,183.9,327.9,184.5,327.9z"/>
	<path class="st0" d="M184.5,323.8c0.6,0,1.1-0.5,1.1-1.1c0-0.6-0.5-1.1-1.1-1.1c-0.6,0-1.1,0.5-1.1,1.1
		C183.4,323.3,183.9,323.8,184.5,323.8"/>
	<path class="st1" d="M184.5,323.8c0.6,0,1.1-0.5,1.1-1.1c0-0.6-0.5-1.1-1.1-1.1c-0.6,0-1.1,0.5-1.1,1.1
		C183.4,323.3,183.9,323.8,184.5,323.8z"/>
	<path class="st0" d="M184.5,319.7c0.6,0,1.1-0.5,1.1-1.1c0-0.6-0.5-1.1-1.1-1.1c-0.6,0-1.1,0.5-1.1,1.1
		C183.4,319.2,183.9,319.7,184.5,319.7"/>
	<circle class="st1" cx="184.5" cy="318.6" r="1.1"/>
	<path class="st0" d="M184.5,315.6c0.6,0,1.1-0.5,1.1-1.1c0-0.6-0.5-1.1-1.1-1.1c-0.6,0-1.1,0.5-1.1,1.1
		C183.4,315.1,183.9,315.6,184.5,315.6"/>
	<circle class="st1" cx="184.5" cy="314.4" r="1.1"/>
	<path class="st0" d="M187.5,335c0,0.6,0.5,1.1,1.1,1.1c0.6,0,1.1-0.5,1.1-1.1c0-0.6-0.5-1.1-1.1-1.1
		C188,333.9,187.5,334.4,187.5,335"/>
	<circle class="st1" cx="188.6" cy="335" r="1.1"/>
	<path class="st0" d="M191.6,335c0,0.6,0.5,1.1,1.1,1.1c0.6,0,1.1-0.5,1.1-1.1c0-0.6-0.5-1.1-1.1-1.1
		C192.1,333.9,191.6,334.4,191.6,335"/>
	<circle class="st1" cx="192.8" cy="335" r="1.1"/>
	<path class="st0" d="M195.7,335c0,0.6,0.5,1.1,1.1,1.1c0.6,0,1.1-0.5,1.1-1.1c0-0.6-0.5-1.1-1.1-1.1
		C196.2,333.9,195.7,334.4,195.7,335"/>
	<circle class="st1" cx="196.9" cy="335" r="1.1"/>
	<path class="st0" d="M146,310.3c0,0.6,0.5,1.1,1.1,1.1c0.6,0,1.1-0.5,1.1-1.1c0-0.6-0.5-1.1-1.1-1.1
		C146.5,309.2,146,309.7,146,310.3"/>
	<circle class="st1" cx="147.1" cy="310.3" r="1.1"/>
	<path class="st0" d="M147.1,336.2c0.6,0,1.1-0.5,1.1-1.1c0-0.6-0.5-1.1-1.1-1.1c-0.6,0-1.1,0.5-1.1,1.1
		C146,335.7,146.5,336.2,147.1,336.2"/>
	<path class="st1" d="M147.1,336.2c0.6,0,1.1-0.5,1.1-1.1c0-0.6-0.5-1.1-1.1-1.1c-0.6,0-1.1,0.5-1.1,1.1
		C146,335.7,146.5,336.2,147.1,336.2z"/>
	<path class="st0" d="M147.1,332c0.6,0,1.1-0.5,1.1-1.1c0-0.6-0.5-1.1-1.1-1.1c-0.6,0-1.1,0.5-1.1,1.1
		C146,331.5,146.5,332,147.1,332"/>
	<path class="st1" d="M147.1,332c0.6,0,1.1-0.5,1.1-1.1c0-0.6-0.5-1.1-1.1-1.1c-0.6,0-1.1,0.5-1.1,1.1
		C146,331.5,146.5,332,147.1,332z"/>
	<path class="st0" d="M147.1,327.9c0.6,0,1.1-0.5,1.1-1.1c0-0.6-0.5-1.1-1.1-1.1c-0.6,0-1.1,0.5-1.1,1.1
		C146,327.4,146.5,327.9,147.1,327.9"/>
	<path class="st1" d="M147.1,327.9c0.6,0,1.1-0.5,1.1-1.1c0-0.6-0.5-1.1-1.1-1.1c-0.6,0-1.1,0.5-1.1,1.1
		C146,327.4,146.5,327.9,147.1,327.9z"/>
	<path class="st0" d="M147.1,323.8c0.6,0,1.1-0.5,1.1-1.1c0-0.6-0.5-1.1-1.1-1.1c-0.6,0-1.1,0.5-1.1,1.1
		C146,323.3,146.5,323.8,147.1,323.8"/>
	<path class="st1" d="M147.1,323.8c0.6,0,1.1-0.5,1.1-1.1c0-0.6-0.5-1.1-1.1-1.1c-0.6,0-1.1,0.5-1.1,1.1
		C146,323.3,146.5,323.8,147.1,323.8z"/>
	<path class="st0" d="M147.1,319.7c0.6,0,1.1-0.5,1.1-1.1c0-0.6-0.5-1.1-1.1-1.1c-0.6,0-1.1,0.5-1.1,1.1
		C146,319.2,146.5,319.7,147.1,319.7"/>
	<path class="st1" d="M147.1,319.7c0.6,0,1.1-0.5,1.1-1.1c0-0.6-0.5-1.1-1.1-1.1c-0.6,0-1.1,0.5-1.1,1.1
		C146,319.2,146.5,319.7,147.1,319.7z"/>
	<path class="st0" d="M147.1,315.6c0.6,0,1.1-0.5,1.1-1.1c0-0.6-0.5-1.1-1.1-1.1c-0.6,0-1.1,0.5-1.1,1.1
		C146,315.1,146.5,315.6,147.1,315.6"/>
	<path class="st1" d="M147.1,315.6c0.6,0,1.1-0.5,1.1-1.1c0-0.6-0.5-1.1-1.1-1.1c-0.6,0-1.1,0.5-1.1,1.1
		C146,315.1,146.5,315.6,147.1,315.6z"/>
	<path class="st0" d="M150.1,335c0,0.6,0.5,1.1,1.1,1.1c0.6,0,1.1-0.5,1.1-1.1c0-0.6-0.5-1.1-1.1-1.1
		C150.6,333.9,150.1,334.4,150.1,335"/>
	<ellipse class="st1" cx="151.2" cy="335" rx="1.1" ry="1.1"/>
	<path class="st0" d="M154.2,335c0,0.6,0.5,1.1,1.1,1.1c0.6,0,1.1-0.5,1.1-1.1c0-0.6-0.5-1.1-1.1-1.1
		C154.7,333.9,154.2,334.4,154.2,335"/>
	<circle class="st1" cx="155.4" cy="335" r="1.1"/>
	<path class="st0" d="M158.4,335c0,0.6,0.5,1.1,1.1,1.1c0.6,0,1.1-0.5,1.1-1.1c0-0.6-0.5-1.1-1.1-1.1
		C158.9,333.9,158.4,334.4,158.4,335"/>
	<circle class="st1" cx="159.5" cy="335" r="1.1"/>
	<path class="st0" d="M105,310.3c0,0.6,0.5,1.1,1.1,1.1c0.6,0,1.1-0.5,1.1-1.1c0-0.6-0.5-1.1-1.1-1.1
		C105.5,309.2,105,309.7,105,310.3"/>
	<circle class="st1" cx="106.1" cy="310.3" r="1.1"/>
	<path class="st0" d="M109.1,310.3c0,0.6,0.5,1.1,1.1,1.1c0.6,0,1.1-0.5,1.1-1.1c0-0.6-0.5-1.1-1.1-1.1
		C109.6,309.2,109.1,309.7,109.1,310.3"/>
	<circle class="st1" cx="110.3" cy="310.3" r="1.1"/>
	<path class="st0" d="M113.2,310.3c0,0.6,0.5,1.1,1.1,1.1c0.6,0,1.1-0.5,1.1-1.1c0-0.6-0.5-1.1-1.1-1.1
		C113.8,309.2,113.2,309.7,113.2,310.3"/>
	<circle class="st1" cx="114.4" cy="310.3" r="1.1"/>
	<path class="st0" d="M117.4,310.3c0,0.6,0.5,1.1,1.1,1.1c0.6,0,1.1-0.5,1.1-1.1c0-0.6-0.5-1.1-1.1-1.1
		C117.9,309.2,117.4,309.7,117.4,310.3"/>
	<circle class="st1" cx="118.5" cy="310.3" r="1.1"/>
	<path class="st0" d="M109.1,322.7c0,0.6,0.5,1.1,1.1,1.1c0.6,0,1.1-0.5,1.1-1.1c0-0.6-0.5-1.1-1.1-1.1
		C109.6,321.5,109.1,322,109.1,322.7"/>
	<circle class="st1" cx="110.3" cy="322.7" r="1.1"/>
	<path class="st0" d="M113.2,322.7c0,0.6,0.5,1.1,1.1,1.1c0.6,0,1.1-0.5,1.1-1.1c0-0.6-0.5-1.1-1.1-1.1
		C113.8,321.5,113.2,322,113.2,322.7"/>
	<circle class="st1" cx="114.4" cy="322.7" r="1.1"/>
	<path class="st0" d="M117.4,322.7c0,0.6,0.5,1.1,1.1,1.1c0.6,0,1.1-0.5,1.1-1.1c0-0.6-0.5-1.1-1.1-1.1
		C117.9,321.5,117.4,322,117.4,322.7"/>
	<circle class="st1" cx="118.5" cy="322.7" r="1.1"/>
	<path class="st0" d="M106.1,336.2c0.6,0,1.1-0.5,1.1-1.1c0-0.6-0.5-1.1-1.1-1.1c-0.6,0-1.1,0.5-1.1,1.1
		C105,335.7,105.5,336.2,106.1,336.2"/>
	<circle class="st1" cx="106.1" cy="335" r="1.1"/>
	<path class="st0" d="M106.1,332c0.6,0,1.1-0.5,1.1-1.1c0-0.6-0.5-1.1-1.1-1.1c-0.6,0-1.1,0.5-1.1,1.1
		C105,331.5,105.5,332,106.1,332"/>
	<circle class="st1" cx="106.1" cy="330.9" r="1.1"/>
	<path class="st0" d="M106.1,327.9c0.6,0,1.1-0.5,1.1-1.1c0-0.6-0.5-1.1-1.1-1.1c-0.6,0-1.1,0.5-1.1,1.1
		C105,327.4,105.5,327.9,106.1,327.9"/>
	<circle class="st1" cx="106.1" cy="326.8" r="1.1"/>
	<path class="st0" d="M106.1,323.8c0.6,0,1.1-0.5,1.1-1.1c0-0.6-0.5-1.1-1.1-1.1c-0.6,0-1.1,0.5-1.1,1.1
		C105,323.3,105.5,323.8,106.1,323.8"/>
	<circle class="st1" cx="106.1" cy="322.7" r="1.1"/>
	<path class="st0" d="M106.1,319.7c0.6,0,1.1-0.5,1.1-1.1c0-0.6-0.5-1.1-1.1-1.1c-0.6,0-1.1,0.5-1.1,1.1
		C105,319.2,105.5,319.7,106.1,319.7"/>
	<circle class="st1" cx="106.1" cy="318.5" r="1.1"/>
	<path class="st0" d="M106.1,315.6c0.6,0,1.1-0.5,1.1-1.1c0-0.6-0.5-1.1-1.1-1.1c-0.6,0-1.1,0.5-1.1,1.1
		C105,315,105.5,315.6,106.1,315.6"/>
	<circle class="st1" cx="106.1" cy="314.4" r="1.1"/>
	<path class="st0" d="M109.1,335c0,0.6,0.5,1.1,1.1,1.1c0.6,0,1.1-0.5,1.1-1.1c0-0.6-0.5-1.1-1.1-1.1
		C109.6,333.9,109.1,334.4,109.1,335"/>
	<circle class="st1" cx="110.3" cy="335" r="1.1"/>
	<path class="st0" d="M113.2,335c0,0.6,0.5,1.1,1.1,1.1c0.6,0,1.1-0.5,1.1-1.1c0-0.6-0.5-1.1-1.1-1.1
		C113.8,333.9,113.2,334.4,113.2,335"/>
	<circle class="st1" cx="114.4" cy="335" r="1.1"/>
	<path class="st0" d="M117.4,335c0,0.6,0.5,1.1,1.1,1.1c0.6,0,1.1-0.5,1.1-1.1c0-0.6-0.5-1.1-1.1-1.1
		C117.9,333.9,117.4,334.4,117.4,335"/>
	<circle class="st1" cx="118.5" cy="335" r="1.1"/>
	<path class="st0" d="M121.5,335c0,0.6,0.5,1.1,1.1,1.1c0.6,0,1.1-0.5,1.1-1.1c0-0.6-0.5-1.1-1.1-1.1
		C122,333.9,121.5,334.4,121.5,335"/>
	<ellipse class="st1" cx="122.7" cy="335" rx="1.1" ry="1.1"/>
	<path class="st0" d="M121.5,310.3c0,0.6,0.5,1.1,1.1,1.1c0.6,0,1.1-0.5,1.1-1.1c0-0.6-0.5-1.1-1.1-1.1
		C122,309.2,121.5,309.7,121.5,310.3"/>
	<ellipse class="st1" cx="122.7" cy="310.3" rx="1.1" ry="1.1"/>
	<path class="st0" d="M403.1,327.9c0,0.6-0.5,1.1-1.1,1.1c-0.6,0-1.1-0.5-1.1-1.1c0-0.6,0.5-1.1,1.1-1.1
		C402.6,326.8,403.1,327.3,403.1,327.9"/>
	<path class="st1" d="M403.1,327.9c0,0.6-0.5,1.1-1.1,1.1c-0.6,0-1.1-0.5-1.1-1.1c0-0.6,0.5-1.1,1.1-1.1
		C402.6,326.8,403.1,327.3,403.1,327.9z"/>
	<path class="st0" d="M398.9,327.9c0,0.6-0.5,1.1-1.1,1.1c-0.6,0-1.1-0.5-1.1-1.1c0-0.6,0.5-1.1,1.1-1.1
		C398.4,326.8,398.9,327.3,398.9,327.9"/>
	<ellipse class="st1" cx="397.8" cy="328" rx="1.1" ry="1.1"/>
	<path class="st0" d="M283.2,336.2c0.6,0,1.1-0.5,1.1-1.1c0-0.6-0.5-1.1-1.1-1.1c-0.6,0-1.1,0.5-1.1,1.1
		C282.1,335.7,282.6,336.2,283.2,336.2"/>
	<circle class="st1" cx="283.2" cy="335" r="1.1"/>
	<path class="st0" d="M283.2,332c0.6,0,1.1-0.5,1.1-1.1s-0.5-1.1-1.1-1.1c-0.6,0-1.1,0.5-1.1,1.1C282.1,331.5,282.6,332,283.2,332"
		/>
	<ellipse class="st1" cx="283.2" cy="330.9" rx="1.1" ry="1.1"/>
	<path class="st0" d="M283.2,327.9c0.6,0,1.1-0.5,1.1-1.1c0-0.6-0.5-1.1-1.1-1.1c-0.6,0-1.1,0.5-1.1,1.1
		C282.1,327.4,282.6,327.9,283.2,327.9"/>
	<ellipse class="st1" cx="283.2" cy="326.8" rx="1.1" ry="1.1"/>
	<path class="st0" d="M283.2,323.8c0.6,0,1.1-0.5,1.1-1.1c0-0.6-0.5-1.1-1.1-1.1c-0.6,0-1.1,0.5-1.1,1.1
		C282.1,323.3,282.6,323.8,283.2,323.8"/>
	<circle class="st1" cx="283.2" cy="322.7" r="1.1"/>
	<path class="st0" d="M283.2,319.7c0.6,0,1.1-0.5,1.1-1.1c0-0.6-0.5-1.1-1.1-1.1c-0.6,0-1.1,0.5-1.1,1.1
		C282.1,319.2,282.6,319.7,283.2,319.7"/>
	<ellipse class="st1" cx="283.2" cy="318.6" rx="1.1" ry="1.1"/>
	<path class="st0" d="M283.2,315.6c0.6,0,1.1-0.5,1.1-1.1s-0.5-1.1-1.1-1.1c-0.6,0-1.1,0.5-1.1,1.1
		C282.1,315.1,282.6,315.6,283.2,315.6"/>
	<circle class="st1" cx="283.2" cy="314.4" r="1.1"/>
	<path class="st0" d="M259.7,312.5c0.4,0.5,0.4,1.2-0.1,1.6c-0.5,0.4-1.2,0.4-1.6-0.1c-0.4-0.5-0.4-1.2,0.1-1.6
		C258.6,311.9,259.3,312,259.7,312.5"/>
	<path class="st1" d="M259.7,312.5c0.4,0.5,0.4,1.2-0.1,1.6c-0.5,0.4-1.2,0.4-1.6-0.1c-0.4-0.5-0.4-1.2,0.1-1.6
		C258.6,311.9,259.3,312,259.7,312.5z"/>
	<path class="st0" d="M267.6,322.8c-0.5,0.4-1.2,0.4-1.6-0.1c-0.4-0.5-0.4-1.2,0.1-1.6c0.5-0.4,1.2-0.4,1.6,0.1
		C268.1,321.6,268,322.4,267.6,322.8"/>
	<path class="st1" d="M267.6,322.8c-0.5,0.4-1.2,0.4-1.6-0.1c-0.4-0.5-0.4-1.2,0.1-1.6c0.5-0.4,1.2-0.4,1.6,0.1
		C268.1,321.6,268,322.4,267.6,322.8z"/>
	<path class="st0" d="M265,319.9c-0.5,0.4-1.2,0.4-1.6-0.1c-0.4-0.5-0.4-1.2,0.1-1.6c0.5-0.4,1.2-0.4,1.6,0.1
		C265.5,318.8,265.5,319.5,265,319.9"/>
	<path class="st1" d="M265,319.9c-0.5,0.4-1.2,0.4-1.6-0.1c-0.4-0.5-0.4-1.2,0.1-1.6c0.5-0.4,1.2-0.4,1.6,0.1
		C265.5,318.8,265.5,319.5,265,319.9z"/>
	<path class="st0" d="M262.3,317c-0.5,0.4-1.2,0.4-1.6-0.1c-0.4-0.5-0.4-1.2,0.1-1.6c0.5-0.4,1.2-0.4,1.6,0.1
		C262.8,315.9,262.8,316.6,262.3,317"/>
	<path class="st1" d="M262.3,317c-0.5,0.4-1.2,0.4-1.6-0.1c-0.4-0.5-0.4-1.2,0.1-1.6c0.5-0.4,1.2-0.4,1.6,0.1
		C262.8,315.9,262.8,316.6,262.3,317z"/>
	<path class="st0" d="M428.9,310.3c0,0.6,0.5,1.1,1.1,1.1c0.6,0,1.1-0.5,1.1-1.1c0-0.6-0.5-1.1-1.1-1.1
		C429.4,309.2,428.9,309.7,428.9,310.3"/>
	<path class="st1" d="M428.9,310.3c0,0.6,0.5,1.1,1.1,1.1c0.6,0,1.1-0.5,1.1-1.1c0-0.6-0.5-1.1-1.1-1.1
		C429.4,309.2,428.9,309.7,428.9,310.3z"/>
	<path class="st0" d="M430,336.2c0.6,0,1.1-0.5,1.1-1.1c0-0.6-0.5-1.1-1.1-1.1c-0.6,0-1.1,0.5-1.1,1.1
		C428.9,335.7,429.4,336.2,430,336.2"/>
	<path class="st1" d="M430,336.2c0.6,0,1.1-0.5,1.1-1.1c0-0.6-0.5-1.1-1.1-1.1c-0.6,0-1.1,0.5-1.1,1.1
		C428.9,335.7,429.4,336.2,430,336.2z"/>
	<path class="st0" d="M430,332c0.6,0,1.1-0.5,1.1-1.1c0-0.6-0.5-1.1-1.1-1.1c-0.6,0-1.1,0.5-1.1,1.1C428.9,331.5,429.4,332,430,332"
		/>
	<circle class="st1" cx="430" cy="330.9" r="1.1"/>
	<path class="st0" d="M430,327.9c0.6,0,1.1-0.5,1.1-1.1c0-0.6-0.5-1.1-1.1-1.1c-0.6,0-1.1,0.5-1.1,1.1
		C428.9,327.4,429.4,327.9,430,327.9"/>
	<circle class="st1" cx="430" cy="326.8" r="1.1"/>
	<path class="st0" d="M430,323.8c0.6,0,1.1-0.5,1.1-1.1c0-0.6-0.5-1.1-1.1-1.1c-0.6,0-1.1,0.5-1.1,1.1
		C428.9,323.3,429.4,323.8,430,323.8"/>
	<circle class="st1" cx="430" cy="322.7" r="1.1"/>
	<path class="st0" d="M430,319.7c0.6,0,1.1-0.5,1.1-1.1c0-0.6-0.5-1.1-1.1-1.1c-0.6,0-1.1,0.5-1.1,1.1
		C428.9,319.2,429.4,319.7,430,319.7"/>
	<circle class="st1" cx="430" cy="318.6" r="1.1"/>
	<path class="st0" d="M430,315.6c0.6,0,1.1-0.5,1.1-1.1c0-0.6-0.5-1.1-1.1-1.1c-0.6,0-1.1,0.5-1.1,1.1
		C428.9,315.1,429.4,315.6,430,315.6"/>
	<circle class="st1" cx="430" cy="314.4" r="1.1"/>
	<path class="st0" d="M448.2,311.5c0-0.6-0.5-1.1-1.1-1.1c-0.6,0-1.1,0.5-1.1,1.1c0,0.6,0.5,1.1,1.1,1.1
		C447.7,312.6,448.2,312.1,448.2,311.5"/>
	<circle class="st1" cx="447.1" cy="311.5" r="1.1"/>
	<path class="st0" d="M444.1,310.3c0-0.6-0.5-1.1-1.1-1.1c-0.6,0-1.1,0.5-1.1,1.1c0,0.6,0.5,1.1,1.1,1.1
		C443.6,311.5,444.1,310.9,444.1,310.3"/>
	<ellipse class="st1" cx="443" cy="310.3" rx="1.1" ry="1.1"/>
	<path class="st0" d="M439.7,310.3c0-0.6-0.5-1.1-1.1-1.1c-0.6,0-1.1,0.5-1.1,1.1c0,0.6,0.5,1.1,1.1,1.1
		C439.2,311.5,439.7,310.9,439.7,310.3"/>
	<path class="st1" d="M439.7,310.3c0-0.6-0.5-1.1-1.1-1.1c-0.6,0-1.1,0.5-1.1,1.1c0,0.6,0.5,1.1,1.1,1.1
		C439.2,311.5,439.7,310.9,439.7,310.3z"/>
	<path class="st0" d="M435.4,310.3c0-0.6-0.5-1.1-1.1-1.1c-0.6,0-1.1,0.5-1.1,1.1c0,0.6,0.5,1.1,1.1,1.1
		C434.9,311.5,435.4,310.9,435.4,310.3"/>
	<circle class="st1" cx="434.3" cy="310.3" r="1.1"/>
	<path class="st0" d="M443.4,322.9c0-0.6-0.5-1.1-1.1-1.1c-0.6,0-1.1,0.5-1.1,1.1c0,0.6,0.5,1.1,1.1,1.1
		C442.9,324.1,443.4,323.6,443.4,322.9"/>
	<circle class="st1" cx="442.2" cy="322.9" r="1.1"/>
	<path class="st0" d="M439.2,322.9c0-0.6-0.5-1.1-1.1-1.1c-0.6,0-1.1,0.5-1.1,1.1c0,0.6,0.5,1.1,1.1,1.1
		C438.7,324.1,439.2,323.6,439.2,322.9"/>
	<ellipse class="st1" cx="438.1" cy="322.9" rx="1.1" ry="1.1"/>
	<path class="st0" d="M435.2,322.9c0-0.6-0.5-1.1-1.1-1.1c-0.6,0-1.1,0.5-1.1,1.1c0,0.6,0.5,1.1,1.1,1.1
		C434.7,324.1,435.2,323.6,435.2,322.9"/>
	<path class="st1" d="M435.2,322.9c0-0.6-0.5-1.1-1.1-1.1c-0.6,0-1.1,0.5-1.1,1.1c0,0.6,0.5,1.1,1.1,1.1
		C434.7,324.1,435.2,323.6,435.2,322.9z"/>
	<path class="st0" d="M535,310.3c0,0.6,0.5,1.1,1.1,1.1c0.6,0,1.1-0.5,1.1-1.1c0-0.6-0.5-1.1-1.1-1.1
		C535.5,309.2,535,309.7,535,310.3"/>
	<path class="st1" d="M535,310.3c0,0.6,0.5,1.1,1.1,1.1c0.6,0,1.1-0.5,1.1-1.1c0-0.6-0.5-1.1-1.1-1.1
		C535.5,309.2,535,309.7,535,310.3z"/>
	<path class="st0" d="M536.1,332c0.6,0,1.1-0.5,1.1-1.1c0-0.6-0.5-1.1-1.1-1.1c-0.6,0-1.1,0.5-1.1,1.1
		C535,331.5,535.5,332,536.1,332"/>
	<circle class="st1" cx="536.1" cy="330.9" r="1.1"/>
	<path class="st0" d="M536.1,327.9c0.6,0,1.1-0.5,1.1-1.1c0-0.6-0.5-1.1-1.1-1.1c-0.6,0-1.1,0.5-1.1,1.1
		C535,327.4,535.5,327.9,536.1,327.9"/>
	<ellipse class="st1" cx="536.1" cy="326.8" rx="1.1" ry="1.1"/>
	<path class="st0" d="M536.1,323.8c0.6,0,1.1-0.5,1.1-1.1c0-0.6-0.5-1.1-1.1-1.1c-0.6,0-1.1,0.5-1.1,1.1
		C535,323.3,535.5,323.8,536.1,323.8"/>
	<path class="st1" d="M536.1,323.8c0.6,0,1.1-0.5,1.1-1.1c0-0.6-0.5-1.1-1.1-1.1c-0.6,0-1.1,0.5-1.1,1.1
		C535,323.3,535.5,323.8,536.1,323.8z"/>
	<path class="st0" d="M536.1,319.7c0.6,0,1.1-0.5,1.1-1.1c0-0.6-0.5-1.1-1.1-1.1c-0.6,0-1.1,0.5-1.1,1.1
		C535,319.2,535.5,319.7,536.1,319.7"/>
	<circle class="st1" cx="536.1" cy="318.6" r="1.1"/>
	<path class="st0" d="M536.1,315.6c0.6,0,1.1-0.5,1.1-1.1c0-0.6-0.5-1.1-1.1-1.1c-0.6,0-1.1,0.5-1.1,1.1
		C535,315.1,535.5,315.6,536.1,315.6"/>
	<ellipse class="st1" cx="536.1" cy="314.4" rx="1.1" ry="1.1"/>
</g>
<line class="st1" x1="220.5" y1="335.5" x2="220.6" y2="335.6"/>
<g>
	<path class="st0" d="M441,325.1c0.4,0.5,0.4,1.2-0.1,1.6c-0.5,0.4-1.2,0.4-1.6-0.1c-0.4-0.5-0.4-1.2,0.1-1.6
		C439.8,324.6,440.5,324.7,441,325.1"/>
	<path class="st1" d="M441,325.1c0.4,0.5,0.4,1.2-0.1,1.6c-0.5,0.4-1.2,0.4-1.6-0.1c-0.4-0.5-0.4-1.2,0.1-1.6
		C439.8,324.6,440.5,324.7,441,325.1z"/>
	<path class="st0" d="M449,335.9c-0.5,0.4-1.2,0.4-1.6-0.1c-0.4-0.5-0.4-1.2,0.1-1.6c0.5-0.4,1.2-0.4,1.6,0.1
		C449.5,334.7,449.5,335.5,449,335.9"/>
	<path class="st1" d="M449,335.9c-0.5,0.4-1.2,0.4-1.6-0.1c-0.4-0.5-0.4-1.2,0.1-1.6c0.5-0.4,1.2-0.4,1.6,0.1
		C449.5,334.7,449.5,335.5,449,335.9z"/>
	<path class="st0" d="M446.3,332.8c-0.5,0.4-1.2,0.4-1.6-0.1c-0.4-0.5-0.4-1.2,0.1-1.6c0.5-0.4,1.2-0.4,1.6,0.1
		C446.8,331.6,446.7,332.4,446.3,332.8"/>
	<path class="st1" d="M446.3,332.8c-0.5,0.4-1.2,0.4-1.6-0.1c-0.4-0.5-0.4-1.2,0.1-1.6c0.5-0.4,1.2-0.4,1.6,0.1
		C446.8,331.6,446.7,332.4,446.3,332.8z"/>
	<path class="st0" d="M443.6,329.8c-0.5,0.4-1.2,0.4-1.6-0.1c-0.4-0.5-0.4-1.2,0.1-1.6c0.5-0.4,1.2-0.4,1.6,0.1
		C444.1,328.6,444.1,329.3,443.6,329.8"/>
	<path class="st1" d="M443.6,329.8c-0.5,0.4-1.2,0.4-1.6-0.1c-0.4-0.5-0.4-1.2,0.1-1.6c0.5-0.4,1.2-0.4,1.6,0.1
		C444.1,328.6,444.1,329.3,443.6,329.8z"/>
	<path class="st0" d="M305.1,320.8c-0.1,0.6,0.4,1.2,1,1.2c0.6,0.1,1.2-0.4,1.2-1c0.1-0.6-0.4-1.2-1-1.2
		C305.7,319.7,305.2,320.1,305.1,320.8"/>
	<path class="st1" d="M305.1,320.8c-0.1,0.6,0.4,1.2,1,1.2c0.6,0.1,1.2-0.4,1.2-1c0.1-0.6-0.4-1.2-1-1.2
		C305.7,319.7,305.2,320.1,305.1,320.8z"/>
	<path class="st0" d="M304.4,324.7c-0.1,0.6,0.4,1.2,1,1.2c0.6,0.1,1.2-0.4,1.2-1c0.1-0.6-0.4-1.2-1-1.2
		C305,323.6,304.4,324.1,304.4,324.7"/>
	
		<ellipse transform="matrix(9.473140e-002 -0.9955 0.9955 9.473140e-002 -46.7702 598.175)" class="st1" cx="305.5" cy="324.8" rx="1.1" ry="1.1"/>
	<path class="st0" d="M304.5,328.5c-0.1,0.6,0.4,1.2,1,1.2c0.6,0.1,1.2-0.4,1.2-1c0.1-0.6-0.4-1.2-1-1.2
		C305.1,327.4,304.6,327.9,304.5,328.5"/>
	
		<ellipse transform="matrix(9.473140e-002 -0.9955 0.9955 9.473140e-002 -50.4446 601.789)" class="st1" cx="305.7" cy="328.6" rx="1.1" ry="1.1"/>
	<path class="st0" d="M306,332c-0.1,0.6,0.4,1.2,1,1.2c0.6,0.1,1.2-0.4,1.2-1c0.1-0.6-0.4-1.2-1-1.2C306.6,331,306,331.4,306,332"/>
	<path class="st1" d="M306,332c-0.1,0.6,0.4,1.2,1,1.2c0.6,0.1,1.2-0.4,1.2-1c0.1-0.6-0.4-1.2-1-1.2C306.6,331,306,331.4,306,332z"
		/>
	<path class="st0" d="M311.1,316.4c-0.1,0.6,0.4,1.2,1,1.2c0.6,0.1,1.2-0.4,1.2-1c0.1-0.6-0.4-1.2-1-1.2
		C311.7,315.3,311.1,315.8,311.1,316.4"/>
	<path class="st1" d="M311.1,316.4c-0.1,0.6,0.4,1.2,1,1.2c0.6,0.1,1.2-0.4,1.2-1c0.1-0.6-0.4-1.2-1-1.2
		C311.7,315.3,311.1,315.8,311.1,316.4z"/>
	<path class="st0" d="M307.5,317.9c-0.1,0.6,0.4,1.2,1,1.2c0.6,0.1,1.2-0.4,1.2-1c0.1-0.6-0.4-1.2-1-1.2
		C308.1,316.8,307.5,317.2,307.5,317.9"/>
	
		<ellipse transform="matrix(9.528421e-002 -0.9955 0.9955 9.528421e-002 -37.3114 594.8684)" class="st1" cx="308.6" cy="318" rx="1.1" ry="1.1"/>
	<path class="st0" d="M315,316.1c-0.1,0.6,0.4,1.2,1,1.2c0.6,0.1,1.2-0.4,1.2-1c0.1-0.6-0.4-1.2-1-1.2
		C315.6,315,315,315.5,315,316.1"/>
	
		<ellipse transform="matrix(9.359259e-002 -0.9956 0.9956 9.359259e-002 -28.2985 601.3081)" class="st1" cx="316.1" cy="316.2" rx="1.1" ry="1.1"/>
	<path class="st0" d="M318.9,316.4c-0.1,0.6,0.4,1.2,1,1.2c0.6,0.1,1.2-0.4,1.2-1c0.1-0.6-0.4-1.2-1-1.2
		C319.5,315.3,318.9,315.8,318.9,316.4"/>
	<path class="st1" d="M318.9,316.4c-0.1,0.6,0.4,1.2,1,1.2c0.6,0.1,1.2-0.4,1.2-1c0.1-0.6-0.4-1.2-1-1.2
		C319.5,315.3,318.9,315.8,318.9,316.4z"/>
	<path class="st0" d="M322.7,317.8c-0.1,0.7,0.4,1.2,1,1.3c0.6,0.1,1.2-0.4,1.2-1.1c0.1-0.6-0.4-1.2-1-1.3
		C323.4,316.6,322.8,317.1,322.7,317.8"/>
	<path class="st1" d="M322.7,317.8c-0.1,0.7,0.4,1.2,1,1.3c0.6,0.1,1.2-0.4,1.2-1.1c0.1-0.6-0.4-1.2-1-1.3
		C323.4,316.6,322.8,317.1,322.7,317.8z"/>
	<path class="st0" d="M325.9,320.4c-0.1,0.6,0.4,1.2,1,1.2c0.6,0.1,1.2-0.4,1.2-1c0.1-0.6-0.4-1.2-1-1.2
		C326.5,319.4,326,319.8,325.9,320.4"/>
	<path class="st1" d="M325.9,320.4c-0.1,0.6,0.4,1.2,1,1.2c0.6,0.1,1.2-0.4,1.2-1c0.1-0.6-0.4-1.2-1-1.2
		C326.5,319.4,326,319.8,325.9,320.4z"/>
	<path class="st0" d="M309.2,334.9c0.3,0.5,1,0.7,1.6,0.4s0.7-1,0.4-1.6c-0.3-0.5-1-0.7-1.6-0.4C309,333.7,308.9,334.4,309.2,334.9"
		/>
	<path class="st1" d="M309.2,334.9c0.3,0.5,1,0.7,1.6,0.4s0.7-1,0.4-1.6c-0.3-0.5-1-0.7-1.6-0.4C309,333.7,308.9,334.4,309.2,334.9z
		"/>
	<path class="st0" d="M313.4,336.1c0.5,0.3,1.2,0.1,1.6-0.4c0.3-0.5,0.1-1.2-0.4-1.6c-0.5-0.3-1.2-0.1-1.5,0.4
		C312.7,335.1,312.9,335.8,313.4,336.1"/>
	<path class="st1" d="M313.4,336.1c0.5,0.3,1.2,0.1,1.6-0.4c0.3-0.5,0.1-1.2-0.4-1.6c-0.5-0.3-1.2-0.1-1.5,0.4
		C312.7,335.1,312.9,335.8,313.4,336.1z"/>
	<path class="st0" d="M317.4,336.2c0.6,0.3,1.3,0,1.5-0.6c0.3-0.6,0-1.2-0.6-1.5c-0.6-0.3-1.2,0-1.5,0.6
		C316.5,335.2,316.8,335.9,317.4,336.2"/>
	<path class="st1" d="M317.4,336.2c0.6,0.3,1.3,0,1.5-0.6c0.3-0.6,0-1.2-0.6-1.5c-0.6-0.3-1.2,0-1.5,0.6
		C316.5,335.2,316.8,335.9,317.4,336.2z"/>
	<path class="st0" d="M321.3,335.6c0.6,0.2,1.2-0.2,1.4-0.8c0.2-0.6-0.2-1.2-0.8-1.4c-0.6-0.2-1.2,0.1-1.4,0.7
		C320.4,334.8,320.7,335.4,321.3,335.6"/>
	
		<ellipse transform="matrix(0.2969 -0.9549 0.9549 0.2969 -93.3048 542.3414)" class="st1" cx="321.6" cy="334.5" rx="1.1" ry="1.1"/>
	<path class="st0" d="M325.1,334.2c0.6,0,1.1-0.5,1.2-1.1c0-0.6-0.5-1.1-1.1-1.2c-0.6,0-1.2,0.5-1.2,1.1
		C324,333.7,324.5,334.2,325.1,334.2"/>
	<path class="st1" d="M325.1,334.2c0.6,0,1.1-0.5,1.2-1.1c0-0.6-0.5-1.1-1.1-1.2c-0.6,0-1.2,0.5-1.2,1.1
		C324,333.7,324.5,334.2,325.1,334.2z"/>
	<path class="st0" d="M328.3,331.5c0.5-0.3,0.7-1,0.4-1.6c-0.3-0.5-1-0.7-1.6-0.4c-0.5,0.3-0.7,1-0.4,1.6
		C327.1,331.6,327.8,331.8,328.3,331.5"/>
	<path class="st1" d="M328.3,331.5c0.5-0.3,0.7-1,0.4-1.6c-0.3-0.5-1-0.7-1.6-0.4c-0.5,0.3-0.7,1-0.4,1.6
		C327.1,331.6,327.8,331.8,328.3,331.5z"/>
	<path class="st0" d="M346.4,326.4c-0.1,0.6,0.4,1.2,1,1.2c0.6,0.1,1.2-0.4,1.2-1c0.1-0.6-0.4-1.2-1-1.2
		C347,325.4,346.4,325.8,346.4,326.4"/>
	
		<ellipse transform="matrix(9.473140e-002 -0.9955 0.9955 9.473140e-002 -10.4875 641.5732)" class="st1" cx="347.5" cy="326.6" rx="1.1" ry="1.1"/>
	<path class="st0" d="M347.5,329.9c-0.1,0.6,0.4,1.2,1,1.2c0.6,0.1,1.2-0.4,1.2-1c0.1-0.6-0.4-1.2-1-1.2
		C348.1,328.8,347.6,329.3,347.5,329.9"/>
	
		<ellipse transform="matrix(9.473140e-002 -0.9955 0.9955 9.473140e-002 -12.8971 645.8069)" class="st1" cx="348.6" cy="330" rx="1.1" ry="1.1"/>
	<path class="st0" d="M350,332.7c-0.1,0.6,0.4,1.2,1,1.2c0.6,0.1,1.2-0.4,1.2-1c0.1-0.6-0.4-1.2-1-1.2
		C350.7,331.6,350.1,332,350,332.7"/>
	<path class="st1" d="M350,332.7c-0.1,0.6,0.4,1.2,1,1.2c0.6,0.1,1.2-0.4,1.2-1c0.1-0.6-0.4-1.2-1-1.2
		C350.7,331.6,350.1,332,350,332.7z"/>
	<path class="st0" d="M353.6,334c-0.1,0.6,0.4,1.2,1,1.2c0.6,0.1,1.2-0.4,1.2-1c0.1-0.6-0.4-1.2-1-1.2
		C354.2,333,353.6,333.4,353.6,334"/>
	<path class="st1" d="M353.6,334c-0.1,0.6,0.4,1.2,1,1.2c0.6,0.1,1.2-0.4,1.2-1c0.1-0.6-0.4-1.2-1-1.2
		C354.2,333,353.6,333.4,353.6,334z"/>
	<path class="st0" d="M346.2,322.7c-0.1,0.6,0.4,1.2,1,1.2c0.6,0.1,1.2-0.4,1.2-1c0.1-0.6-0.4-1.2-1-1.2
		C346.8,321.6,346.2,322,346.2,322.7"/>
	
		<ellipse transform="matrix(9.386759e-002 -0.9956 0.9956 9.386759e-002 -6.651 638.2178)" class="st1" cx="347.3" cy="322.8" rx="1.1" ry="1.1"/>
	<path class="st0" d="M346.5,318.8c-0.1,0.6,0.4,1.2,1,1.2c0.6,0.1,1.2-0.4,1.2-1c0.1-0.6-0.4-1.2-1-1.2
		C347.1,317.7,346.5,318.2,346.5,318.8"/>
	<path class="st1" d="M346.5,318.8c-0.1,0.6,0.4,1.2,1,1.2c0.6,0.1,1.2-0.4,1.2-1c0.1-0.6-0.4-1.2-1-1.2
		C347.1,317.7,346.5,318.2,346.5,318.8z"/>
	<path class="st0" d="M347.6,315.1c-0.1,0.6,0.4,1.2,1,1.2c0.6,0.1,1.2-0.4,1.2-1c0.1-0.6-0.4-1.2-1-1.2
		C348.2,314,347.7,314.5,347.6,315.1"/>
	<path class="st1" d="M347.6,315.1c-0.1,0.6,0.4,1.2,1,1.2c0.6,0.1,1.2-0.4,1.2-1c0.1-0.6-0.4-1.2-1-1.2
		C348.2,314,347.7,314.5,347.6,315.1z"/>
	<path class="st0" d="M349.8,311.8c-0.1,0.6,0.4,1.2,1,1.2c0.6,0.1,1.2-0.4,1.2-1c0.1-0.6-0.4-1.2-1-1.2
		C350.4,310.8,349.9,311.2,349.8,311.8"/>
	<path class="st1" d="M349.8,311.8c-0.1,0.6,0.4,1.2,1,1.2c0.6,0.1,1.2-0.4,1.2-1c0.1-0.6-0.4-1.2-1-1.2
		C350.4,310.8,349.9,311.2,349.8,311.8z"/>
	<path class="st0" d="M353.3,310.2c-0.1,0.6,0.4,1.2,1,1.2c0.6,0.1,1.2-0.4,1.2-1c0.1-0.6-0.4-1.2-1-1.2
		C353.9,309.1,353.3,309.6,353.3,310.2"/>
	<path class="st1" d="M353.3,310.2c-0.1,0.6,0.4,1.2,1,1.2c0.6,0.1,1.2-0.4,1.2-1c0.1-0.6-0.4-1.2-1-1.2
		C353.9,309.1,353.3,309.6,353.3,310.2z"/>
	<path class="st0" d="M357.6,335.1c0.3,0.5,1,0.7,1.6,0.4c0.5-0.3,0.7-1,0.4-1.6c-0.3-0.5-1-0.7-1.6-0.4
		C357.4,333.8,357.3,334.5,357.6,335.1"/>
	<path class="st1" d="M357.6,335.1c0.3,0.5,1,0.7,1.6,0.4c0.5-0.3,0.7-1,0.4-1.6c-0.3-0.5-1-0.7-1.6-0.4
		C357.4,333.8,357.3,334.5,357.6,335.1z"/>
	<path class="st0" d="M361.8,335.7c0.5,0.3,1.2,0.1,1.6-0.4c0.3-0.5,0.1-1.2-0.4-1.6c-0.5-0.3-1.2-0.1-1.6,0.4
		C361.1,334.7,361.3,335.4,361.8,335.7"/>
	<ellipse transform="matrix(0.507 -0.862 0.862 0.507 -109.8301 477.3861)" class="st1" cx="362.4" cy="334.7" rx="1.1" ry="1.1"/>
	<path class="st0" d="M365.8,335.6c0.6,0.3,1.2,0,1.5-0.6c0.3-0.6,0-1.2-0.6-1.5c-0.6-0.3-1.2,0-1.5,0.6
		C365,334.6,365.2,335.3,365.8,335.6"/>
	
		<ellipse transform="matrix(0.4068 -0.9135 0.9135 0.4068 -88.3032 533.0662)" class="st1" cx="366.3" cy="334.5" rx="1.1" ry="1.1"/>
	<path class="st0" d="M369.7,334.9c0.6,0.2,1.2-0.2,1.4-0.8c0.2-0.6-0.2-1.2-0.8-1.4c-0.6-0.2-1.2,0.1-1.4,0.7
		C368.7,334.1,369.1,334.7,369.7,334.9"/>
	<path class="st1" d="M369.7,334.9c0.6,0.2,1.2-0.2,1.4-0.8c0.2-0.6-0.2-1.2-0.8-1.4c-0.6-0.2-1.2,0.1-1.4,0.7
		C368.7,334.1,369.1,334.7,369.7,334.9z"/>
	<path class="st0" d="M373.4,333.5c0.6,0,1.2-0.5,1.2-1.1c0-0.6-0.5-1.1-1.1-1.2c-0.6,0-1.1,0.5-1.2,1.1
		C372.3,333,372.8,333.5,373.4,333.5"/>
	
		<ellipse transform="matrix(2.491527e-002 -0.9997 0.9997 2.491527e-002 31.9049 697.4543)" class="st1" cx="373.5" cy="332.4" rx="1.1" ry="1.1"/>
	<path class="st0" d="M376.7,330.7c0.5-0.3,0.7-1,0.4-1.6c-0.3-0.5-1-0.7-1.6-0.4c-0.5,0.3-0.7,1-0.4,1.6
		C375.5,330.9,376.2,331,376.7,330.7"/>
	<path class="st1" d="M376.7,330.7c0.5-0.3,0.7-1,0.4-1.6c-0.3-0.5-1-0.7-1.6-0.4c-0.5,0.3-0.7,1-0.4,1.6
		C375.5,330.9,376.2,331,376.7,330.7z"/>
	<path class="st0" d="M357.3,309.4c0.3-0.5,1-0.7,1.6-0.4c0.5,0.3,0.7,1,0.4,1.6c-0.3,0.5-1,0.7-1.6,0.4
		C357.1,310.6,356.9,309.9,357.3,309.4"/>
	<path class="st1" d="M357.3,309.4c0.3-0.5,1-0.7,1.6-0.4c0.5,0.3,0.7,1,0.4,1.6c-0.3,0.5-1,0.7-1.6,0.4
		C357.1,310.6,356.9,309.9,357.3,309.4z"/>
	<path class="st0" d="M361.5,308.8c0.5-0.3,1.2-0.1,1.6,0.4c0.3,0.5,0.1,1.2-0.4,1.6c-0.5,0.3-1.2,0.1-1.6-0.4
		C360.7,309.8,360.9,309.1,361.5,308.8"/>
	
		<ellipse transform="matrix(0.8629 -0.5054 0.5054 0.8629 -106.9135 225.4734)" class="st1" cx="362" cy="309.8" rx="1.1" ry="1.1"/>
	<path class="st0" d="M365.5,308.9c0.6-0.3,1.3,0,1.5,0.6c0.3,0.6,0,1.2-0.6,1.5c-0.6,0.3-1.2,0-1.5-0.6
		C364.6,309.8,364.9,309.2,365.5,308.9"/>
	
		<ellipse transform="matrix(0.9129 -0.4082 0.4082 0.9129 -94.6377 176.3595)" class="st1" cx="365.9" cy="309.9" rx="1.1" ry="1.1"/>
	<path class="st0" d="M369.3,309.6c0.6-0.2,1.2,0.2,1.4,0.7c0.2,0.6-0.2,1.2-0.8,1.4c-0.6,0.2-1.2-0.1-1.4-0.7
		C368.4,310.4,368.7,309.8,369.3,309.6"/>
	<path class="st1" d="M369.3,309.6c0.6-0.2,1.2,0.2,1.4,0.7c0.2,0.6-0.2,1.2-0.8,1.4c-0.6,0.2-1.2-0.1-1.4-0.7
		C368.4,310.4,368.7,309.8,369.3,309.6z"/>
	<path class="st0" d="M373.1,310.9c0.6,0,1.2,0.5,1.2,1.1c0,0.6-0.5,1.1-1.1,1.2c-0.6,0-1.1-0.5-1.2-1.1
		C372,311.5,372.5,311,373.1,310.9"/>
	
		<ellipse transform="matrix(0.9997 -2.464953e-002 2.464953e-002 0.9997 -7.5794 9.2922)" class="st1" cx="373.1" cy="312.1" rx="1.1" ry="1.1"/>
	<path class="st0" d="M376.3,313.7c0.5,0.3,0.7,1,0.4,1.6c-0.3,0.5-1,0.7-1.6,0.4c-0.5-0.3-0.7-1-0.4-1.6
		C375.1,313.6,375.8,313.4,376.3,313.7"/>
	<path class="st1" d="M376.3,313.7c0.5,0.3,0.7,1,0.4,1.6c-0.3,0.5-1,0.7-1.6,0.4c-0.5-0.3-0.7-1-0.4-1.6
		C375.1,313.6,375.8,313.4,376.3,313.7z"/>
	<path class="st0" d="M608.2,336.2c0.6,0,1.1-0.5,1.1-1.1c0-0.6-0.5-1.1-1.1-1.1c-0.6,0-1.1,0.5-1.1,1.1
		C607,335.7,607.5,336.2,608.2,336.2"/>
	<circle class="st1" cx="608.2" cy="335" r="1.1"/>
	<path class="st0" d="M608.2,332c0.6,0,1.1-0.5,1.1-1.1c0-0.6-0.5-1.1-1.1-1.1c-0.6,0-1.1,0.5-1.1,1.1
		C607,331.5,607.5,332,608.2,332"/>
	<circle class="st1" cx="608.2" cy="330.9" r="1.1"/>
	<path class="st0" d="M608.2,327.9c0.6,0,1.1-0.5,1.1-1.1c0-0.6-0.5-1.1-1.1-1.1c-0.6,0-1.1,0.5-1.1,1.1
		C607,327.4,607.5,327.9,608.2,327.9"/>
	<circle class="st1" cx="608.2" cy="326.8" r="1.1"/>
	<path class="st0" d="M607.3,323.5c0.5,0.4,1.2,0.4,1.6-0.1c0.4-0.5,0.4-1.2-0.1-1.6c-0.5-0.4-1.2-0.4-1.6,0.1
		C606.8,322.4,606.9,323.1,607.3,323.5"/>
	<path class="st1" d="M607.3,323.5c0.5,0.4,1.2,0.4,1.6-0.1c0.4-0.5,0.4-1.2-0.1-1.6c-0.5-0.4-1.2-0.4-1.6,0.1
		C606.8,322.4,606.9,323.1,607.3,323.5z"/>
	<path class="st0" d="M597.4,309.6c0.4,0.5,0.4,1.2-0.1,1.6c-0.5,0.4-1.2,0.4-1.6-0.1c-0.4-0.5-0.4-1.2,0.1-1.6
		C596.3,309.1,597,309.1,597.4,309.6"/>
	<path class="st1" d="M597.4,309.6c0.4,0.5,0.4,1.2-0.1,1.6c-0.5,0.4-1.2,0.4-1.6-0.1c-0.4-0.5-0.4-1.2,0.1-1.6
		C596.3,309.1,597,309.1,597.4,309.6z"/>
	<path class="st0" d="M605.9,320.4c-0.5,0.4-1.2,0.4-1.6-0.1c-0.4-0.5-0.4-1.2,0.1-1.6c0.5-0.4,1.2-0.4,1.6,0.1
		C606.4,319.3,606.4,320,605.9,320.4"/>
	<path class="st1" d="M605.9,320.4c-0.5,0.4-1.2,0.4-1.6-0.1c-0.4-0.5-0.4-1.2,0.1-1.6c0.5-0.4,1.2-0.4,1.6,0.1
		C606.4,319.3,606.4,320,605.9,320.4z"/>
	<path class="st0" d="M603.1,317.4c-0.5,0.4-1.2,0.4-1.6-0.1c-0.4-0.5-0.4-1.2,0.1-1.6c0.5-0.4,1.2-0.4,1.6,0.1
		C603.6,316.2,603.5,316.9,603.1,317.4"/>
	<path class="st1" d="M603.1,317.4c-0.5,0.4-1.2,0.4-1.6-0.1c-0.4-0.5-0.4-1.2,0.1-1.6c0.5-0.4,1.2-0.4,1.6,0.1
		C603.6,316.2,603.5,316.9,603.1,317.4z"/>
	<path class="st0" d="M600.2,314.3c-0.5,0.4-1.2,0.4-1.6-0.1c-0.4-0.5-0.4-1.2,0.1-1.6c0.5-0.4,1.2-0.4,1.6,0.1
		C600.7,313.2,600.7,313.9,600.2,314.3"/>
	<path class="st1" d="M600.2,314.3c-0.5,0.4-1.2,0.4-1.6-0.1c-0.4-0.5-0.4-1.2,0.1-1.6c0.5-0.4,1.2-0.4,1.6,0.1
		C600.7,313.2,600.7,313.9,600.2,314.3z"/>
	<path class="st0" d="M618.8,309.6c-0.4,0.5-0.4,1.2,0.1,1.6c0.5,0.4,1.2,0.4,1.6-0.1c0.4-0.5,0.4-1.2-0.1-1.6
		C619.9,309.1,619.2,309.1,618.8,309.6"/>
	<path class="st1" d="M618.8,309.6c-0.4,0.5-0.4,1.2,0.1,1.6c0.5,0.4,1.2,0.4,1.6-0.1c0.4-0.5,0.4-1.2-0.1-1.6
		C619.9,309.1,619.2,309.1,618.8,309.6z"/>
	<path class="st0" d="M610.3,320.4c0.5,0.4,1.2,0.4,1.6-0.1c0.4-0.5,0.4-1.2-0.1-1.6c-0.5-0.4-1.2-0.4-1.6,0.1
		C609.8,319.3,609.8,320,610.3,320.4"/>
	<path class="st1" d="M610.3,320.4c0.5,0.4,1.2,0.4,1.6-0.1c0.4-0.5,0.4-1.2-0.1-1.6c-0.5-0.4-1.2-0.4-1.6,0.1
		C609.8,319.3,609.8,320,610.3,320.4z"/>
	<path class="st0" d="M613.1,317.4c0.5,0.4,1.2,0.4,1.6-0.1c0.4-0.5,0.4-1.2-0.1-1.6c-0.5-0.4-1.2-0.4-1.6,0.1
		C612.6,316.2,612.7,316.9,613.1,317.4"/>
	<path class="st1" d="M613.1,317.4c0.5,0.4,1.2,0.4,1.6-0.1c0.4-0.5,0.4-1.2-0.1-1.6c-0.5-0.4-1.2-0.4-1.6,0.1
		C612.6,316.2,612.7,316.9,613.1,317.4z"/>
	<path class="st0" d="M616,314.3c0.5,0.4,1.2,0.4,1.6-0.1c0.4-0.5,0.4-1.2-0.1-1.6c-0.5-0.4-1.2-0.4-1.6,0.1
		C615.5,313.2,615.5,313.9,616,314.3"/>
	<path class="st1" d="M616,314.3c0.5,0.4,1.2,0.4,1.6-0.1c0.4-0.5,0.4-1.2-0.1-1.6c-0.5-0.4-1.2-0.4-1.6,0.1
		C615.5,313.2,615.5,313.9,616,314.3z"/>
	<path class="st0" d="M450.6,314.8c-0.2-0.6-0.8-1-1.4-0.8c-0.6,0.1-1,0.8-0.8,1.4c0.1,0.6,0.8,1,1.4,0.8
		C450.3,316,450.7,315.4,450.6,314.8"/>
	<path class="st1" d="M450.6,314.8c-0.2-0.6-0.8-1-1.4-0.8c-0.6,0.1-1,0.8-0.8,1.4c0.1,0.6,0.8,1,1.4,0.8
		C450.3,316,450.7,315.4,450.6,314.8z"/>
	<path class="st0" d="M450.5,318.9c-0.2-0.6-0.8-1-1.4-0.8c-0.6,0.1-1,0.8-0.8,1.4c0.1,0.6,0.8,1,1.4,0.8
		C450.2,320.1,450.6,319.5,450.5,318.9"/>
	<path class="st1" d="M450.5,318.9c-0.2-0.6-0.8-1-1.4-0.8c-0.6,0.1-1,0.8-0.8,1.4c0.1,0.6,0.8,1,1.4,0.8
		C450.2,320.1,450.6,319.5,450.5,318.9z"/>
	<path class="st0" d="M447.7,322c-0.1-0.6-0.8-1-1.4-0.8c-0.6,0.1-1,0.8-0.8,1.4c0.1,0.6,0.8,1,1.4,0.8
		C447.5,323.2,447.9,322.6,447.7,322"/>
	<path class="st1" d="M447.7,322c-0.1-0.6-0.8-1-1.4-0.8c-0.6,0.1-1,0.8-0.8,1.4c0.1,0.6,0.8,1,1.4,0.8
		C447.5,323.2,447.9,322.6,447.7,322z"/>
	<path class="st0" d="M397.3,314.4c0.3,0.5,1,0.8,1.5,0.4c0.5-0.3,0.7-1,0.4-1.5c-0.3-0.5-1-0.7-1.5-0.4
		C397.2,313.1,397,313.8,397.3,314.4"/>
	<ellipse transform="matrix(0.875 -0.4842 0.4842 0.875 -102.149 232.0874)" class="st1" cx="398.3" cy="313.8" rx="1.1" ry="1.1"/>
	<path class="st0" d="M410.5,336c0.5-0.3,0.7-1,0.4-1.5c-0.3-0.5-1-0.7-1.5-0.4c-0.5,0.3-0.7,1-0.4,1.5
		C409.3,336.1,410,336.3,410.5,336"/>
	<ellipse transform="matrix(0.8749 -0.4843 0.4843 0.8749 -110.9607 240.429)" class="st1" cx="410" cy="335" rx="1.1" ry="1.1"/>
	<path class="st0" d="M408.5,332.5c0.5-0.3,0.7-1,0.4-1.5c-0.3-0.6-1-0.7-1.5-0.4c-0.5,0.3-0.7,1-0.4,1.5
		C407.3,332.6,408,332.8,408.5,332.5"/>
	<path class="st1" d="M408.5,332.5c0.5-0.3,0.7-1,0.4-1.5c-0.3-0.6-1-0.7-1.5-0.4c-0.5,0.3-0.7,1-0.4,1.5
		C407.3,332.6,408,332.8,408.5,332.5z"/>
	<path class="st0" d="M406.6,328.9c0.5-0.3,0.7-1,0.4-1.5c-0.3-0.6-1-0.7-1.5-0.4c-0.6,0.3-0.8,1-0.4,1.5
		C405.4,329,406.1,329.3,406.6,328.9"/>
	<path class="st1" d="M406.6,328.9c0.5-0.3,0.7-1,0.4-1.5c-0.3-0.6-1-0.7-1.5-0.4c-0.6,0.3-0.8,1-0.4,1.5
		C405.4,329,406.1,329.3,406.6,328.9z"/>
	<path class="st0" d="M404.6,325.4c0.5-0.3,0.7-1,0.4-1.5c-0.3-0.5-1-0.7-1.5-0.4c-0.5,0.3-0.7,1-0.4,1.5
		C403.4,325.5,404.1,325.7,404.6,325.4"/>
	
		<ellipse transform="matrix(0.8747 -0.4846 0.4846 0.8747 -106.5854 236.4698)" class="st1" cx="404.1" cy="324.4" rx="1.1" ry="1.1"/>
	<path class="st0" d="M402.7,321.9c0.5-0.3,0.7-1,0.4-1.5c-0.3-0.6-1-0.7-1.5-0.4c-0.5,0.3-0.7,1-0.4,1.5
		C401.5,322,402.2,322.2,402.7,321.9"/>
	
		<ellipse transform="matrix(0.8742 -0.4855 0.4855 0.8742 -105.2188 235.6295)" class="st1" cx="402.2" cy="320.9" rx="1.1" ry="1.1"/>
	<path class="st0" d="M400.8,318.4c0.5-0.3,0.7-1,0.4-1.5c-0.3-0.6-1-0.7-1.5-0.4c-0.5,0.3-0.7,1-0.4,1.5
		C399.5,318.5,400.2,318.7,400.8,318.4"/>
	
		<ellipse transform="matrix(0.8749 -0.4843 0.4843 0.8749 -103.6291 233.5033)" class="st1" cx="400.2" cy="317.4" rx="1.1" ry="1.1"/>
	<path class="st0" d="M395.3,310.8c0.3,0.5,1,0.7,1.5,0.4c0.5-0.3,0.7-1,0.4-1.5c-0.3-0.5-1-0.7-1.5-0.4
		C395.2,309.6,395,310.3,395.3,310.8"/>
	
		<ellipse transform="matrix(0.8744 -0.4851 0.4851 0.8744 -100.7696 231.2167)" class="st1" cx="396.3" cy="310.3" rx="1.1" ry="1.1"/>
	<path class="st0" d="M228.4,327.9c0,0.6,0.5,1.1,1.1,1.1c0.6,0,1.1-0.5,1.1-1.1c0-0.6-0.5-1.1-1.1-1.1
		C229,326.8,228.4,327.3,228.4,327.9"/>
	<ellipse class="st1" cx="229.6" cy="328" rx="1.1" ry="1.1"/>
	<path class="st0" d="M232.6,327.9c0,0.6,0.5,1.1,1.1,1.1c0.6,0,1.1-0.5,1.1-1.1c0-0.6-0.5-1.1-1.1-1.1
		C233.1,326.8,232.6,327.3,232.6,327.9"/>
	<path class="st1" d="M232.6,327.9c0,0.6,0.5,1.1,1.1,1.1c0.6,0,1.1-0.5,1.1-1.1c0-0.6-0.5-1.1-1.1-1.1
		C233.1,326.8,232.6,327.3,232.6,327.9z"/>
	<path class="st0" d="M234.2,314.4c-0.3,0.5-1,0.8-1.5,0.4c-0.5-0.3-0.7-1-0.4-1.5c0.3-0.5,1-0.7,1.5-0.4
		C234.3,313.1,234.5,313.8,234.2,314.4"/>
	<path class="st1" d="M234.2,314.4c-0.3,0.5-1,0.8-1.5,0.4c-0.5-0.3-0.7-1-0.4-1.5c0.3-0.5,1-0.7,1.5-0.4
		C234.3,313.1,234.5,313.8,234.2,314.4z"/>
	<path class="st0" d="M221,336c-0.5-0.3-0.7-1-0.4-1.5c0.3-0.5,1-0.7,1.5-0.4c0.5,0.3,0.7,1,0.4,1.5
		C222.2,336.1,221.6,336.3,221,336"/>
	<ellipse transform="matrix(0.4845 -0.8748 0.8748 0.4845 -178.8615 366.528)" class="st1" cx="221.5" cy="335" rx="1.1" ry="1.1"/>
	<path class="st0" d="M223,332.5c-0.5-0.3-0.7-1-0.4-1.5c0.3-0.5,1-0.7,1.5-0.4s0.7,1,0.4,1.5C224.2,332.6,223.5,332.8,223,332.5"/>
	<path class="st1" d="M223,332.5c-0.5-0.3-0.7-1-0.4-1.5c0.3-0.5,1-0.7,1.5-0.4s0.7,1,0.4,1.5C224.2,332.6,223.5,332.8,223,332.5z"
		/>
	<path class="st0" d="M224.9,328.9c-0.5-0.3-0.8-1-0.4-1.5c0.3-0.6,1-0.7,1.5-0.4c0.5,0.3,0.7,1,0.4,1.5
		C226.1,329,225.5,329.3,224.9,328.9"/>
	<ellipse transform="matrix(0.4843 -0.8749 0.8749 0.4843 -170.658 366.3733)" class="st1" cx="225.5" cy="328" rx="1.1" ry="1.1"/>
	<path class="st0" d="M226.9,325.4c-0.5-0.3-0.7-1-0.4-1.5c0.3-0.5,1-0.7,1.5-0.4c0.6,0.3,0.7,1,0.4,1.5
		C228.1,325.5,227.4,325.7,226.9,325.4"/>
	
		<ellipse transform="matrix(0.4843 -0.8749 0.8749 0.4843 -166.5431 366.2463)" class="st1" cx="227.4" cy="324.4" rx="1.1" ry="1.1"/>
	<path class="st0" d="M228.8,321.9c-0.5-0.3-0.7-1-0.4-1.5c0.3-0.6,1-0.7,1.5-0.4c0.6,0.3,0.7,1,0.4,1.5
		C230,322,229.3,322.2,228.8,321.9"/>
	
		<ellipse transform="matrix(0.4843 -0.8749 0.8749 0.4843 -162.4877 366.1225)" class="st1" cx="229.3" cy="320.9" rx="1.1" ry="1.1"/>
	<path class="st0" d="M230.7,318.4c-0.5-0.3-0.7-1-0.4-1.5c0.3-0.6,1-0.7,1.5-0.4c0.6,0.3,0.7,1,0.4,1.5
		C232,318.5,231.3,318.7,230.7,318.4"/>
	
		<ellipse transform="matrix(0.4851 -0.8745 0.8745 0.4851 -158.4297 365.6633)" class="st1" cx="231.3" cy="317.4" rx="1.1" ry="1.1"/>
	<path class="st0" d="M236.2,310.8c-0.3,0.5-1,0.8-1.5,0.4c-0.5-0.3-0.7-1-0.4-1.5c0.3-0.5,1-0.7,1.5-0.4
		C236.3,309.6,236.5,310.3,236.2,310.8"/>
	<path class="st1" d="M236.2,310.8c-0.3,0.5-1,0.8-1.5,0.4c-0.5-0.3-0.7-1-0.4-1.5c0.3-0.5,1-0.7,1.5-0.4
		C236.3,309.6,236.5,310.3,236.2,310.8z"/>
	<path class="st0" d="M533.7,332.7c0.5-0.4,0.5-1.1,0.1-1.6c-0.4-0.5-1.1-0.5-1.6-0.1c-0.5,0.4-0.5,1.1-0.1,1.6
		C532.5,333.1,533.2,333.1,533.7,332.7"/>
	<ellipse transform="matrix(0.7523 -0.6588 0.6588 0.7523 -86.6292 433.3039)" class="st1" cx="533" cy="331.9" rx="1.1" ry="1.1"/>
	<path class="st0" d="M531,329.7c0.5-0.4,0.5-1.1,0.1-1.6c-0.4-0.5-1.1-0.5-1.6-0.1c-0.5,0.4-0.5,1.1-0.1,1.6
		C529.8,330,530.5,330.1,531,329.7"/>
	<path class="st1" d="M531,329.7c0.5-0.4,0.5-1.1,0.1-1.6c-0.4-0.5-1.1-0.5-1.6-0.1c-0.5,0.4-0.5,1.1-0.1,1.6
		C529.8,330,530.5,330.1,531,329.7z"/>
	<path class="st0" d="M528.3,326.6c0.5-0.4,0.5-1.1,0.1-1.6c-0.4-0.5-1.1-0.5-1.6-0.1c-0.5,0.4-0.5,1.1-0.1,1.6
		C527.1,326.9,527.8,327,528.3,326.6"/>
	
		<ellipse transform="matrix(0.7523 -0.6588 0.6588 0.7523 -83.9211 428.1878)" class="st1" cx="527.5" cy="325.7" rx="1.1" ry="1.1"/>
	<path class="st0" d="M525.5,323.5c0.5-0.4,0.5-1.1,0.1-1.6c-0.4-0.5-1.1-0.5-1.6-0.1c-0.5,0.4-0.5,1.1-0.1,1.6
		C524.3,323.8,525,323.9,525.5,323.5"/>
	<path class="st1" d="M525.5,323.5c0.5-0.4,0.5-1.1,0.1-1.6c-0.4-0.5-1.1-0.5-1.6-0.1c-0.5,0.4-0.5,1.1-0.1,1.6
		C524.3,323.8,525,323.9,525.5,323.5z"/>
	<path class="st0" d="M522.8,320.4c0.5-0.4,0.5-1.1,0.1-1.6c-0.4-0.5-1.1-0.5-1.6-0.1c-0.5,0.4-0.5,1.1-0.1,1.6
		C521.6,320.7,522.3,320.8,522.8,320.4"/>
	<path class="st1" d="M522.8,320.4c0.5-0.4,0.5-1.1,0.1-1.6c-0.4-0.5-1.1-0.5-1.6-0.1c-0.5,0.4-0.5,1.1-0.1,1.6
		C521.6,320.7,522.3,320.8,522.8,320.4z"/>
	<path class="st0" d="M537.2,335.2c-0.1,0.6-0.6,1.1-1.3,1c-0.6-0.1-1.1-0.6-1-1.3c0.1-0.6,0.6-1.1,1.3-1
		C536.9,334,537.3,334.5,537.2,335.2"/>
	<path class="st1" d="M537.2,335.2c-0.1,0.6-0.6,1.1-1.3,1c-0.6-0.1-1.1-0.6-1-1.3c0.1-0.6,0.6-1.1,1.3-1
		C536.9,334,537.3,334.5,537.2,335.2z"/>
	<path class="st0" d="M513.5,332c0.6,0,1.1-0.5,1.1-1.1c0-0.6-0.5-1.1-1.1-1.1c-0.6,0-1.1,0.5-1.1,1.1
		C512.4,331.5,512.9,332,513.5,332"/>
	<path class="st1" d="M513.5,332c0.6,0,1.1-0.5,1.1-1.1c0-0.6-0.5-1.1-1.1-1.1c-0.6,0-1.1,0.5-1.1,1.1
		C512.4,331.5,512.9,332,513.5,332z"/>
	<path class="st0" d="M513.5,327.9c0.6,0,1.1-0.5,1.1-1.1c0-0.6-0.5-1.1-1.1-1.1c-0.6,0-1.1,0.5-1.1,1.1
		C512.4,327.4,512.9,327.9,513.5,327.9"/>
	<path class="st1" d="M513.5,327.9c0.6,0,1.1-0.5,1.1-1.1c0-0.6-0.5-1.1-1.1-1.1c-0.6,0-1.1,0.5-1.1,1.1
		C512.4,327.4,512.9,327.9,513.5,327.9z"/>
	<path class="st0" d="M513.5,323.8c0.6,0,1.1-0.5,1.1-1.1c0-0.6-0.5-1.1-1.1-1.1c-0.6,0-1.1,0.5-1.1,1.1
		C512.4,323.3,512.9,323.8,513.5,323.8"/>
	<circle class="st1" cx="513.5" cy="322.7" r="1.1"/>
	<path class="st0" d="M513.5,319.7c0.6,0,1.1-0.5,1.1-1.1c0-0.6-0.5-1.1-1.1-1.1c-0.6,0-1.1,0.5-1.1,1.1
		C512.4,319.2,512.9,319.7,513.5,319.7"/>
	<path class="st1" d="M513.5,319.7c0.6,0,1.1-0.5,1.1-1.1c0-0.6-0.5-1.1-1.1-1.1c-0.6,0-1.1,0.5-1.1,1.1
		C512.4,319.2,512.9,319.7,513.5,319.7z"/>
	<path class="st0" d="M513.5,315.6c0.6,0,1.1-0.5,1.1-1.1s-0.5-1.1-1.1-1.1c-0.6,0-1.1,0.5-1.1,1.1
		C512.4,315.1,512.9,315.6,513.5,315.6"/>
	<circle class="st1" cx="513.5" cy="314.4" r="1.1"/>
	<path class="st0" d="M514.7,335.2c-0.1,0.6-0.6,1.1-1.3,1c-0.6-0.1-1.1-0.6-1-1.3c0.1-0.6,0.6-1.1,1.3-1
		C514.3,334,514.7,334.5,514.7,335.2"/>
	<path class="st1" d="M514.7,335.2c-0.1,0.6-0.6,1.1-1.3,1c-0.6-0.1-1.1-0.6-1-1.3c0.1-0.6,0.6-1.1,1.3-1
		C514.3,334,514.7,334.5,514.7,335.2z"/>
	<path class="st0" d="M512.7,311.1c0.4,0.5,1.1,0.5,1.6,0.1c0.5-0.4,0.5-1.1,0.1-1.6c-0.4-0.5-1.1-0.5-1.6-0.1
		C512.3,309.9,512.3,310.6,512.7,311.1"/>
	<ellipse transform="matrix(0.753 -0.658 0.658 0.753 -77.3549 414.5698)" class="st1" cx="513.5" cy="310.3" rx="1.1" ry="1.1"/>
	<path class="st0" d="M520,317.3c0.5-0.4,0.5-1.1,0.1-1.6c-0.4-0.5-1.1-0.5-1.6-0.1c-0.5,0.4-0.5,1.1-0.1,1.6
		C518.9,317.7,519.6,317.7,520,317.3"/>
	<path class="st1" d="M520,317.3c0.5-0.4,0.5-1.1,0.1-1.6c-0.4-0.5-1.1-0.5-1.6-0.1c-0.5,0.4-0.5,1.1-0.1,1.6
		C518.9,317.7,519.6,317.7,520,317.3z"/>
	<path class="st0" d="M517.3,314.2c0.5-0.4,0.5-1.1,0.1-1.6c-0.4-0.5-1.1-0.5-1.6-0.1c-0.5,0.4-0.5,1.1-0.1,1.6
		C516.1,314.6,516.8,314.6,517.3,314.2"/>
	
		<ellipse transform="matrix(0.7523 -0.6588 0.6588 0.7523 -78.5127 417.918)" class="st1" cx="516.6" cy="313.4" rx="1.1" ry="1.1"/>
	<path class="st0" d="M254.8,310.3c0,0.6,0.5,1.1,1.1,1.1c0.6,0,1.1-0.5,1.1-1.1c0-0.6-0.5-1.1-1.1-1.1
		C255.3,309.2,254.8,309.7,254.8,310.3"/>
	<circle class="st1" cx="256" cy="310.3" r="1.1"/>
	<path class="st0" d="M270.3,325.8c-0.5,0.4-1.2,0.4-1.6-0.1c-0.4-0.5-0.4-1.2,0.1-1.6c0.5-0.4,1.2-0.4,1.6,0.1
		C270.8,324.6,270.8,325.4,270.3,325.8"/>
	<path class="st1" d="M270.3,325.8c-0.5,0.4-1.2,0.4-1.6-0.1c-0.4-0.5-0.4-1.2,0.1-1.6c0.5-0.4,1.2-0.4,1.6,0.1
		C270.8,324.6,270.8,325.4,270.3,325.8z"/>
	<path class="st0" d="M279.4,312.5c-0.4,0.5-0.4,1.2,0.1,1.6c0.5,0.4,1.2,0.4,1.6-0.1c0.4-0.5,0.4-1.2-0.1-1.6
		C280.5,312,279.8,312,279.4,312.5"/>
	<path class="st1" d="M279.4,312.5c-0.4,0.5-0.4,1.2,0.1,1.6c0.5,0.4,1.2,0.4,1.6-0.1c0.4-0.5,0.4-1.2-0.1-1.6
		C280.5,312,279.8,312,279.4,312.5z"/>
	<path class="st0" d="M271.6,322.8c0.5,0.4,1.2,0.4,1.6-0.1c0.4-0.5,0.4-1.2-0.1-1.6c-0.5-0.4-1.2-0.4-1.6,0.1
		C271.1,321.6,271.1,322.4,271.6,322.8"/>
	<path class="st1" d="M271.6,322.8c0.5,0.4,1.2,0.4,1.6-0.1c0.4-0.5,0.4-1.2-0.1-1.6c-0.5-0.4-1.2-0.4-1.6,0.1
		C271.1,321.6,271.1,322.4,271.6,322.8z"/>
	<path class="st0" d="M274.1,319.9c0.5,0.4,1.2,0.4,1.6-0.1c0.4-0.5,0.4-1.2-0.1-1.6c-0.5-0.4-1.2-0.4-1.6,0.1
		C273.6,318.8,273.7,319.5,274.1,319.9"/>
	<path class="st1" d="M274.1,319.9c0.5,0.4,1.2,0.4,1.6-0.1c0.4-0.5,0.4-1.2-0.1-1.6c-0.5-0.4-1.2-0.4-1.6,0.1
		C273.6,318.8,273.7,319.5,274.1,319.9z"/>
	<path class="st0" d="M276.8,317c0.5,0.4,1.2,0.4,1.6-0.1c0.4-0.5,0.4-1.2-0.1-1.6c-0.5-0.4-1.2-0.4-1.6,0.1
		C276.3,315.9,276.3,316.6,276.8,317"/>
	<path class="st1" d="M276.8,317c0.5,0.4,1.2,0.4,1.6-0.1c0.4-0.5,0.4-1.2-0.1-1.6c-0.5-0.4-1.2-0.4-1.6,0.1
		C276.3,315.9,276.3,316.6,276.8,317z"/>
	<path class="st0" d="M284.3,310.3c0,0.6-0.5,1.1-1.1,1.1s-1.1-0.5-1.1-1.1c0-0.6,0.5-1.1,1.1-1.1
		C283.8,309.2,284.3,309.7,284.3,310.3"/>
	<circle class="st1" cx="283.2" cy="310.3" r="1.1"/>
	<path class="st0" d="M255.9,336.2c0.6,0,1.1-0.5,1.1-1.1c0-0.6-0.5-1.1-1.1-1.1c-0.6,0-1.1,0.5-1.1,1.1
		C254.8,335.7,255.3,336.2,255.9,336.2"/>
	<circle class="st1" cx="255.9" cy="335" r="1.1"/>
	<path class="st0" d="M255.9,332c0.6,0,1.1-0.5,1.1-1.1c0-0.6-0.5-1.1-1.1-1.1c-0.6,0-1.1,0.5-1.1,1.1
		C254.8,331.5,255.3,332,255.9,332"/>
	<circle class="st1" cx="255.9" cy="330.9" r="1.1"/>
	<path class="st0" d="M255.9,327.9c0.6,0,1.1-0.5,1.1-1.1c0-0.6-0.5-1.1-1.1-1.1c-0.6,0-1.1,0.5-1.1,1.1
		C254.8,327.4,255.3,327.9,255.9,327.9"/>
	<circle class="st1" cx="255.9" cy="326.8" r="1.1"/>
	<path class="st0" d="M255.9,323.8c0.6,0,1.1-0.5,1.1-1.1c0-0.6-0.5-1.1-1.1-1.1c-0.6,0-1.1,0.5-1.1,1.1
		C254.8,323.3,255.3,323.8,255.9,323.8"/>
	<circle class="st1" cx="255.9" cy="322.7" r="1.1"/>
	<path class="st0" d="M255.9,319.7c0.6,0,1.1-0.5,1.1-1.1c0-0.6-0.5-1.1-1.1-1.1c-0.6,0-1.1,0.5-1.1,1.1
		C254.8,319.2,255.3,319.7,255.9,319.7"/>
	<circle class="st1" cx="255.9" cy="318.6" r="1.1"/>
	<path class="st0" d="M255.9,315.6c0.6,0,1.1-0.5,1.1-1.1c0-0.6-0.5-1.1-1.1-1.1c-0.6,0-1.1,0.5-1.1,1.1
		C254.8,315.1,255.3,315.6,255.9,315.6"/>
	<circle class="st1" cx="255.9" cy="314.4" r="1.1"/>
</g>
</svg>
