<svg width="521" height="59" viewBox="0 0 521 59" fill="none" xmlns="http://www.w3.org/2000/svg">
<path fill-rule="evenodd" clip-rule="evenodd" d="M204.083 26.9925C203.786 15.93 194.259 7.2275 183.094 7.2275H169.995C158.682 7.2275 149.453 16.225 149.453 27.5825C149.453 33.4825 151.983 38.94 156.449 42.775L151.834 53.395L163.147 46.7575C165.231 47.495 167.613 47.9375 169.995 47.9375H183.69C195.152 47.79 204.381 38.4975 204.083 26.9925ZM183.69 40.415H169.995C164.189 40.415 158.235 35.8425 157.044 30.09C155.407 21.83 161.808 14.6025 169.846 14.6025H183.541C189.346 14.6025 195.45 19.175 196.492 24.9275C198.129 33.1875 191.728 40.415 183.69 40.415Z" fill="#B7736E"/>
<path d="M2.82812 15.93V9.145H33.3438V15.93H22.1796V46.02H13.9924V15.93H2.82812Z" fill="#C2AD75"/>
<path d="M44.6574 9.145V23.305H59.6919V9.145H67.8791V46.02H59.6919V30.09H44.6574V46.02H36.4702V9.145H44.6574Z" fill="#C2AD75"/>
<path d="M98.9901 9.145V15.93H79.341V23.895H97.3527V30.09H79.341V39.0875H99.2878V46.02H71.1538V9.145H98.9901Z" fill="#C2AD75"/>
<path d="M137.544 18.88C137.098 18.1425 136.353 17.405 135.758 16.815C134.269 15.635 132.334 15.045 130.399 15.045C128.761 14.8975 127.124 15.34 125.635 16.0775C124.445 16.6675 123.254 17.7 122.51 18.88C121.616 20.2075 121.17 21.535 120.723 23.01C120.425 24.485 120.277 26.1075 120.277 27.73C120.277 29.205 120.425 30.68 120.723 32.155C121.021 33.63 121.765 34.9575 122.51 36.1375C123.403 37.3175 124.296 38.35 125.635 38.94C126.975 39.6775 128.761 40.12 130.399 39.9725C132.483 40.12 134.716 39.235 136.204 37.76C137.693 36.1375 138.586 34.0725 138.884 31.7125H146.773C146.624 33.925 146.029 35.99 145.136 37.9075C144.243 39.6775 143.201 41.3 141.712 42.6275C140.372 43.955 138.586 44.9875 136.8 45.5775C134.865 46.315 132.632 46.61 130.548 46.61C127.868 46.61 125.189 46.1675 122.807 45.135C120.723 44.25 118.639 42.9225 117.151 41.005C115.513 39.235 114.322 37.17 113.578 34.9575C112.685 32.5975 112.387 29.9425 112.387 27.435C112.387 24.9275 112.685 22.2725 113.578 19.765C114.471 17.405 115.513 15.4875 117.151 13.57C118.788 11.8 120.723 10.325 122.956 9.44C127.273 7.67 132.036 7.375 136.502 8.85C138.288 9.44 139.926 10.1775 141.414 11.505C142.903 12.685 144.094 14.16 144.987 15.635C146.029 17.405 146.624 19.3225 146.773 21.24H138.884C138.288 20.5025 137.991 19.765 137.544 18.88Z" fill="#C2AD75"/>
<path d="M215.992 9.145L231.473 33.925H231.622V9.145H239.214V46.02H231.026L215.545 21.24H215.396V46.02H207.805V9.145H215.992Z" fill="#C2AD75"/>
<path d="M253.951 45.8725L241.893 8.9975H250.229L258.565 34.81H258.714L267.199 8.9975H275.535L263.18 45.8725H253.951Z" fill="#C2AD75"/>
<path d="M305.901 9.145V15.93H286.252V23.895H304.264V30.09H286.252V39.0875H306.348V46.02H278.214V9.145H305.901Z" fill="#C2AD75"/>
<path d="M329.123 9.145C330.76 9.145 332.249 9.2925 333.589 10.03C334.928 10.62 335.97 11.3575 337.012 12.2425C337.906 13.1275 338.65 14.3075 339.096 15.4875C339.692 16.815 339.841 18.1425 339.841 19.47C339.99 21.535 339.394 23.305 338.501 25.075C337.459 26.6975 335.822 28.025 334.035 28.7625C334.928 28.91 335.822 29.5 336.566 30.09C337.161 30.68 337.757 31.4175 338.203 32.155C338.65 32.8925 339.096 33.7775 339.096 34.6625C339.245 35.5475 339.394 36.4325 339.394 37.465C339.394 38.055 339.543 38.7925 339.543 39.53C339.543 40.2675 339.692 41.1525 339.692 41.89C339.692 42.6275 339.841 43.365 340.138 44.25C340.287 44.9875 340.585 45.5775 341.032 46.1675H332.844C332.249 44.84 332.1 43.5125 331.951 42.0375C331.802 40.415 331.654 38.94 331.505 37.465C331.356 35.99 330.76 34.515 329.718 33.1875C328.825 32.3025 327.337 31.86 325.253 31.86H317.066V46.1675H308.878V9.2925L329.123 9.145ZM326.295 25.8125C328.081 25.8125 329.57 25.37 330.612 24.485C331.654 23.6 331.951 22.2725 331.951 20.355C331.951 18.585 331.505 17.2575 330.612 16.52C329.718 15.7825 328.23 15.34 326.295 15.34H317.363V25.8125H326.295Z" fill="#C2AD75"/>
<path d="M351.005 36.875C351.452 37.6125 352.047 38.35 352.791 38.94C353.685 39.53 354.429 39.825 355.471 40.12C356.513 40.415 357.555 40.415 358.597 40.415C359.49 40.415 360.234 40.415 360.979 40.2675C361.872 40.2675 362.616 39.9725 363.36 39.53C364.105 39.235 364.7 38.7925 365.147 38.055C365.742 37.3175 365.891 36.58 365.891 35.8425C365.891 34.9575 365.593 34.0725 364.998 33.4825C364.253 32.745 363.36 32.3025 362.467 32.0075C361.276 31.565 360.085 31.27 358.895 30.8275C357.555 30.5325 356.215 30.09 354.875 29.795C353.536 29.5 352.047 29.0575 350.707 28.4675C349.368 28.025 348.326 27.2875 347.135 26.55C344.753 24.9275 343.562 22.125 343.562 19.3225C343.413 17.7 343.86 15.93 344.753 14.3075C345.646 12.98 346.688 11.6525 348.028 10.7675C349.368 9.8825 350.856 9.145 352.494 8.7025C354.131 8.26 355.769 8.1125 357.555 8.1125C359.341 8.1125 361.425 8.26 363.211 8.7025C364.849 8.9975 366.486 9.8825 367.975 10.7675C369.463 11.6525 370.505 12.98 371.25 14.455C372.143 16.0775 372.589 17.995 372.441 19.9125H364.551C364.551 19.0275 364.253 17.995 363.807 17.11C363.509 16.52 362.914 15.7825 362.169 15.4875C361.574 15.045 360.83 14.75 359.937 14.6025C359.043 14.455 358.15 14.3075 357.108 14.3075C356.513 14.3075 355.769 14.455 355.024 14.455C354.429 14.6025 353.685 14.75 353.238 15.1925C352.643 15.4875 352.345 15.93 351.898 16.52C351.452 17.11 351.303 17.7 351.303 18.4375C351.303 19.0275 351.452 19.765 351.749 20.2075C352.196 20.7975 352.643 21.0925 353.387 21.535C354.578 21.9775 355.62 22.2725 356.662 22.715C358.001 23.01 359.937 23.6 362.318 24.19C362.914 24.3375 363.956 24.485 365.147 24.9275C366.486 25.2225 367.677 25.8125 368.719 26.55C370.059 27.2875 371.101 28.4675 371.845 29.6475C372.738 31.1225 373.185 32.8925 373.185 34.81C373.185 36.4325 372.887 38.055 372.292 39.53C371.696 41.005 370.654 42.3325 369.315 43.365C367.975 44.545 366.189 45.2825 364.551 45.8725C362.467 46.4625 360.085 46.7575 357.853 46.7575C355.769 46.7575 353.833 46.4625 351.898 46.02C350.112 45.5775 348.326 44.84 346.837 43.66C345.349 42.48 344.158 41.1525 343.265 39.53C342.371 37.76 341.925 35.695 341.925 33.63H350.112C350.261 34.81 350.559 35.8425 351.005 36.875Z" fill="#C2AD75"/>
<path d="M396.258 9.145L410.25 46.02H401.765L398.937 37.76H384.945L382.116 46.02H373.78L387.773 9.145C387.773 8.9975 396.258 8.9975 396.258 9.145ZM396.704 31.7125L392.09 18.29L387.326 31.7125H396.704Z" fill="#C2AD75"/>
<path d="M403.254 15.93V9.145H433.77V15.93H422.605V46.02H414.418V15.93H403.254Z" fill="#C2AD75"/>
<path d="M445.083 9.145V46.02H436.896V9.145H445.083Z" fill="#C2AD75"/>
<path d="M448.953 20.06C449.697 17.7 451.037 15.7825 452.526 13.865C454.014 12.095 456.098 10.62 458.331 9.735C463.243 7.67 468.751 7.67 473.812 9.735C476.045 10.62 477.98 12.095 479.618 13.865C481.106 15.635 482.446 17.8475 483.19 20.06C483.934 22.42 484.53 25.2225 484.53 27.73C484.53 30.2375 484.232 32.8925 483.19 35.2525C482.446 37.465 481.106 39.53 479.618 41.3C478.129 43.07 476.045 44.3975 473.812 45.43C468.9 47.495 463.392 47.495 458.331 45.43C456.098 44.545 454.163 43.2175 452.526 41.3C451.037 39.53 449.697 37.465 448.953 35.2525C448.209 32.8925 447.613 30.2375 447.613 27.73C447.613 25.075 448.06 22.42 448.953 20.06ZM456.396 32.155C456.694 33.63 457.289 34.9575 458.033 36.1375C458.778 37.3175 459.82 38.35 461.159 38.94C464.136 40.415 467.56 40.415 470.537 38.94C471.877 38.2025 472.77 37.3175 473.663 36.1375C474.408 34.9575 475.152 33.63 475.301 32.155C475.598 30.68 475.896 29.205 475.896 27.73C475.896 26.255 475.747 24.6325 475.301 23.01C475.003 21.535 474.408 20.2075 473.663 18.88C472.919 17.7 471.877 16.815 470.537 16.0775C467.56 14.75 464.136 14.75 461.159 16.0775C459.82 16.6675 458.926 17.7 458.033 18.88C457.289 20.2075 456.545 21.535 456.396 23.01C456.098 24.485 455.8 26.1075 455.8 27.73C455.8 29.205 456.098 30.68 456.396 32.155Z" fill="#C2AD75"/>
<path d="M494.801 9.145L510.431 33.925V9.145H518.023V46.02H509.836L494.354 21.24V46.02H486.763V9.145H494.801Z" fill="#C2AD75"/>
</svg>
