<svg width="59" height="59" viewBox="0 0 59 59" fill="none" xmlns="http://www.w3.org/2000/svg">
<path fill-rule="evenodd" clip-rule="evenodd" d="M58.6762 29.6619C58.6762 45.8649 45.5411 59 29.3381 59C13.1351 59 0 45.8649 0 29.6619C0 13.4589 13.1351 0.323807 29.3381 0.323807C45.5411 0.323807 58.6762 13.4589 58.6762 29.6619ZM25.6045 21.7935C25.6045 24.224 23.6342 26.1943 21.2037 26.1943C18.7733 26.1943 16.803 24.224 16.803 21.7935C16.803 19.363 18.7733 17.3927 21.2037 17.3927C23.6342 17.3927 25.6045 19.363 25.6045 21.7935ZM36.8064 26.1943C39.2369 26.1943 41.2072 24.224 41.2072 21.7935C41.2072 19.363 39.2369 17.3927 36.8064 17.3927C34.3759 17.3927 32.4057 19.363 32.4057 21.7935C32.4057 24.224 34.3759 26.1943 36.8064 26.1943ZM41.2072 36.9962C41.2072 39.4266 39.2369 41.3969 36.8064 41.3969C34.3759 41.3969 32.4057 39.4266 32.4057 36.9962C32.4057 34.5657 34.3759 32.5954 36.8064 32.5954C39.2369 32.5954 41.2072 34.5657 41.2072 36.9962ZM21.2038 41.3969C23.6342 41.3969 25.6045 39.4266 25.6045 36.9962C25.6045 34.5657 23.6342 32.5954 21.2038 32.5954C18.7733 32.5954 16.803 34.5657 16.803 36.9962C16.803 39.4266 18.7733 41.3969 21.2038 41.3969Z" fill="#1B7580"/>
</svg>
