<svg width="59" height="59" viewBox="0 0 59 59" fill="none" xmlns="http://www.w3.org/2000/svg">
<path fill-rule="evenodd" clip-rule="evenodd" d="M58.6762 29.6619C58.6762 45.8649 45.5411 59 29.3381 59C13.1351 59 0 45.8649 0 29.6619C0 13.4589 13.1351 0.323822 29.3381 0.323822C45.5411 0.323822 58.6762 13.4589 58.6762 29.6619ZM25.6044 21.7935C25.6044 24.224 23.6341 26.1943 21.2036 26.1943C18.7731 26.1943 16.8029 24.224 16.8029 21.7935C16.8029 19.3631 18.7731 17.3928 21.2036 17.3928C23.6341 17.3928 25.6044 19.3631 25.6044 21.7935ZM36.8064 26.1943C39.2369 26.1943 41.2071 24.224 41.2071 21.7935C41.2071 19.3631 39.2369 17.3928 36.8064 17.3928C34.3759 17.3928 32.4056 19.3631 32.4056 21.7935C32.4056 24.224 34.3759 26.1943 36.8064 26.1943ZM41.2071 36.9962C41.2071 39.4267 39.2369 41.3969 36.8064 41.3969C34.3759 41.3969 32.4056 39.4267 32.4056 36.9962C32.4056 34.5657 34.3759 32.5954 36.8064 32.5954C39.2369 32.5954 41.2071 34.5657 41.2071 36.9962ZM21.2036 41.3969C23.6341 41.3969 25.6044 39.4267 25.6044 36.9962C25.6044 34.5657 23.6341 32.5954 21.2036 32.5954C18.7732 32.5954 16.8029 34.5657 16.8029 36.9962C16.8029 39.4267 18.7732 41.3969 21.2036 41.3969Z" fill="#BE9428"/>
</svg>
