<svg width="145" height="462" viewBox="0 0 145 462" fill="none" xmlns="http://www.w3.org/2000/svg">
<path d="M2 -4C19.5 156 0.000156403 343 19.5 369C37.9664 393.622 55.0002 377 104 412.5C143.2 440.9 192.334 451.333 212 453" stroke="#727272" stroke-width="3"/>
<path fill-rule="evenodd" clip-rule="evenodd" d="M123.431 459.935C124.48 459.047 65.9524 388.246 65.9524 388.246C65.9524 388.246 63.3825 383.935 60.6544 386.246C57.9264 388.557 61.7554 391.801 61.7554 391.801C61.7554 391.801 122.381 460.824 123.431 459.935ZM67.9815 395.002C68.6831 394.408 67.8427 392.262 66.1044 390.21C64.366 388.157 62.3879 386.976 61.6863 387.57C60.9846 388.164 61.825 390.31 63.5634 392.362C65.3017 394.414 67.2798 395.596 67.9815 395.002Z" fill="#727272"/>
</svg>
