<svg width="1440" height="218" viewBox="0 0 1440 218" fill="none" xmlns="http://www.w3.org/2000/svg">
<path d="M-20 59.4368C7.33333 71.4368 73.2807 92.5903 195 54C265.167 43.3123 360.5 44.5 390 77.9368C411.212 101.98 441.5 197.5 423 197.5C317.613 197.5 490.533 89.2925 544.5 83C596.5 76.9368 698.833 84.1245 795.5 76.9368C1047.13 65.4115 1078.26 88.9886 1059.5 97C1015 116 888 51.9368 1041 11.9368C1194 -28.0632 1113.5 92.4368 1140 127.937C1166.5 163.437 1307.71 134.333 1324 127.937C1405.5 95.9368 1414.67 54.1035 1460 25.9368" stroke="#727272" stroke-width="6"/>
<path fill-rule="evenodd" clip-rule="evenodd" d="M1389.18 212.197C1390.26 209.942 1240.5 136.021 1240.5 136.021C1240.5 136.021 1233.03 130.782 1230.22 136.645C1227.42 142.507 1236.18 145.041 1236.18 145.041C1236.18 145.041 1388.1 214.452 1389.18 212.197ZM1251.87 147.009C1252.35 146.012 1249.71 143.755 1245.97 141.966C1242.23 140.177 1238.82 139.535 1238.34 140.531C1237.86 141.527 1240.51 143.785 1244.24 145.574C1247.98 147.362 1251.39 148.005 1251.87 147.009Z" fill="#727272"/>
</svg>
