<svg width="551" height="341" viewBox="0 0 551 341" fill="none" xmlns="http://www.w3.org/2000/svg">
<path d="M136.829 150.843C142.546 150.843 147.18 146.209 147.18 140.492C147.18 134.775 142.546 130.141 136.829 130.141C131.112 130.141 126.478 134.775 126.478 140.492C126.478 146.209 131.112 150.843 136.829 150.843Z" fill="#655838"/>
<path d="M217.593 150.843C223.31 150.843 227.944 146.209 227.944 140.492C227.944 134.775 223.31 130.141 217.593 130.141C211.876 130.141 207.242 134.775 207.242 140.492C207.242 146.209 211.876 150.843 217.593 150.843Z" fill="#655838"/>
<path d="M151.47 214.583C149.291 214.719 147.316 213.221 146.839 211.042C143.298 194.358 143.298 177.129 146.839 160.445C147.384 158.198 149.495 156.699 151.81 156.904C155.215 156.904 154.534 153.363 154.534 153.363H120.69C118.987 153.363 118.442 156.904 121.847 156.904C124.163 156.699 126.274 158.198 126.818 160.445C130.36 177.129 130.36 194.358 126.818 211.042C126.342 213.221 124.231 214.719 121.983 214.447C118.579 214.447 118.579 218.124 121.371 218.124H151.879C154.875 218.124 154.875 214.583 151.47 214.583Z" fill="#655838"/>
<path d="M232.235 214.583C230.056 214.719 228.081 213.221 227.604 211.042C225.834 202.734 224.88 194.29 224.948 185.777C224.744 178.286 225.357 170.796 226.855 163.441C227.196 160.921 227.74 158.47 228.557 156.018C229.102 154.52 228.966 153.431 226.106 153.431H201.454C199.82 153.431 199.139 156.972 202.612 156.972C204.927 156.767 207.038 158.266 207.583 160.513C211.124 177.197 211.124 194.426 207.583 211.11C207.107 213.289 204.996 214.787 202.748 214.515C199.343 214.515 199.343 218.192 202.135 218.192H232.643C235.572 218.124 235.64 214.583 232.235 214.583Z" fill="#655838"/>
<path d="M547.597 325.651C545.282 325.855 543.239 324.357 542.626 322.178C540.651 311.963 539.97 298.752 539.97 277.437C540.038 262.728 540.923 248.087 542.626 233.514C543.035 231.267 543.171 230.518 543.307 229.292C543.443 228.066 542.762 226.568 539.97 226.568H517.498C514.501 226.568 514.501 230.041 517.906 230.041C520.085 229.905 522.06 231.403 522.537 233.514C524.171 241.005 525.057 248.7 525.193 256.395V264.907C524.444 266.065 523.627 266.678 522.673 265.997C518.86 262.66 513.82 260.89 508.781 261.162C499.452 261.162 483.925 274.169 483.925 296.573C483.925 318.977 494.685 330.894 504.219 330.894C517.838 330.894 520.903 318.773 523.082 320.816C522.809 322.791 522.333 324.766 521.652 326.604C521.107 328.034 521.243 329.124 524.103 329.124H548.755C550.389 329.124 551.002 325.651 547.597 325.651ZM521.788 312.304C518.86 315.504 514.433 316.73 510.279 315.572C505.104 314.278 500.95 308.422 499.179 303.723C497.954 299.978 497.273 296.028 497.136 292.078C496.592 283.77 499.179 264.907 511.028 264.907C518.042 264.907 523.014 271.921 525.125 280.025V297.254C525.125 300.318 525.057 302.77 524.92 304.949C524.512 307.605 523.422 310.124 521.788 312.304Z" fill="#655838"/>
<path d="M208.741 154.044L203.089 153.431C199.616 153.431 185.383 153.431 183.613 153.431C181.842 153.431 181.978 154.997 182.864 155.61C187.086 157.857 189.537 162.556 188.924 167.323C187.086 173.383 184.566 179.24 181.502 184.756C180.821 186.05 179.595 186.39 178.71 185.301C175.032 177.674 172.717 169.434 171.968 160.99C171.9 159.559 171.627 157.993 173.67 157.244C175.713 156.495 175.645 153.499 173.67 153.499H148.27C144.592 153.499 146.499 156.631 149.427 160.581C155.011 168.548 159.778 177.061 163.592 185.982C167.065 194.426 169.993 203.006 172.377 211.791C172.717 213.017 174.556 220.167 174.828 220.916C175.237 222.074 176.599 222.21 177.007 221.052C179.595 210.361 182.046 205.73 188.516 200.486C191.648 197.899 188.992 196.264 187.426 195.379C185.996 194.494 184.702 193.472 183.613 192.247C183.34 191.293 183.477 190.34 183.953 189.455C185.179 186.935 192.057 169.979 194.168 166.642C196.824 161.739 201.454 158.198 206.834 156.904C210.035 156.086 208.741 154.044 208.741 154.044Z" fill="#655838"/>
<path d="M288.211 169.774C285.896 160.104 264.649 143.352 242.722 161.602C219.909 181.419 235.776 218.601 260.291 218.601C284.807 218.601 287.53 199.465 286.305 193.609C286.305 193.609 285.419 189.591 282.559 193.609C266.42 210.701 253.073 197.286 251.507 192.859C254.911 190.885 286.713 174.064 286.713 174.064C287.735 172.975 288.28 171.409 288.211 169.774ZM269.28 177.537C263.288 181.419 257.022 184.892 250.621 188.093C249.532 188.569 248.442 189.591 247.012 185.913L246.127 183.939C245.514 182.304 245.037 180.602 244.561 178.899C240.202 161.875 256.41 156.836 264.105 159.968C271.868 163.101 271.732 175.426 269.28 177.537Z" fill="#655838"/>
<path d="M477.116 169.774C474.8 160.104 453.554 143.352 431.626 161.602C408.813 181.419 424.68 218.601 449.195 218.601C473.643 218.601 476.435 199.465 475.209 193.609C475.209 193.609 474.324 189.591 471.464 193.609C455.324 210.701 441.977 197.286 440.411 192.859C443.816 190.885 475.618 174.064 475.618 174.064C475.618 174.064 477.661 171.885 477.116 169.774ZM458.321 177.537C452.328 181.419 446.063 184.892 439.662 188.093C438.572 188.569 437.483 189.591 436.053 185.913L435.167 183.939C434.554 182.304 434.078 180.602 433.601 178.899C429.243 161.875 445.45 156.836 453.145 159.968C460.84 163.101 460.704 175.426 458.321 177.537Z" fill="#655838"/>
<path d="M180.616 278.867C178.233 268.517 156.441 250.607 133.833 270.083C110.407 291.329 126.682 331.099 151.879 331.099C177.075 331.099 179.867 310.601 178.573 304.336C178.573 304.336 177.62 300.046 174.692 304.336C158.076 322.655 144.388 308.286 142.754 303.587C146.227 301.476 178.914 283.498 178.914 283.498C180.14 282.272 180.752 280.57 180.616 278.867ZM161.276 287.175C155.079 291.329 148.678 295.075 142.073 298.48C140.983 298.956 139.825 300.114 138.395 296.164L137.51 294.053C136.897 292.283 136.42 290.444 135.944 288.605C131.449 270.423 148.133 264.975 156.101 268.312C164 271.649 163.728 284.928 161.276 287.175Z" fill="#655838"/>
<path d="M415.895 216.013C415.691 215.264 414.874 214.583 413.375 214.583C411.196 214.719 409.221 213.221 408.813 211.042C408.677 209.816 408.813 208.59 409.221 207.364C411.128 202.053 413.852 197.15 415.623 191.77C417.938 185.369 418.891 178.627 418.347 171.817C417.734 166.642 415.35 161.875 411.605 158.334C405.136 151.66 394.853 150.502 387.021 155.542C385.659 156.427 383.072 158.674 381.437 158.606C380.007 158.606 379.803 157.721 379.803 156.836C379.871 156.563 379.939 156.291 380.075 155.95C380.62 154.452 380.484 153.363 377.624 153.363H353.04C351.406 153.363 350.725 156.904 354.198 156.904C356.513 156.699 358.625 158.198 359.169 160.445C362.71 177.129 362.71 194.358 359.169 211.042C358.42 213.221 356.309 214.719 353.994 214.583C352.428 214.583 350.861 214.515 349.363 214.447C348.001 214.515 346.639 213.97 345.618 213.017C344.801 212.131 344.324 211.042 344.052 209.884C343.847 208.522 343.983 207.16 344.46 205.934C346.367 200.623 348.955 197.218 350.725 191.838C353.04 185.437 353.994 178.695 353.449 171.885C352.836 166.71 350.453 161.943 346.707 158.402C340.238 151.728 329.955 150.571 322.124 155.61C320.762 156.495 318.174 158.742 316.54 158.674C315.11 158.674 314.905 157.789 314.905 156.904C314.974 156.631 315.042 156.359 315.178 156.018C315.723 154.52 315.586 153.431 312.726 153.431H288.143C286.509 153.431 285.828 156.972 289.301 156.972C291.616 156.767 293.727 158.266 294.272 160.513C297.813 177.197 297.813 194.426 294.272 211.11C293.795 213.289 291.684 214.787 289.437 214.515C286.032 214.515 286.032 218.192 288.824 218.192H319.332C322.328 218.192 322.328 214.651 318.923 214.651C316.744 214.787 314.769 213.289 314.293 211.11C312.522 202.802 311.569 194.358 311.637 185.845C311.705 179.717 311.024 172.09 314.701 166.778C316.472 163.986 319.4 162.147 322.737 161.807C325.12 161.602 327.504 162.351 329.41 163.782C336.356 169.297 336.356 184.62 329.955 204.028C325.869 215.536 329.206 217.443 329.547 217.851C329.887 218.26 330.977 218.26 331.726 218.26H355.015H384.298C387.294 218.26 387.294 214.719 383.889 214.719C381.71 214.855 379.735 213.357 379.258 211.178C377.488 202.87 376.534 194.426 376.602 185.913C376.671 179.785 375.99 172.158 379.735 166.846C381.505 164.054 384.434 162.215 387.771 161.875C390.154 161.671 392.537 162.42 394.444 163.85C401.39 169.366 401.39 184.688 394.989 204.096C390.903 215.604 394.24 217.511 394.58 217.92C394.921 218.328 396.01 218.328 396.759 218.328H414.193C415.691 217.988 416.372 216.966 416.099 216.081L415.895 216.013Z" fill="#655838"/>
<path d="M226.719 291.67C220.658 288.129 213.644 287.312 207.175 284.656C202.067 282.545 195.053 279.072 195.666 272.67C196.551 264.022 205.404 261.979 211.601 262.66C213.031 262.796 218.002 263.954 216.368 266.814C212.078 270.219 211.329 276.416 214.734 280.638C218.138 284.928 224.335 285.677 228.557 282.272C230.941 280.366 232.303 277.505 232.303 274.509V274.373C232.303 272.126 231.554 270.015 230.192 268.244C229.919 267.904 229.579 267.563 229.238 267.291C223.178 261.026 213.984 257.621 201.863 259.8C189.129 262.047 181.774 272.875 182.659 279.685C183.545 286.494 184.77 293.917 212.827 304.064C225.084 308.49 226.787 317.751 221.339 322.859C218.138 325.447 214.053 326.809 209.899 326.604C204.451 326.468 197.981 325.242 198.662 321.974C201.659 320.407 203.497 317.275 203.497 313.87C203.225 308.013 198.594 303.247 192.67 302.974C186.95 303.11 182.319 307.809 182.251 313.529C182.183 315.913 183.068 318.16 184.702 319.862H184.634C189.265 324.766 195.326 328.17 201.931 329.601C213.372 332.597 227.264 328.715 234.005 318.705C235.912 315.845 236.934 312.508 237.002 309.035C236.797 301.748 232.984 295.211 226.719 291.67Z" fill="#655838"/>
<path d="M278.541 295.96C276.09 291.738 273.774 294.802 275.681 298.139C276.771 300.727 277.384 303.451 277.52 306.243C278.065 310.874 277.724 316.866 274.183 320.339C273.025 321.429 271.459 322.11 269.893 322.246C264.513 322.246 261.925 317.956 261.925 310.669C261.925 306.379 261.925 284.52 261.925 266.746C263.015 265.929 264.377 265.452 265.739 265.452C269.348 265.588 272.617 267.631 274.251 270.9L276.839 262.32H264.513C263.56 262.32 262.674 262.047 261.925 261.502V242.844C261.925 240.733 259.814 239.983 259.201 243.593C257.158 254.556 238.295 262.864 236.729 263.409C235.095 263.954 235.163 265.656 237.478 265.929C239.93 265.997 242.722 264.022 243.811 269.129C243.811 282.545 243.743 308.967 243.743 311.623C243.743 315.028 244.833 329.669 262.538 329.669C281.129 329.533 285.147 308.286 278.541 295.96Z" fill="#655838"/>
<path d="M367.137 262.251C365.911 262.251 361.213 262.251 361.213 262.251C357.74 262.251 343.507 262.251 341.737 262.251C339.966 262.251 340.102 263.818 340.988 264.431C345.21 266.678 347.661 271.377 347.048 276.143C345.21 282.204 342.69 288.061 339.626 293.577C338.945 294.87 337.719 295.211 336.834 294.121C333.156 286.494 330.841 278.255 330.092 269.81C330.024 268.38 329.751 266.814 331.794 266.065C333.837 265.316 333.769 262.32 331.794 262.32H306.326C302.648 262.32 306.394 265.452 309.322 269.402C309.594 269.81 310.888 271.99 312.659 275.531C312.591 275.735 312.591 276.007 312.591 276.212C310.752 282.272 308.232 288.129 305.168 293.645C304.487 294.939 303.261 295.279 302.376 294.189C298.699 286.563 296.383 278.323 295.634 269.878C295.566 268.448 295.294 266.882 297.337 266.133C299.38 265.384 299.311 262.388 297.337 262.388H271.868C268.191 262.388 270.097 265.52 273.026 269.47C278.61 277.437 283.376 285.95 287.19 294.87C290.663 303.315 293.591 311.895 295.975 320.68C296.315 321.905 298.154 329.056 298.426 329.805C298.835 330.963 300.197 331.099 300.605 329.941C303.193 319.25 305.645 314.619 312.114 309.375C315.246 306.788 312.591 305.153 311.024 304.268C309.594 303.383 308.3 302.361 307.211 301.135C306.938 300.182 307.075 299.229 307.551 298.343C308.437 296.505 312.386 286.903 315.246 280.57C317.494 285.269 319.673 289.967 321.716 294.734C325.189 303.178 328.117 311.759 330.5 320.543C330.841 321.769 332.68 328.92 332.952 329.669C333.361 330.826 334.722 330.963 335.131 329.805C337.719 319.113 340.17 314.483 346.64 309.239C349.772 306.651 347.116 305.017 345.55 304.132C344.12 303.247 342.826 302.225 341.737 300.999C341.464 300.046 341.6 299.093 342.077 298.207C343.303 295.688 350.181 278.731 352.292 275.394C354.948 270.423 359.578 266.814 365.026 265.452C366.048 265.316 367.001 264.975 367.954 264.567C369.316 263.613 368.703 262.251 367.137 262.251Z" fill="#655838"/>
<path d="M308.913 268.653C307.756 267.427 305.032 265.044 303.533 264.975C302.784 264.907 302.171 264.294 302.24 263.545C302.308 262.796 302.921 262.183 303.67 262.251C303.738 262.251 303.806 262.251 303.874 262.251C306.257 262.251 313.34 262.251 313.34 262.251L312.931 268.176" fill="#655838"/>
<path d="M384.774 258.37C383.889 257.008 380.961 257.961 379.463 258.778C373.81 261.57 368.771 265.452 364.617 270.083C356.173 280.161 353.177 293.781 356.65 306.447C363.051 327.013 386.136 337.159 402.412 326.4C412.967 319.386 417.529 306.583 417.121 294.326C416.985 290.376 416.372 286.426 415.214 282.613C412.014 272.126 401.663 260.821 389.541 263.613C385.387 264.567 381.642 266.746 378.782 269.81C375.377 274.577 379.667 274.373 382.187 274.169C396.623 274.032 403.297 288.469 405.272 294.939C407.655 302.634 409.494 317.888 399.347 321.293C390.563 324.289 381.982 316.185 377.352 309.307C375.717 306.651 374.287 303.791 373.061 300.931C365.707 284.315 370.746 270.015 380.756 263.069C384.638 260.413 385.591 259.868 384.774 258.37Z" fill="#655838"/>
<path d="M449.127 258.37C448.242 257.008 445.314 257.961 443.816 258.778C438.163 261.57 433.124 265.452 428.97 270.083C420.526 280.161 417.53 293.781 421.003 306.447C427.404 327.013 450.489 337.159 466.765 326.4C477.32 319.386 481.882 306.583 481.474 294.326C481.338 290.376 480.725 286.426 479.567 282.613C476.367 272.126 466.016 260.821 453.894 263.613C449.74 264.567 445.995 266.746 443.135 269.81C439.73 274.577 444.02 274.373 446.54 274.169C460.976 274.032 467.65 288.469 469.625 294.939C472.008 302.634 473.847 317.888 463.7 321.293C454.916 324.289 446.335 316.185 441.705 309.307C440.07 306.651 438.64 303.791 437.414 300.931C430.06 284.315 435.099 270.015 445.109 263.069C448.991 260.413 449.944 259.868 449.127 258.37Z" fill="#655838"/>
<path d="M142.209 231.675H141.8C140.438 231.675 134.65 231.675 134.65 231.675H128.862H116.604H112.654C110.611 231.675 110.816 233.446 111.837 234.127C117.489 237.123 120.894 243.116 120.622 249.449C120.554 253.331 114.084 284.86 110.747 298.343C110.339 299.161 109.658 299.365 109.317 298.343C107.547 292.964 106.049 286.563 104.278 279.957C100.328 265.724 96.1063 250.675 94.1996 241.958L94.1315 241.55C93.9953 240.869 93.8591 240.188 93.7229 239.643C93.3143 237.94 93.9953 236.238 95.4934 235.285L95.6977 235.216C96.7192 234.672 98.2174 234.399 98.7622 233.991C100.192 232.901 99.5793 231.539 98.0131 231.539H97.6045C96.2425 231.539 90.4542 231.539 90.4542 231.539H84.6658H72.4082H68.4585C66.4155 231.539 66.6198 233.31 67.6413 233.991C71.2505 236.034 74.0425 239.302 75.5407 243.252L75.745 243.933L77.7198 250.607C78.1965 252.241 78.2646 254.012 77.856 255.714C75.064 266.337 69.7523 285.541 67.2327 296.369C66.8922 297.05 66.3474 297.322 65.9388 296.709C64.3726 291.602 63.0106 285.813 61.3763 279.889C58.6523 270.219 55.9284 260.14 53.7493 252.037C52.864 246.18 56.1327 246.044 58.0395 243.865C59.7419 242.026 57.4947 241.209 56.7456 241.277C48.4376 241.55 41.2192 230.518 27.1229 226.84C25.6928 226.5 24.2628 226.364 22.8327 226.432C10.3027 226.432 0.156031 236.578 0.0879324 249.04C-0.320657 259.732 7.30634 269.061 17.8616 270.9C24.1266 271.853 30.2554 268.244 32.5027 262.32C32.5027 262.32 33.5241 259.187 31.9579 258.778C30.4597 258.642 30.3235 260.277 29.9149 261.979C27.872 266.678 22.5603 269.197 17.6573 267.767C9.68977 266.201 3.83333 259.255 3.69713 251.083C3.56094 241.89 10.9155 234.263 20.1088 234.127C20.3131 234.127 20.5174 234.127 20.7898 234.127C25.3523 234.331 29.5063 237.055 31.4812 241.141C37.1333 258.234 50.0039 305.085 53.9536 327.49C54.8388 332.188 55.1793 338.317 55.3836 339.27C55.4517 339.951 55.9965 340.496 56.6775 340.496C57.2223 340.496 57.6309 340.088 57.8352 339.611C61.5125 327.694 66.1431 321.633 73.7701 316.185C77.5155 313.461 77.175 314.074 72.8849 310.329C71.6591 309.239 70.7057 307.945 69.8885 306.515C69.2757 305.358 69.1395 304.064 69.4119 302.77C71.1824 294.394 76.5622 275.394 79.5585 263.886C79.6947 263.341 80.2395 262.932 80.8523 263.069C81.1928 263.137 81.4652 263.409 81.6014 263.682L81.8057 264.363C88.0707 286.086 95.3573 314.142 97.264 327.694C97.945 332.461 98.0131 338.317 98.2855 339.27C98.6941 340.632 100.192 340.905 100.737 339.611C104.414 327.694 109.045 321.633 116.672 316.185C120.417 313.461 120.077 314.074 115.787 310.329C115.038 309.648 114.357 308.899 113.812 308.082C113.063 306.924 112.858 305.494 113.131 304.132C115.719 292.283 121.575 265.452 123.414 259.528C125.729 251.492 129.815 244.137 135.467 238.009C136.761 236.783 138.191 235.761 139.825 235.012C140.847 234.467 142.345 234.195 142.89 233.786C144.388 232.969 143.775 231.675 142.209 231.675Z" fill="#655838"/>
<path d="M134.309 124.353H133.901C132.539 124.353 126.751 124.353 126.751 124.353H120.962H108.705H104.755C102.712 124.353 102.916 126.123 103.938 126.804C109.59 129.801 112.995 135.725 112.722 142.058C112.654 145.531 105.095 170.659 101.078 185.641C100.805 185.845 100.465 185.777 100.26 185.573C100.26 185.573 100.26 185.505 100.192 185.505C98.626 180.466 96.2426 174.813 94.6082 168.821C91.8843 159.219 89.1604 149.209 86.9812 141.105C86.096 135.248 89.3647 135.112 91.2714 132.933C92.9739 131.094 90.7266 130.277 89.9775 130.345C81.6696 130.618 74.4512 119.654 60.3548 115.977C58.9248 115.636 57.4947 115.568 56.0647 115.568C43.5346 115.5 33.3199 125.579 33.2518 138.04C32.9113 148.732 40.4702 157.993 51.0254 159.832C57.2904 160.785 63.3512 157.244 65.6665 151.32C65.6665 151.32 66.688 148.255 65.1217 147.847C63.6236 147.71 63.4874 149.345 63.0788 151.047C60.9677 155.746 55.7242 158.198 50.8211 156.767C42.8536 155.201 36.9972 148.323 36.861 140.152C36.7248 130.958 44.0794 123.399 53.2726 123.263C53.4769 123.263 53.7493 123.263 53.9536 123.263C58.5162 123.467 62.6702 126.123 64.645 130.277C70.3653 147.302 84.1892 193.881 88.207 216.149C89.0923 220.848 89.7052 224.048 89.9775 224.934C90.0456 225.615 90.5904 226.159 91.2714 226.159C91.8162 226.159 92.2248 225.751 92.4291 225.274C96.1064 213.425 100.397 210.293 108.024 204.845C111.769 202.121 111.428 202.802 107.138 198.988C105.981 197.899 104.959 196.605 104.142 195.243C103.801 194.63 103.665 194.017 103.529 193.336C106.73 180.398 113.744 157.585 115.378 152.205C117.693 144.237 121.847 136.883 127.432 130.754C128.725 129.528 130.155 128.575 131.79 127.758C132.811 127.213 134.309 126.94 134.854 126.532C136.489 125.715 135.876 124.353 134.309 124.353Z" fill="#655838"/>
<path d="M273.91 89.3503C267.782 89.4184 261.857 87.4435 256.954 83.7662C256.409 83.2895 256.341 82.5405 256.818 81.9957C257.226 81.519 257.907 81.3828 258.452 81.7914C262.879 85.1282 268.326 86.8987 273.842 86.8987C279.358 86.8987 284.806 85.1282 289.233 81.8595C289.777 81.4509 290.526 81.5871 290.935 82.1319C291.344 82.6766 291.207 83.4938 290.663 83.9024C285.828 87.4435 279.903 89.3503 273.91 89.3503Z" fill="#655838"/>
<path d="M251.438 77.5693C251.03 77.5693 250.621 77.365 250.417 77.0245C247.148 72.2576 245.377 66.6055 245.377 60.8852C245.377 45.1546 258.112 32.3521 273.842 32.3521C289.573 32.3521 302.376 45.0865 302.376 60.8171C302.376 66.4693 300.673 72.0533 297.541 76.7521C297.132 77.2969 296.383 77.4331 295.838 77.0926C295.293 76.7521 295.157 76.003 295.43 75.4582C295.43 75.4582 295.43 75.3902 295.498 75.3902C303.533 63.473 300.333 47.2656 288.347 39.23C276.362 31.1944 260.223 34.3951 252.187 46.3803C249.327 50.6705 247.761 55.7098 247.761 60.8852C247.693 66.1288 249.327 71.3043 252.392 75.5944C252.732 76.1392 252.596 76.8883 252.051 77.2969C251.983 77.4331 251.711 77.5693 251.438 77.5693Z" fill="#655838"/>
<path d="M274.115 72.1895C269.961 72.1895 266.624 68.8527 266.624 64.6987C266.624 60.5448 269.961 57.2079 274.115 57.2079C278.269 57.2079 281.606 60.5448 281.606 64.6987C281.606 68.8527 278.269 72.1895 274.115 72.1895ZM274.115 59.3871C271.187 59.3871 268.803 61.7705 268.803 64.6987C268.803 67.627 271.187 70.0104 274.115 70.0104C277.043 70.0104 279.426 67.627 279.426 64.6987C279.426 61.7705 277.043 59.3871 274.115 59.3871Z" fill="#655838"/>
<path d="M268.803 61.7024C268.122 61.7024 267.578 61.1577 267.578 60.4767V34.1908C267.646 33.5098 268.191 32.965 268.871 33.0331C269.484 33.0331 270.029 33.5779 270.029 34.1908V60.4767C270.029 61.0896 269.484 61.6343 268.803 61.7024Z" fill="#655838"/>
<path d="M279.495 61.9748C278.814 61.9748 278.269 61.4301 278.269 60.7491V34.2589C278.337 33.5779 278.882 33.0331 279.563 33.1012C280.176 33.1012 280.721 33.646 280.721 34.2589V60.7491C280.721 61.4301 280.176 61.9748 279.495 61.9748Z" fill="#655838"/>
<path d="M274.183 72.8024C264.649 73.0748 255.252 70.6233 247.012 65.7202C246.467 65.3116 246.331 64.5625 246.671 64.0178C247.012 63.473 247.761 63.3368 248.306 63.6092C248.306 63.6092 248.374 63.6092 248.374 63.6773C261.721 72.5981 287.598 72.4619 299.584 63.4049C300.129 62.9963 300.946 63.1325 301.286 63.7454C301.627 64.2902 301.559 64.9711 301.082 65.3797C293.114 70.5552 283.717 73.1429 274.183 72.8024Z" fill="#655838"/>
<path d="M279.631 62.3153C278.95 62.3153 278.405 61.7705 278.337 61.0896C278.337 60.4767 278.814 59.9319 279.495 59.8638C286.645 59.319 293.523 57.0718 299.652 53.4625C300.265 53.1221 301.014 53.3264 301.354 53.8711C301.695 54.484 301.558 55.2331 300.946 55.5736C294.476 59.4552 287.258 61.7705 279.699 62.3153H279.631Z" fill="#655838"/>
<path d="M268.054 62.5196H267.918C260.767 61.6343 253.821 59.3871 247.488 55.846C246.875 55.5055 246.671 54.7564 246.944 54.1435C247.216 53.5306 248.033 53.3263 248.646 53.5987C254.707 57.0036 261.312 59.1828 268.19 59.9999C268.871 60.068 269.348 60.6809 269.28 61.3619C269.212 62.0429 268.735 62.4515 268.054 62.5196Z" fill="#655838"/>
<path d="M274.115 41.0006C275.243 41.0006 276.158 40.0859 276.158 38.9576C276.158 37.8293 275.243 36.9147 274.115 36.9147C272.987 36.9147 272.072 37.8293 272.072 38.9576C272.072 40.0859 272.987 41.0006 274.115 41.0006Z" fill="#655838"/>
<path d="M274.115 47.8104C275.243 47.8104 276.158 46.8957 276.158 45.7674C276.158 44.6391 275.243 43.7245 274.115 43.7245C272.987 43.7245 272.072 44.6391 272.072 45.7674C272.072 46.8957 272.987 47.8104 274.115 47.8104Z" fill="#655838"/>
<path d="M274.115 54.5521C275.243 54.5521 276.158 53.6375 276.158 52.5092C276.158 51.3809 275.243 50.4662 274.115 50.4662C272.987 50.4662 272.072 51.3809 272.072 52.5092C272.072 53.6375 272.987 54.5521 274.115 54.5521Z" fill="#655838"/>
<path d="M287.462 66.8779C288.553 66.8779 289.437 65.9632 289.437 64.8349C289.437 63.7066 288.553 62.792 287.462 62.792C286.371 62.792 285.487 63.7066 285.487 64.8349C285.487 65.9632 286.371 66.8779 287.462 66.8779Z" fill="#655838"/>
<path d="M295.089 64.222C296.18 64.222 297.064 63.3074 297.064 62.1791C297.064 61.0508 296.18 60.1362 295.089 60.1362C293.998 60.1362 293.114 61.0508 293.114 62.1791C293.114 63.3074 293.998 64.222 295.089 64.222Z" fill="#655838"/>
<path d="M260.768 66.8098C261.858 66.8098 262.743 65.8952 262.743 64.7669C262.743 63.6386 261.858 62.7239 260.768 62.7239C259.677 62.7239 258.793 63.6386 258.793 64.7669C258.793 65.8952 259.677 66.8098 260.768 66.8098Z" fill="#655838"/>
<path d="M253.14 64.2902C254.231 64.2902 255.115 63.3755 255.115 62.2472C255.115 61.1189 254.231 60.2043 253.14 60.2043C252.05 60.2043 251.166 61.1189 251.166 62.2472C251.166 63.3755 252.05 64.2902 253.14 64.2902Z" fill="#655838"/>
<path d="M274.319 84.5834C242.517 84.5834 209.626 77.6374 209.626 66.0607C209.626 58.1613 224.199 51.7601 248.578 48.9L250.485 48.6957L248.306 55.2331L247.557 55.3693C232.03 57.957 226.514 62.1791 226.514 64.9711C226.514 70.4871 245.922 76.5478 273.843 76.5478C301.763 76.5478 321.171 70.419 321.171 64.9711C321.171 62.1791 315.655 57.957 300.128 55.3693L299.379 55.2331L297.2 48.6276L299.107 48.8319C318.379 51.011 338.944 56.6631 338.944 66.0607C339.012 77.6374 306.121 84.5834 274.319 84.5834ZM246.944 51.5558C222.905 54.6202 212.078 60.9533 212.078 65.9926C212.078 73.7558 237.07 82.0638 274.319 82.0638C311.569 82.0638 336.561 73.7558 336.561 65.9926C336.561 60 321.988 54.0754 300.741 51.4877L301.286 53.0539C310.003 54.6202 323.69 58.0932 323.69 64.9711C323.69 74.0963 298.017 78.9993 273.911 78.9993C249.804 78.9993 224.131 74.0963 224.131 64.9711C224.131 58.0251 237.751 54.5521 246.467 53.0539L246.944 51.5558Z" fill="#655838"/>
<path d="M283.853 36.7785C279.631 33.3736 275.885 25.5423 277.724 22.1374C278.201 21.2521 279.086 20.5711 280.108 20.4349C283.036 20.6392 285.828 21.865 287.871 23.976V12.4674C284.602 15.1233 281.197 16.6895 278.269 13.7613C275.954 11.446 278.541 5.93003 280.448 2.72941H267.85C271.187 8.72205 271.255 12.1951 270.097 13.557C268.054 16.0086 265.058 15.6681 260.631 12.3993V24.0441C262.674 22.0012 265.398 20.7754 268.327 20.5711C269.348 20.7073 270.301 21.3202 270.846 22.2736C273.298 26.3595 268.054 33.1012 264.581 36.438L262.879 34.6674C266.76 30.922 270.029 25.7466 268.735 23.5674C268.599 23.2951 268.327 23.0908 267.986 23.0908C266.216 22.8184 262.334 25.6785 260.223 27.7214L258.112 29.7644V7.29199L260.155 8.92634C266.42 14.0337 267.782 12.4674 268.19 11.9908C268.463 11.5141 268.667 8.58585 264.649 2.11653L263.355 0.209778H284.806L283.581 2.11653C281.061 5.99812 279.018 11.0374 279.971 11.9908C281.129 13.1484 282.763 13.8975 288.211 8.79015L290.322 6.8153V29.492L288.211 27.449C286.032 25.338 282.219 22.4779 280.448 22.7503C280.176 22.7503 279.971 22.9546 279.835 23.227C278.882 24.9294 281.401 31.5349 285.351 34.7355L283.853 36.7785Z" fill="#655838"/>
<path d="M274.047 24.7932C270.097 24.7932 266.896 21.5926 266.896 17.6429C266.896 13.6932 270.097 10.4926 274.047 10.4926C277.996 10.4926 281.197 13.6932 281.197 17.6429C281.197 21.5926 277.996 24.7932 274.047 24.7932ZM274.047 12.6037C271.255 12.6037 269.008 14.8509 269.008 17.6429C269.008 20.4349 271.255 22.6822 274.047 22.6822C276.839 22.6822 279.086 20.4349 279.086 17.6429C279.018 14.8509 276.771 12.6037 274.047 12.6037Z" fill="#655838"/>
</svg>
