<?xml version="1.0" encoding="utf-8"?>
<!-- Generator: Adobe Illustrator 19.2.1, SVG Export Plug-In . SVG Version: 6.00 Build 0)  -->
<svg version="1.1" id="layer" xmlns="http://www.w3.org/2000/svg" xmlns:xlink="http://www.w3.org/1999/xlink" x="0px" y="0px"
	 viewBox="0 0 652 652" style="enable-background:new 0 0 652 652;" xml:space="preserve">
<g>
	<circle cx="123.1" cy="281.2" r="15.2"/>
	<circle cx="241.7" cy="281.2" r="15.2"/>
	<path d="M144.6,390c-3.2,0.2-6.1-2-6.8-5.2c-5.2-24.5-5.2-49.8,0-74.3c0.8-3.3,3.9-5.5,7.3-5.2c5,0,4-5.2,4-5.2H99.4
		c-2.5,0-3.3,5.2,1.7,5.2c3.4-0.3,6.5,1.9,7.3,5.2c5.2,24.5,5.2,49.8,0,74.3c-0.7,3.2-3.8,5.4-7.1,5c-5,0-5,5.4-0.9,5.4h44.8
		C149.6,395.2,149.6,390,144.6,390z"/>
	<path d="M263.2,390c-3.2,0.2-6.1-2-6.8-5.2c-2.6-12.2-4-24.6-3.9-37.1c-0.3-11,0.6-22,2.8-32.8c0.5-3.7,1.3-7.3,2.5-10.9
		c0.8-2.2,0.6-3.8-3.6-3.8H218c-2.4,0-3.4,5.2,1.7,5.2c3.4-0.3,6.5,1.9,7.3,5.2c5.2,24.5,5.2,49.8,0,74.3c-0.7,3.2-3.8,5.4-7.1,5
		c-5,0-5,5.4-0.9,5.4h44.8C268.1,395.2,268.2,390,263.2,390z"/>
	<path d="M726.3,553.1c-3.4,0.3-6.4-1.9-7.3-5.1c-2.9-15-3.9-34.4-3.9-65.7c0.1-21.6,1.4-43.1,3.9-64.5c0.6-3.3,0.8-4.4,1-6.2
		c0.2-1.8-0.8-4-4.9-4h-33c-4.4,0-4.4,5.1,0.6,5.1c3.2-0.2,6.1,2,6.8,5.1c2.4,11,3.7,22.3,3.9,33.6v12.5c-1.1,1.7-2.3,2.6-3.7,1.6
		c-5.6-4.9-13-7.5-20.4-7.1c-13.7,0-36.5,19.1-36.5,52s15.8,50.4,29.8,50.4c20,0,24.5-17.8,27.7-14.8c-0.4,2.9-1.1,5.8-2.1,8.5
		c-0.8,2.1-0.6,3.7,3.6,3.7H728C730.4,558.2,731.3,553.1,726.3,553.1z M688.4,533.5c-4.3,4.7-10.8,6.5-16.9,4.8
		c-7.6-1.9-13.7-10.5-16.3-17.4c-1.8-5.5-2.8-11.3-3-17.1c-0.8-12.2,3-39.9,20.4-39.9c10.3,0,17.6,10.3,20.7,22.2v25.3
		c0,4.5-0.1,8.1-0.3,11.3C692.4,526.6,690.8,530.3,688.4,533.5L688.4,533.5z"/>
	<path d="M228.7,301.1l-8.3-0.9c-5.1,0-26,0-28.6,0c-2.6,0-2.4,2.3-1.1,3.2c6.2,3.3,9.8,10.2,8.9,17.2c-2.7,8.9-6.4,17.5-10.9,25.6
		c-1,1.9-2.8,2.4-4.1,0.8c-5.4-11.2-8.8-23.3-9.9-35.7c-0.1-2.1-0.5-4.4,2.5-5.5c3-1.1,2.9-5.5,0-5.5h-37.3c-5.4,0-2.6,4.6,1.7,10.4
		c8.2,11.7,15.2,24.2,20.8,37.3c5.1,12.4,9.4,25,12.9,37.9c0.5,1.8,3.2,12.3,3.6,13.4c0.6,1.7,2.6,1.9,3.2,0.2
		c3.8-15.7,7.4-22.5,16.9-30.2c4.6-3.8,0.7-6.2-1.6-7.5c-2.1-1.3-4-2.8-5.6-4.6c-0.4-1.4-0.2-2.8,0.5-4.1c1.8-3.7,11.9-28.6,15-33.5
		c3.9-7.2,10.7-12.4,18.6-14.3C230.6,304.1,228.7,301.1,228.7,301.1z"/>
	<path d="M345.4,324.2c-3.4-14.2-34.6-38.8-66.8-12c-33.5,29.1-10.2,83.7,25.8,83.7s40-28.1,38.2-36.7c0,0-1.3-5.9-5.5,0
		c-23.7,25.1-43.3,5.4-45.6-1.1c5-2.9,51.7-27.6,51.7-27.6C344.7,328.9,345.5,326.6,345.4,324.2z M317.6,335.6
		c-8.8,5.7-18,10.8-27.4,15.5c-1.6,0.7-3.2,2.2-5.3-3.2l-1.3-2.9c-0.9-2.4-1.6-4.9-2.3-7.4c-6.4-25,17.4-32.4,28.7-27.8
		C321.4,314.4,321.2,332.5,317.6,335.6L317.6,335.6z"/>
	<path d="M622.8,324.2c-3.4-14.2-34.6-38.8-66.8-12c-33.5,29.1-10.2,83.7,25.8,83.7c35.9,0,40-28.1,38.2-36.7c0,0-1.3-5.9-5.5,0
		c-23.7,25.1-43.3,5.4-45.6-1.1c5-2.9,51.7-27.6,51.7-27.6S623.6,327.3,622.8,324.2L622.8,324.2z M595.2,335.6
		c-8.8,5.7-18,10.8-27.4,15.5c-1.6,0.7-3.2,2.2-5.3-3.2l-1.3-2.9c-0.9-2.4-1.6-4.9-2.3-7.4c-6.4-25,17.4-32.4,28.7-27.8
		C598.9,314.4,598.7,332.5,595.2,335.6L595.2,335.6z"/>
	<path d="M187.4,484.4c-3.5-15.2-35.5-41.5-68.7-12.9c-34.4,31.2-10.5,89.6,26.5,89.6s41.1-30.1,39.2-39.3c0,0-1.4-6.3-5.7,0
		c-24.4,26.9-44.5,5.8-46.9-1.1c5.1-3.1,53.1-29.5,53.1-29.5C186.7,489.4,187.6,486.9,187.4,484.4z M159,496.6
		c-9.1,6.1-18.5,11.6-28.2,16.6c-1.6,0.7-3.3,2.4-5.4-3.4l-1.3-3.1c-0.9-2.6-1.6-5.3-2.3-8c-6.6-26.7,17.9-34.7,29.6-29.8
		C163,473.8,162.6,493.3,159,496.6z"/>
	<path d="M532.9,392.1c-0.3-1.1-1.5-2.1-3.7-2.1c-3.2,0.2-6.1-2-6.7-5.2c-0.2-1.8,0-3.6,0.6-5.4c2.8-7.8,6.8-15,9.4-22.9
		c3.4-9.4,4.8-19.3,4-29.3c-0.9-7.6-4.4-14.6-9.9-19.8c-9.5-9.8-24.6-11.5-36.1-4.1c-2,1.3-5.8,4.6-8.2,4.5c-2.1,0-2.4-1.3-2.4-2.6
		c0.1-0.4,0.2-0.8,0.4-1.3c0.8-2.2,0.6-3.8-3.6-3.8h-36.1c-2.4,0-3.4,5.2,1.7,5.2c3.4-0.3,6.5,1.9,7.3,5.2c5.2,24.5,5.2,49.8,0,74.3
		c-1.1,3.2-4.2,5.4-7.6,5.2c-2.3,0-4.6-0.1-6.8-0.2c-2,0.1-4-0.7-5.5-2.1c-1.2-1.3-1.9-2.9-2.3-4.6c-0.3-2-0.1-4,0.6-5.8
		c2.8-7.8,6.6-12.8,9.2-20.7c3.4-9.4,4.8-19.3,4-29.3c-0.9-7.6-4.4-14.6-9.9-19.8c-9.5-9.8-24.6-11.5-36.1-4.1
		c-2,1.3-5.8,4.6-8.2,4.5c-2.1,0-2.4-1.3-2.4-2.6c0.1-0.4,0.2-0.8,0.4-1.3c0.8-2.2,0.6-3.8-3.6-3.8h-36.1c-2.4,0-3.4,5.2,1.7,5.2
		c3.4-0.3,6.5,1.9,7.3,5.2c5.2,24.5,5.2,49.8,0,74.3c-0.7,3.2-3.8,5.4-7.1,5c-5,0-5,5.4-0.9,5.4h44.8c4.4,0,4.4-5.2-0.6-5.2
		c-3.2,0.2-6.1-2-6.8-5.2c-2.6-12.2-4-24.6-3.9-37.1c0.1-9-0.9-20.2,4.5-28c2.6-4.1,6.9-6.8,11.8-7.3c3.5-0.3,7,0.8,9.8,2.9
		c10.2,8.1,10.2,30.6,0.8,59.1c-6,16.9-1.1,19.7-0.6,20.3c0.5,0.6,2.1,0.6,3.2,0.6l34.2,0h43c4.4,0,4.4-5.2-0.6-5.2
		c-3.2,0.2-6.1-2-6.8-5.2c-2.6-12.2-4-24.6-3.9-37.1c0.1-9-0.9-20.2,4.6-28c2.6-4.1,6.9-6.8,11.8-7.3c3.5-0.3,7,0.8,9.8,2.9
		c10.2,8.1,10.2,30.6,0.8,59.1c-6,16.9-1.1,19.7-0.6,20.3c0.5,0.6,2.1,0.6,3.2,0.6l25.6,0l0,0c2.2-0.5,3.2-2,2.8-3.3L532.9,392.1z"
		/>
	<path d="M255.1,503.2c-8.9-5.2-19.2-6.4-28.7-10.3c-7.5-3.1-17.8-8.2-16.9-17.6c1.3-12.7,14.3-15.7,23.4-14.7
		c2.1,0.2,9.4,1.9,7,6.1c-6.3,5-7.4,14.1-2.4,20.3c5,6.3,14.1,7.4,20.3,2.4c3.5-2.8,5.5-7,5.5-11.4v-0.2c0-3.3-1.1-6.4-3.1-9l0,0
		c-0.4-0.5-0.9-1-1.4-1.4c-8.9-9.2-22.4-14.2-40.2-11c-18.7,3.3-29.5,19.2-28.2,29.2c1.3,10,3.1,20.9,44.3,35.8
		c18,6.5,20.5,20.1,12.5,27.6c-4.7,3.8-10.7,5.8-16.8,5.5c-8-0.2-17.5-2-16.5-6.8c4.4-2.3,7.1-6.9,7.1-11.9
		c-0.4-8.6-7.2-15.6-15.9-16c-8.4,0.2-15.2,7.1-15.3,15.5c-0.1,3.5,1.2,6.8,3.6,9.3h-0.1c6.8,7.2,15.7,12.2,25.4,14.3
		c16.8,4.4,37.2-1.3,47.1-16c2.8-4.2,4.3-9.1,4.4-14.2C269.9,518,264.3,508.4,255.1,503.2z"/>
	<path d="M331.2,509.5c-3.6-6.2-7-1.7-4.2,3.2c1.6,3.8,2.5,7.8,2.7,11.9c0.8,6.8,0.3,15.6-4.9,20.7c-1.7,1.6-4,2.6-6.3,2.8
		c-7.9,0-11.7-6.3-11.7-17c0-6.3,0-38.4,0-64.5c1.6-1.2,3.6-1.9,5.6-1.9c5.3,0.2,10.1,3.2,12.5,8l3.8-12.6h-18.1
		c-1.4,0-2.7-0.4-3.8-1.2v-27.4c0,0,0,0,0,0c0-3.1-3.1-4.2-4,1.1c-3,16.1-30.7,28.3-33,29.1c-2.4,0.8-2.3,3.3,1.1,3.7
		c3.6,0.1,7.7-2.8,9.3,4.7c0,19.7-0.1,58.5-0.1,62.4c0,5,1.6,26.5,27.6,26.5C335,558.8,340.9,527.6,331.2,509.5z"/>
	<path d="M461.3,460c-1.8,0-8.7,0-8.7,0c-5.1,0-26,0-28.6,0c-2.6,0-2.4,2.3-1.1,3.2c6.2,3.3,9.8,10.2,8.9,17.2
		c-2.7,8.9-6.4,17.5-10.9,25.6c-1,1.9-2.8,2.4-4.1,0.8c-5.4-11.2-8.8-23.3-9.9-35.7c-0.1-2.1-0.5-4.4,2.5-5.5s2.9-5.5,0-5.5H372
		c-5.4,0,0.1,4.6,4.4,10.4c0.4,0.6,2.3,3.8,4.9,9c-0.1,0.3-0.1,0.7-0.1,1c-2.7,8.9-6.4,17.5-10.9,25.6c-1,1.9-2.8,2.4-4.1,0.8
		c-5.4-11.2-8.8-23.3-9.9-35.7c-0.1-2.1-0.5-4.4,2.5-5.5c3-1.1,2.9-5.5,0-5.5h-37.4c-5.4,0-2.6,4.6,1.7,10.4
		c8.2,11.7,15.2,24.2,20.8,37.3c5.1,12.4,9.4,25,12.9,37.9c0.5,1.8,3.2,12.3,3.6,13.4c0.6,1.7,2.6,1.9,3.2,0.2
		c3.8-15.7,7.4-22.5,16.9-30.2c4.6-3.8,0.7-6.2-1.6-7.5c-2.1-1.3-4-2.8-5.6-4.6c-0.4-1.4-0.2-2.8,0.5-4.1
		c1.3-2.7,7.1-16.8,11.3-26.1c3.3,6.9,6.5,13.8,9.5,20.8c5.1,12.4,9.4,25,12.9,37.9c0.5,1.8,3.2,12.3,3.6,13.4
		c0.6,1.7,2.6,1.9,3.2,0.2c3.8-15.7,7.4-22.5,16.9-30.2c4.6-3.8,0.7-6.2-1.6-7.5c-2.1-1.3-4-2.8-5.6-4.6c-0.4-1.4-0.2-2.8,0.5-4.1
		c1.8-3.7,11.9-28.6,15-33.5c3.9-7.3,10.7-12.6,18.7-14.6c1.5-0.2,2.9-0.7,4.3-1.3C464.5,462,463.6,460,461.3,460L461.3,460z"/>
	<path d="M375.8,469.4c-1.7-1.8-5.7-5.3-7.9-5.4c-1.1-0.1-2-1-1.9-2.1c0.1-1.1,1-2,2.1-1.9c0.1,0,0.2,0,0.3,0c3.5,0,13.9,0,13.9,0
		l-0.6,8.7"/>
	<path d="M487.2,454.3c-1.3-2-5.6-0.6-7.8,0.6c-8.3,4.1-15.7,9.8-21.8,16.6c-12.4,14.8-16.8,34.8-11.7,53.4
		c9.4,30.2,43.3,45.1,67.2,29.3c15.5-10.3,22.2-29.1,21.6-47.1c-0.2-5.8-1.1-11.6-2.8-17.2c-4.7-15.4-19.9-32-37.7-27.9
		c-6.1,1.4-11.6,4.6-15.8,9.1c-5,7,1.3,6.7,5,6.4c21.2-0.2,31,21,33.9,30.5c3.5,11.3,6.2,33.7-8.7,38.7
		c-12.9,4.4-25.5-7.5-32.3-17.6c-2.4-3.9-4.5-8.1-6.3-12.3c-10.8-24.4-3.4-45.4,11.3-55.6C487,457.3,488.4,456.5,487.2,454.3z"/>
	<path d="M581.7,454.3c-1.3-2-5.6-0.6-7.8,0.6c-8.3,4.1-15.7,9.8-21.8,16.6c-12.4,14.8-16.8,34.8-11.7,53.4
		c9.4,30.2,43.3,45.1,67.2,29.3c15.5-10.3,22.2-29.1,21.6-47.1c-0.2-5.8-1.1-11.6-2.8-17.2c-4.7-15.4-19.9-32-37.7-27.9
		c-6.1,1.4-11.6,4.6-15.8,9.1c-5,7,1.3,6.7,5,6.4c21.2-0.2,31,21,33.9,30.5c3.5,11.3,6.2,33.7-8.7,38.7
		c-12.9,4.4-25.5-7.5-32.3-17.6c-2.4-3.9-4.5-8.1-6.3-12.3c-10.8-24.4-3.4-45.4,11.3-55.6C581.5,457.3,582.9,456.5,581.7,454.3
		L581.7,454.3z"/>
	<path d="M131,415.1h-0.6c-2,0-10.5,0-10.5,0h-8.5l-18,0h-5.8c-3,0-2.7,2.6-1.2,3.6c8.3,4.4,13.3,13.2,12.9,22.5
		c-0.1,5.7-9.6,52-14.5,71.8c-0.6,1.2-1.6,1.5-2.1,0c-2.6-7.9-4.8-17.3-7.4-27c-5.8-20.9-12-43-14.8-55.8l-0.1-0.6
		c-0.2-1-0.4-2-0.6-2.8c-0.6-2.5,0.4-5,2.6-6.4l0.3-0.1c1.5-0.8,3.7-1.2,4.5-1.8c2.1-1.6,1.2-3.6-1.1-3.6h-0.6c-2,0-10.5,0-10.5,0
		h-8.5l-18,0h-5.8c-3,0-2.7,2.6-1.2,3.6c5.3,3,9.4,7.8,11.6,13.6l0.3,1l2.9,9.8c0.7,2.4,0.8,5,0.2,7.5
		c-4.1,15.6-11.9,43.8-15.6,59.7c-0.5,1-1.3,1.4-1.9,0.5c-2.3-7.5-4.3-16-6.7-24.7c-4-14.2-8-29-11.2-40.9c-1.3-8.6,3.5-8.8,6.3-12
		c2.5-2.7-0.8-3.9-1.9-3.8c-12.2,0.4-22.8-15.8-43.5-21.2c-2.1-0.5-4.2-0.7-6.3-0.6c-18.4,0-33.3,14.9-33.4,33.2
		c-0.6,15.7,10.6,29.4,26.1,32.1c9.2,1.4,18.2-3.9,21.5-12.6c0,0,1.5-4.6-0.8-5.2c-2.2-0.2-2.4,2.2-3,4.7c-3,6.9-10.8,10.6-18,8.5
		c-11.7-2.3-20.3-12.5-20.5-24.5c-0.2-13.5,10.6-24.7,24.1-24.9c0.3,0,0.6,0,1,0c6.7,0.3,12.8,4.3,15.7,10.3
		c8.3,25.1,27.2,93.9,33,126.8c1.3,6.9,1.8,15.9,2.1,17.3c0.1,1,0.9,1.8,1.9,1.8c0.8,0,1.4-0.6,1.7-1.3
		c5.4-17.5,12.2-26.4,23.4-34.4c5.5-4,5-3.1-1.3-8.6c-1.8-1.6-3.2-3.5-4.4-5.6c-0.9-1.7-1.1-3.6-0.7-5.5
		c2.6-12.3,10.5-40.2,14.9-57.1c0.2-0.8,1-1.4,1.9-1.2c0.5,0.1,0.9,0.5,1.1,0.9l0.3,1c9.2,31.9,19.9,73.1,22.7,93
		c1,7,1.1,15.6,1.5,17c0.6,2,2.8,2.4,3.6,0.5c5.4-17.5,12.2-26.4,23.4-34.4c5.5-4,5-3.1-1.3-8.6c-1.1-1-2.1-2.1-2.9-3.3
		c-1.1-1.7-1.4-3.8-1-5.8c3.8-17.4,12.4-56.8,15.1-65.5c3.4-11.8,9.4-22.6,17.7-31.6c1.9-1.8,4-3.3,6.4-4.4c1.5-0.8,3.7-1.2,4.5-1.8
		C134.2,417,133.3,415.1,131,415.1L131,415.1z"/>
	<path d="M119.4,257.5h-0.6c-2,0-10.5,0-10.5,0h-8.5l-18,0h-5.8c-3,0-2.7,2.6-1.2,3.6c8.3,4.4,13.3,13.1,12.9,22.4
		c-0.1,5.1-11.2,42-17.1,64c-0.4,0.3-0.9,0.2-1.2-0.1c0,0,0-0.1-0.1-0.1c-2.3-7.4-5.8-15.7-8.2-24.5c-4-14.1-8-28.8-11.2-40.7
		c-1.3-8.6,3.5-8.8,6.3-12c2.5-2.7-0.8-3.9-1.9-3.8c-12.2,0.4-22.8-15.7-43.5-21.1c-2.1-0.5-4.2-0.6-6.3-0.6
		c-18.4-0.1-33.4,14.7-33.5,33c0,0,0,0,0,0c-0.5,15.7,10.6,29.3,26.1,32c9.2,1.4,18.1-3.8,21.5-12.5c0,0,1.5-4.5-0.8-5.1
		c-2.2-0.2-2.4,2.2-3,4.7c-3.1,6.9-10.8,10.5-18,8.4c-11.7-2.3-20.3-12.4-20.5-24.4c-0.2-13.5,10.6-24.6,24.1-24.8c0.3,0,0.7,0,1,0
		c6.7,0.3,12.8,4.2,15.7,10.3c8.4,25,28.7,93.4,34.6,126.1c1.3,6.9,2.2,11.6,2.6,12.9c0.1,1,0.9,1.8,1.9,1.8c0.8,0,1.4-0.6,1.7-1.3
		c5.4-17.4,11.7-22,22.9-30c5.5-4,5-3-1.3-8.6c-1.7-1.6-3.2-3.5-4.4-5.5c-0.5-0.9-0.7-1.8-0.9-2.8c4.7-19,15-52.5,17.4-60.4
		c3.4-11.7,9.5-22.5,17.7-31.5c1.9-1.8,4-3.2,6.4-4.4c1.5-0.8,3.7-1.2,4.5-1.8C122.6,259.5,121.7,257.5,119.4,257.5z"/>
	<path d="M324.4,206.1c-9,0.1-17.7-2.8-24.9-8.2c-0.8-0.7-0.9-1.8-0.2-2.6c0.6-0.7,1.6-0.9,2.4-0.3c6.5,4.9,14.5,7.5,22.6,7.5
		c8.1,0,16.1-2.6,22.6-7.4c0.8-0.6,1.9-0.4,2.5,0.4c0,0,0,0,0,0c0.6,0.8,0.4,2-0.4,2.6C341.9,203.3,333.2,206.1,324.4,206.1
		L324.4,206.1z"/>
	<path d="M291.4,188.8c-0.6,0-1.2-0.3-1.5-0.8c-4.8-7-7.4-15.3-7.4-23.7c0-23.1,18.7-41.9,41.8-41.9c23.1,0,41.9,18.7,41.9,41.8
		c0,8.3-2.5,16.5-7.1,23.4c-0.6,0.8-1.7,1-2.5,0.5c-0.8-0.5-1-1.6-0.6-2.4c0,0,0-0.1,0.1-0.1c11.8-17.5,7.1-41.3-10.5-53.1
		s-41.3-7.1-53.1,10.5c-4.2,6.3-6.5,13.7-6.5,21.3c-0.1,7.7,2.3,15.3,6.8,21.6c0.5,0.8,0.3,1.9-0.5,2.5
		C292.2,188.6,291.8,188.8,291.4,188.8L291.4,188.8z"/>
	<path d="M324.7,180.9c-6.1,0-11-4.9-11-11c0-6.1,4.9-11,11-11c6.1,0,11,4.9,11,11C335.7,176,330.8,180.9,324.7,180.9L324.7,180.9z
		 M324.7,162.1c-4.3,0-7.8,3.5-7.8,7.8s3.5,7.8,7.8,7.8c4.3,0,7.8-3.5,7.8-7.8l0,0C332.5,165.6,329,162.1,324.7,162.1z"/>
	<path d="M316.9,165.5c-1,0-1.8-0.8-1.8-1.8c0,0,0,0,0,0v-38.6c0.1-1,0.9-1.8,1.9-1.7c0.9,0,1.7,0.8,1.7,1.7v38.6
		C318.7,164.6,317.9,165.4,316.9,165.5C316.9,165.5,316.9,165.5,316.9,165.5z"/>
	<path d="M332.6,165.9c-1,0-1.8-0.8-1.8-1.8c0,0,0,0,0,0v-38.9c0.1-1,0.9-1.8,1.9-1.7c0.9,0,1.7,0.8,1.7,1.7v38.9
		C334.4,165.1,333.6,165.9,332.6,165.9C332.6,165.9,332.6,165.9,332.6,165.9L332.6,165.9z"/>
	<path d="M324.8,181.8c-14,0.4-27.8-3.2-39.9-10.4c-0.8-0.6-1-1.7-0.5-2.5c0.5-0.8,1.6-1,2.4-0.6c0,0,0.1,0,0.1,0.1
		c19.6,13.1,57.6,12.9,75.2-0.4c0.8-0.6,2-0.4,2.5,0.5c0.5,0.8,0.4,1.8-0.3,2.4C352.6,178.5,338.8,182.3,324.8,181.8L324.8,181.8z"
		/>
	<path d="M332.8,166.4c-1,0-1.8-0.8-1.9-1.8c0-0.9,0.7-1.7,1.7-1.8c10.5-0.8,20.6-4.1,29.6-9.4c0.9-0.5,2-0.2,2.5,0.6
		c0.5,0.9,0.3,2-0.6,2.5c-9.5,5.7-20.1,9.1-31.2,9.9L332.8,166.4L332.8,166.4z"/>
	<path d="M315.8,166.7h-0.2c-10.5-1.3-20.7-4.6-30-9.8c-0.9-0.5-1.2-1.6-0.8-2.5s1.6-1.2,2.5-0.8c8.9,5,18.6,8.2,28.7,9.4
		c1,0.1,1.7,1,1.6,2C317.5,166,316.8,166.6,315.8,166.7L315.8,166.7z"/>
	<circle cx="324.7" cy="132.1" r="3"/>
	<circle cx="324.7" cy="142.1" r="3"/>
	<circle cx="324.7" cy="152" r="3"/>
	<ellipse cx="344.3" cy="170.1" rx="2.9" ry="3"/>
	<ellipse cx="355.5" cy="166.2" rx="2.9" ry="3"/>
	<ellipse cx="305.1" cy="170" rx="2.9" ry="3"/>
	<ellipse cx="293.9" cy="166.3" rx="2.9" ry="3"/>
	<path d="M325,199.1c-46.7,0-95-10.2-95-27.2c0-11.6,21.4-21,57.2-25.2l2.8-0.3l-3.2,9.6l-1.1,0.2c-22.8,3.8-30.9,10-30.9,14.1
		c0,8.1,28.5,17,69.5,17s69.5-9,69.5-17c0-4.1-8.1-10.3-30.9-14.1l-1.1-0.2l-3.2-9.7l2.8,0.3c28.3,3.2,58.5,11.5,58.5,25.3
		C420,188.9,371.7,199.1,325,199.1L325,199.1z M284.8,150.6c-35.3,4.5-51.2,13.8-51.2,21.2c0,11.4,36.7,23.6,91.4,23.6
		s91.4-12.2,91.4-23.6c0-8.8-21.4-17.5-52.6-21.3l0.8,2.3c12.8,2.3,32.9,7.4,32.9,17.5c0,13.4-37.7,20.6-73.1,20.6
		s-73.1-7.2-73.1-20.6c0-10.2,20-15.3,32.8-17.5L284.8,150.6L284.8,150.6z"/>
	<path d="M339,128.9c-6.2-5-11.7-16.5-9-21.5c0.7-1.3,2-2.3,3.5-2.5c4.3,0.3,8.4,2.1,11.4,5.2V93.2c-4.8,3.9-9.8,6.2-14.1,1.9
		c-3.4-3.4,0.4-11.5,3.2-16.2h-18.5c4.9,8.8,5,13.9,3.3,15.9c-3,3.6-7.4,3.1-13.9-1.7v17.1c3-3,7-4.8,11.3-5.1
		c1.5,0.2,2.9,1.1,3.7,2.5c3.6,6-4.1,15.9-9.2,20.8l-2.5-2.6c5.7-5.5,10.5-13.1,8.6-16.3c-0.2-0.4-0.6-0.7-1.1-0.7
		c-2.6-0.4-8.3,3.8-11.4,6.8l-3.1,3V85.6l3,2.4c9.2,7.5,11.2,5.2,11.8,4.5c0.4-0.7,0.7-5-5.2-14.5l-1.9-2.8h31.5l-1.8,2.8
		c-3.7,5.7-6.7,13.1-5.3,14.5c1.7,1.7,4.1,2.8,12.1-4.7l3.1-2.9v33.3l-3.1-3c-3.2-3.1-8.8-7.3-11.4-6.9c-0.4,0-0.7,0.3-0.9,0.7
		c-1.4,2.5,2.3,12.2,8.1,16.9L339,128.9z"/>
	<path d="M324.6,111.3c-5.8,0-10.5-4.7-10.5-10.5c0-5.8,4.7-10.5,10.5-10.5c5.8,0,10.5,4.7,10.5,10.5c0,0,0,0,0,0
		C335.1,106.6,330.4,111.3,324.6,111.3C324.6,111.3,324.6,111.3,324.6,111.3z M324.6,93.4c-4.1,0-7.4,3.3-7.4,7.4
		c0,4.1,3.3,7.4,7.4,7.4s7.4-3.3,7.4-7.4C331.9,96.7,328.6,93.4,324.6,93.4z"/>
</g>
</svg>
