<svg width="789" height="332" viewBox="0 0 789 332" fill="none" xmlns="http://www.w3.org/2000/svg">
<path d="M748.531 322.176L631.635 0.212456L631.554 0H629.248L605.176 66.1626L561.352 186.612L561.25 186.517C546.061 173.11 524.633 164.729 497.646 161.608L489.415 160.758L497.58 159.711C542.085 151.71 572.001 123.593 572.001 89.7163C572.001 43.2611 528.324 10.8355 465.76 10.8355H335.587V13.1872H373.412V253.229L281.548 0.212456L281.467 0H279.16L255.088 66.1626L162.242 321.348L161.671 321.414C160.084 321.609 158.515 321.765 156.962 321.883C154.626 322.066 152.305 322.176 149.976 322.176H56.1631L234.488 13.1871L235.813 10.8647H17.7153V106.449H20.0295C20.4396 59.8914 47.5434 13.1871 107.427 13.1871H179.672L0 324.491H242.053V232.914H239.738C239.424 273.493 216.428 312.036 166.424 320.74L164.835 321.011L202.916 216.298H309.596L348.037 322.176H310.116V324.491H458.949V322.176H420.868V162.465H464.808C509.525 162.465 535.171 182.451 535.171 217.28V245.61C535.171 248.731 535.384 253.295 535.618 257.112V257.251L512 322.161H481.147V324.476H545.014V322.161H514.49L535.999 263.053C536.043 263.625 536.065 263.969 536.065 263.969L536.658 269.295L537.229 272.819C540.818 294.615 549.152 310.637 561.99 320.439L563.835 321.78C573.59 328.564 585.71 332 599.881 332C618.651 332 631.166 327.319 641.5 316.3L640.145 315.025C630.624 323.817 622.635 327.377 612.623 327.377C595.567 327.377 586.64 306.681 586.64 286.27V246.577C586.731 236.728 585.189 226.932 582.078 217.587L581.653 216.356V216.312H659.684L698.124 322.19H660.204V324.505H789V322.19L748.531 322.176ZM203.766 213.983L256.319 69.5473L308.754 213.983H203.766ZM420.89 160.143V13.1871H454.431C499.235 13.1871 522.89 39.8324 522.89 90.2144C522.89 143.798 509.312 160.143 464.808 160.143H420.89ZM580.745 213.983L580.518 213.411C577.05 204.963 572.002 197.254 565.644 190.7L563.447 188.502L563.213 188.283L606.377 69.5473L658.812 213.983H580.745Z" fill="#535944" fill-opacity="0.86"/>
</svg>
